<?xml version="1.0" encoding="utf-8"?>
<!-- Generator: Adobe Illustrator 23.0.3, SVG Export Plug-In . SVG Version: 6.00 Build 0)  -->
<svg version="1.1" id="Layer_1" xmlns="http://www.w3.org/2000/svg" xmlns:xlink="http://www.w3.org/1999/xlink" x="0px" y="0px"
	 viewBox="0 0 600 600" style="enable-background:new 0 0 600 600;" xml:space="preserve">
<style type="text/css">
	.st0{fill:#FFFFFF;}
	.st1{fill:#FFCC08;}
</style>
<g>
	<g>
		<path d="M557.4,324.7c1.1,10.8-1.6,17.4-4.9,23.6C501,445.2,429.6,523,332.2,575.6c-4.7,2.5-9.4,5.1-14.2,7.4
			c-11.7,5.8-23.5,5.1-35,0c-26.1-11.7-50.5-26.4-73.4-43.5C139.4,487.1,85,421.5,45.1,343.6c-2.8-5.4-3-11-2.4-16.8
			c2.5-22.2,4.9-44.4,7.4-66.6c2.4-21.5,4.9-43,7.3-64.5c2.1-19.1,4.1-38.3,6.2-57.4c1.4-12.6,2.4-25.2,4.3-37.7
			C70,86.5,79.2,77.9,92.5,74.1C157.6,55.5,222.8,37.1,288,18.8c9.2-2.6,18.7-2.2,27.9,0.4c62.9,18.1,125.8,36.2,188.7,54.4
			c17.8,5.1,27.5,17.6,29.3,36.3c2.2,22.4,4.9,44.7,7.3,67c2.4,21.6,4.7,43.3,7,64.9c2.1,19.1,4.3,38.2,6.4,57.4
			C555.8,308.9,556.8,318.5,557.4,324.7z M496.3,400c0.7-0.8,1.2-1.3,1.6-1.9c11.9-19.6,23.7-39.2,35.7-58.7
			c3.3-5.5,3.3-11.3,2.6-17.4c-2.8-24.2-5.6-48.5-8.3-72.8c-2.4-21.8-4.6-43.5-7-65.3c-2.7-24.4-5.5-48.8-8.2-73.2
			c-1.1-9.6-4.8-14.3-13.8-16.9c-62.5-18-125-35.9-187.5-54c-7-2-13.8-2-20.7,0c-32.3,9.3-64.7,18.5-97,27.7
			c-31.4,9-62.9,17.9-94.3,27c-5.9,1.7-10.1,5.4-10.8,12c-1.2,10.2-2.4,20.3-3.5,30.5c-2.1,19-4.1,37.9-6.2,56.9
			c-2.4,21.5-4.9,42.9-7.4,64.4c-2.5,22.6-5,45.2-7.6,67.8c-0.5,4.4-0.2,8.5,2.3,12.5c11.7,19.3,23.3,38.8,34.9,58.1
			c0.7,1.2,1.6,2.2,2.6,3.4c0.5-0.6,0.8-0.9,0.9-1.2c13.3-31.5,35.6-55.2,63.6-74.1c2.3-1.5,4.2-3.7,7-6.3c0.8,3.2,2.3,6.6,2.3,10
			c0.3,16.9,1.5,33.7,7,49.8c5.4,15.8,12.6,30.7,26.7,40.5c10.6,7.4,20.1,15.7,28.6,25.4c2.5,2.9,4.8,5.4,6,9.2
			c1.7,5.8,1.7,12.4,6.8,16.9c0.5,0.4,0.3,1.6,0.4,2.4c0.8,8.2,1.5,16.5,2.5,24.7c0.4,3.3,0.7,7.9,2.8,9.3
			c5.4,3.5,8.8,8.9,13.5,12.8c1.5,1.3,3.7,2.1,5.7,2.5c2.8,0.6,5,1.8,7,4.1c1.8,2.1,4.7,4.2,7.3,4.4c3.7,0.2,7.5-1.9,11.2-1.9
			c3.9,0,8.6,3.3,11.5,2c8.4-3.9,16-9.4,23.9-14.4c0.2-0.1,0.3-0.5,0.5-0.7c2.1-1.6,4-3.8,6.4-4.6c6.3-2.1,8.3-6.5,8.4-12.6
			c0.2-7.3,0.6-14.6,1-21.9c0.2-2.3,0.6-4.7,1.5-6.8c1.4-3.2,3.6-6,4.9-9.2c2.4-6.2,4.5-12.2,9-17.6c7.1-8.5,14-16.9,23.6-22.7
			c14.7-8.9,23.6-22.1,29.2-37.9c5.9-16.7,7.2-34,6.8-51.5c0-2.1,0-4.3,0-7.4C459.9,343.1,482.5,367.5,496.3,400z M85,104.7
			c-6.1,1-6.9,2.2-7.5,8.7c-1.1,11.2-2.4,22.3-3.7,33.4c-1.9,16.7-3.8,33.5-5.7,50.2c-1.5,13.7-3,27.3-4.5,41
			c-1.8,16.6-3.7,33.2-5.6,49.8c-1.5,13.8-3.2,27.6-4.4,41.4c-0.3,3.2,0,6.9,1.4,9.6c37.2,73.3,87.9,135.4,152.8,185.8
			c24.1,18.7,49.8,34.8,77.5,47.5c9,4.1,18.3,6.1,27.6,1.2c13-6.9,26.1-13.8,38.7-21.5c68.4-41.7,122.9-97.5,165.9-164.8
			c8.7-13.6,16.5-27.8,24.5-41.8c3.1-5.5,5.9-11.2,5.2-17.9c-2.3-20.5-4.5-41-6.8-61.5c-3-26.8-6.1-53.5-9.1-80.3
			c-2.9-25.9-5.7-51.9-8.6-77.8c-1.3-11.9-8.4-20.1-19.9-23.5c-62.5-18-125-35.9-187.5-54.1c-9.2-2.7-18.1-2.9-27.3-0.3
			c-41.2,11.8-82.6,23.3-123.8,35.4c-13.7,4-28.4,5.8-40.2,15.2c-1.5,1.2-3.1,2.1-4.7,3.2c1.7,0.4,3,0.1,4.3-0.2
			c55.6-15.7,111.2-31.3,166.8-47c7.1-2,14-2,21.1,0c63,18.2,126.1,36.3,189.2,54.3c8.5,2.4,13.5,8,14.7,16.6
			c1.5,10.7,2.5,21.5,3.8,32.2c1.6,14.2,3.2,28.5,4.8,42.7c1.5,13.9,3,27.9,4.6,41.9c1.8,16.6,3.7,33.2,5.6,49.8
			c1.6,14.4,3.2,28.7,4.8,43.1c0.9,8.2,2.3,16.4-2.5,24.1c-4.7,7.8-8.8,16-13.5,23.9c-51.3,86.4-119.7,154.9-209.9,200.8
			c-8.6,4.4-16.7,4.5-24.9,0.2c-13.8-7.2-27.9-14.1-41-22.4C166,491.7,105.1,421.3,61.1,335.9c-1-1.9-1.1-4.6-0.9-6.9
			c1.2-11.4,2.6-22.9,3.9-34.3c1.5-14,3-27.9,4.5-41.9c1.8-16.5,3.8-32.9,5.6-49.4c1.8-16.5,3.5-32.9,5.3-49.4
			C81.4,137.6,83.2,121.2,85,104.7z"/>
		<path class="st0" d="M300.9,17.1c5,0,10,0.8,15,2.2c62.9,18.1,125.8,36.2,188.7,54.4c17.8,5.1,27.5,17.6,29.3,36.3
			c2.2,22.4,4.9,44.7,7.3,67c2.4,21.6,4.7,43.3,7,64.9c2.1,19.1,4.3,38.2,6.4,57.4c1.1,9.6,2.1,19.3,2.7,25.5
			c1.1,10.8-1.6,17.4-4.9,23.6C501,445.2,429.6,523,332.2,575.6c-4.7,2.5-9.4,5.1-14.2,7.4c-5.6,2.8-11.3,4.1-17,4.1
			c-6.1,0-12.1-1.5-18.1-4.1c-26.1-11.7-50.5-26.4-73.4-43.5C139.4,487.1,85,421.5,45.1,343.6c-2.8-5.4-3-11-2.4-16.8
			c2.5-22.2,4.9-44.4,7.4-66.6c2.4-21.5,4.9-43,7.3-64.5c2.1-19.1,4.1-38.3,6.2-57.4c1.4-12.6,2.4-25.2,4.3-37.7
			C70,86.5,79.2,77.9,92.5,74.1C157.6,55.5,222.8,37.1,288,18.8C292.3,17.6,296.6,17.1,300.9,17.1 M121,83.9c1,0,1.8-0.2,2.7-0.4
			c55.6-15.7,111.2-31.3,166.8-47c3.6-1,7.1-1.5,10.6-1.5c3.5,0,7,0.5,10.6,1.5c63,18.2,126.1,36.3,189.2,54.3
			c8.5,2.4,13.5,8,14.7,16.6c1.5,10.7,2.5,21.5,3.8,32.2c1.6,14.2,3.2,28.5,4.8,42.7c1.5,13.9,3,27.9,4.6,41.9
			c1.8,16.6,3.7,33.2,5.6,49.8c1.6,14.4,3.2,28.7,4.8,43.1c0.9,8.2,2.3,16.4-2.5,24.1c-4.7,7.8-8.8,16-13.5,23.9
			c-51.3,86.4-119.7,154.9-209.9,200.8c-4.4,2.2-8.6,3.4-12.8,3.4c-4.1,0-8-1-12.1-3.2c-13.8-7.2-27.9-14.1-41-22.4
			C166,491.7,105.1,421.3,61.1,335.9c-1-1.9-1.1-4.6-0.9-6.9c1.2-11.4,2.6-22.9,3.9-34.3c1.5-14,3-27.9,4.5-41.9
			c1.8-16.5,3.8-32.9,5.6-49.4c1.8-16.5,3.5-32.9,5.3-49.4c1.8-16.4,3.6-32.8,5.4-49.3c-6.1,1-6.9,2.2-7.5,8.7
			c-1.1,11.2-2.4,22.3-3.7,33.4c-1.9,16.7-3.8,33.5-5.7,50.2c-1.5,13.7-3,27.3-4.5,41c-1.8,16.6-3.7,33.2-5.6,49.8
			c-1.5,13.8-3.2,27.6-4.4,41.4c-0.3,3.2,0,6.9,1.4,9.6c37.2,73.3,87.9,135.4,152.8,185.8c24.1,18.7,49.8,34.8,77.5,47.5
			c5.3,2.4,10.6,4.1,16,4.1c3.8,0,7.7-0.8,11.5-2.9c13-6.9,26.1-13.8,38.7-21.5c68.4-41.7,122.9-97.5,165.9-164.8
			c8.7-13.6,16.5-27.8,24.5-41.8c3.1-5.5,5.9-11.2,5.2-17.9c-2.3-20.5-4.5-41-6.8-61.5c-3-26.8-6.1-53.5-9.1-80.3
			c-2.9-25.9-5.7-51.9-8.6-77.8c-1.3-11.9-8.4-20.1-19.9-23.5c-62.5-18-125-35.9-187.5-54.1c-4.8-1.4-9.6-2.1-14.3-2.1
			c-4.3,0-8.6,0.6-13,1.9c-41.2,11.8-82.6,23.3-123.8,35.4c-13.7,4-28.4,5.8-40.2,15.2c-1.5,1.2-3.1,2.1-4.7,3.2
			C119.9,83.8,120.5,83.9,121,83.9 M103.7,400.2c0.5-0.6,0.8-0.9,0.9-1.2c13.3-31.5,35.6-55.2,63.6-74.1c2.3-1.5,4.2-3.7,7-6.3
			c0.8,3.2,2.3,6.6,2.3,10c0.3,16.9,1.5,33.7,7,49.8c5.4,15.8,12.6,30.7,26.7,40.5c10.6,7.4,20.1,15.7,28.6,25.4
			c2.5,2.9,4.8,5.4,6,9.2c1.7,5.8,1.7,12.4,6.8,16.9c0.5,0.4,0.3,1.6,0.4,2.4c0.8,8.2,1.5,16.5,2.5,24.7c0.4,3.3,0.7,7.9,2.8,9.3
			c5.4,3.5,8.8,8.9,13.5,12.8c1.5,1.3,3.7,2.1,5.7,2.5c2.8,0.6,5,1.8,7,4.1c1.8,2.1,4.7,4.2,7.3,4.4c0.2,0,0.4,0,0.6,0
			c3.5,0,7-1.9,10.6-1.9c0,0,0.1,0,0.1,0c3.2,0,7.1,2.3,9.9,2.3c0.6,0,1.1-0.1,1.6-0.3c8.4-3.9,16-9.4,23.9-14.4
			c0.2-0.1,0.3-0.5,0.5-0.7c2.1-1.6,4-3.8,6.4-4.6c6.3-2.1,8.3-6.5,8.4-12.6c0.2-7.3,0.6-14.6,1-21.9c0.2-2.3,0.6-4.7,1.5-6.8
			c1.4-3.2,3.6-6,4.9-9.2c2.4-6.2,4.5-12.2,9-17.6c7.1-8.5,14-16.9,23.6-22.7c14.7-8.9,23.6-22.1,29.2-37.9
			c5.9-16.7,7.2-34,6.8-51.5c0-2.1,0-4.3,0-7.4c30.1,19.7,52.7,44.1,66.4,76.5c0.7-0.8,1.2-1.3,1.6-1.9
			c11.9-19.6,23.7-39.2,35.7-58.7c3.3-5.5,3.3-11.3,2.6-17.4c-2.8-24.2-5.6-48.5-8.3-72.8c-2.4-21.8-4.6-43.5-7-65.3
			c-2.7-24.4-5.5-48.8-8.3-73.2c-1.1-9.6-4.8-14.3-13.8-16.9c-62.5-18-125-35.9-187.5-54c-3.5-1-6.9-1.5-10.3-1.5
			c-3.5,0-6.9,0.5-10.4,1.5c-32.3,9.3-64.7,18.5-97,27.7c-31.4,9-62.9,17.9-94.3,27c-5.9,1.7-10.1,5.4-10.8,12
			c-1.2,10.2-2.4,20.3-3.5,30.5c-2.1,19-4.1,37.9-6.2,56.9c-2.4,21.5-4.9,42.9-7.4,64.4c-2.5,22.6-5,45.2-7.6,67.8
			c-0.5,4.4-0.2,8.5,2.3,12.5c11.7,19.3,23.3,38.8,34.9,58.1C101.8,397.9,102.8,398.9,103.7,400.2 M300.9,12L300.9,12
			c-4.9,0-9.7,0.7-14.3,2C208,36,147.7,53.1,91.1,69.2c-16.1,4.6-25.9,15.2-28.2,30.7c-1.4,9.1-2.3,18.4-3.2,27.3
			c-0.4,3.5-0.7,7.1-1.1,10.6c-0.9,7.8-1.7,15.7-2.5,23.5c-1.2,11.1-2.4,22.6-3.7,33.9c-1.4,12.4-2.8,25.1-4.2,37.3
			c-1,9-2.1,18.1-3.1,27.1c-1.3,11.8-2.6,23.6-3.9,35.4c-1.2,10.4-2.3,20.8-3.5,31.2c-0.6,5.3-0.8,12.4,2.9,19.7
			c20.2,39.4,44.2,75.9,71.5,108.5c27.7,33.1,59.5,63.1,94.5,89.2c24.1,17.9,49.1,32.8,74.4,44.1c6.8,3,13.6,4.6,20.1,4.6
			c6.6,0,13.1-1.6,19.2-4.6c4.9-2.5,9.8-5.1,14.3-7.5c47.9-25.9,91.1-58.8,128.6-98c35.7-37.4,67.3-81.6,93.7-131.4
			c3.3-6.2,6.7-13.9,5.5-26.4l0,0l0,0c-0.2-1.7-0.4-3.7-0.6-5.9c-0.6-5.6-1.3-12.6-2.1-19.5c-0.9-8.5-1.9-17-2.9-25.5
			c-1.2-10.4-2.4-21.2-3.6-31.8c-1.3-11.8-2.6-23.7-3.8-35.3c-1.1-9.9-2.1-19.8-3.2-29.7c-0.8-7.4-1.7-14.9-2.5-22.2
			c-1.7-14.7-3.4-29.8-4.8-44.8c-2-21-13.4-35-33-40.7c-54.7-15.8-114.6-33-188.7-54.4C311.8,12.8,306.3,12,300.9,12L300.9,12z
			 M103.1,390.1c-3.1-5.1-6.1-10.2-9.2-15.4c-7.6-12.7-15.5-25.9-23.3-38.8c-1.5-2.5-2-5.3-1.6-9.3c1.1-9.6,2.1-19.2,3.2-28.8
			c1.4-12.8,2.9-26,4.3-38.9c1.1-9.9,2.3-19.9,3.4-29.6c1.3-11.4,2.7-23.2,4-34.8c1.2-10.8,2.4-21.7,3.5-32.3
			c0.9-8.1,1.8-16.4,2.7-24.6c1.1-10,2.3-20.2,3.5-30l0-0.4c0.3-2.7,1.4-6,7.2-7.7c25.2-7.3,50.9-14.6,75.8-21.7l18.5-5.3
			c12.2-3.5,24.3-7,36.5-10.4c19.8-5.7,40.3-11.5,60.5-17.3c3.1-0.9,6-1.3,9-1.3c2.9,0,5.9,0.4,8.9,1.3
			c47.5,13.7,95.8,27.6,142.6,41.1l44.9,12.9c6.9,2,9.3,4.9,10.1,12.6c1.3,11.7,2.6,23.5,3.9,35c1.4,12.5,2.9,25.5,4.3,38.2
			c1.2,10.8,2.3,21.8,3.5,32.5c1.1,10.8,2.3,21.9,3.5,32.8c2.8,25,5.5,49.5,8.3,72.8c0.7,5.6,0.6,10.1-1.9,14.2
			c-7.5,12.3-15.1,24.8-22.5,37c-3.2,5.3-6.4,10.6-9.6,15.9c-13.7-27.9-34.9-51-64.5-70.4l-7.8-5.1v9.4c0,1.1,0,2,0,2.9
			c0,1.7,0,3.2,0,4.6c0.5,20-1.6,35.8-6.5,49.7c-5.7,16.2-14.5,27.7-27.1,35.3c-9.9,6-17.2,14.6-24.1,22.9l-0.7,0.8
			c-4.6,5.5-7,11.5-9.2,17.3c-0.2,0.6-0.4,1.1-0.7,1.7c-0.5,1.3-1.3,2.7-2.2,4.1c-0.9,1.5-1.9,3.1-2.6,4.9c-1,2.4-1.7,5.3-1.9,8.5
			c-0.5,7-0.8,14.5-1.1,22.1c-0.2,5.3-1.9,6.9-4.9,7.9c-2.6,0.9-4.6,2.6-6.3,4c-0.6,0.5-1.1,1-1.6,1.4c-0.4,0.3-0.7,0.6-0.9,0.9
			c-2,1.2-3.9,2.5-5.8,3.7c-5.6,3.6-10.8,7-16.5,9.7c-0.7-0.1-1.9-0.5-2.9-0.8c-2-0.7-4.3-1.4-6.8-1.5l-0.2,0
			c-2.4,0-4.7,0.6-6.6,1.1c-1.5,0.4-2.9,0.8-3.9,0.8c-0.1,0-0.2,0-0.2,0c-0.5,0-2.3-1-3.8-2.7c-2.7-3-5.7-4.8-9.6-5.7
			c-1.5-0.3-2.8-0.9-3.6-1.5c-1.7-1.4-3.3-3.2-5-5c-2.5-2.7-5.1-5.5-8.6-7.9c-0.4-1-0.7-3.4-0.8-4.7c-0.1-0.4-0.1-0.9-0.2-1.2
			c-0.7-5.7-1.3-11.5-1.8-17.1c-0.2-2.5-0.5-5-0.7-7.5c0-0.1,0-0.2,0-0.3c0-1.2-0.1-3.6-2.1-5.4c-2.4-2.1-3.1-5-4.1-9.6
			c-0.3-1.6-0.7-3.3-1.2-5c-1.4-4.7-4.1-7.8-6.7-10.7l-0.4-0.4c-8.5-9.7-18.1-18.3-29.5-26.2c-13.7-9.5-20.2-24.6-24.8-38
			c-5.5-16.1-6.5-32.7-6.7-48.3c-0.1-3.1-0.9-5.9-1.7-8.3c-0.3-1-0.6-1.9-0.8-2.8l-2-8.3l-6.3,5.7c-1,0.9-1.9,1.8-2.7,2.6
			c-1.4,1.4-2.6,2.5-3.7,3.3C136.6,340,116.1,362.8,103.1,390.1L103.1,390.1z"/>
	</g>
	<path class="st1" d="M496.3,400c-13.8-32.4-36.4-56.9-66.4-76.5c0,3.2,0,5.3,0,7.4c0.4,17.5-0.9,34.8-6.8,51.5
		c-5.6,15.8-14.5,29.1-29.2,37.9c-9.5,5.8-16.5,14.2-23.6,22.7c-4.5,5.4-6.6,11.4-9,17.6c-1.3,3.2-3.5,6-4.9,9.2
		c-0.9,2.1-1.3,4.5-1.5,6.8c-0.5,7.3-0.8,14.6-1,21.9c-0.2,6-2.1,10.5-8.4,12.6c-2.4,0.8-4.3,3-6.4,4.6c-0.2,0.2-0.3,0.5-0.5,0.7
		c-7.9,4.9-15.6,10.4-23.9,14.4c-2.9,1.3-7.6-1.9-11.5-2c-3.7,0-7.5,2.1-11.2,1.9c-2.5-0.2-5.4-2.3-7.3-4.4c-2-2.3-4.1-3.5-7-4.1
		c-2-0.4-4.1-1.2-5.7-2.5c-4.8-4-8.1-9.3-13.5-12.8c-2.1-1.4-2.4-6-2.8-9.3c-1.1-8.2-1.7-16.5-2.5-24.7c-0.1-0.8,0.1-2-0.4-2.4
		c-5.1-4.5-5-11.1-6.8-16.9c-1.1-3.8-3.4-6.3-6-9.2c-8.5-9.7-18-18-28.6-25.4c-14.1-9.8-21.3-24.7-26.7-40.5
		c-5.5-16.1-6.7-32.9-7-49.8c-0.1-3.4-1.5-6.8-2.3-10c-2.8,2.6-4.7,4.7-7,6.3c-28,18.9-50.3,42.7-63.6,74.1
		c-0.2,0.4-0.5,0.6-0.9,1.2c-0.9-1.2-1.9-2.2-2.6-3.4c-11.6-19.4-23.2-38.8-34.9-58.1c-2.4-4-2.8-8.1-2.3-12.5
		c2.5-22.6,5-45.2,7.6-67.8c2.4-21.5,5-42.9,7.4-64.4c2.1-19,4.1-37.9,6.2-56.9c1.1-10.2,2.3-20.3,3.5-30.5
		c0.8-6.5,4.9-10.3,10.8-12c31.4-9.1,62.8-18,94.3-27c32.3-9.2,64.7-18.5,97-27.7c6.9-2,13.8-2,20.7,0c62.5,18,125,36,187.5,54
		c9,2.6,12.7,7.3,13.8,16.9c2.7,24.4,5.6,48.8,8.2,73.2c2.4,21.8,4.6,43.5,7,65.3c2.7,24.3,5.4,48.5,8.3,72.8
		c0.7,6.1,0.7,11.9-2.6,17.4c-11.9,19.5-23.8,39.1-35.7,58.7C497.5,398.7,497,399.1,496.3,400z M87.1,181.3c142.4,0,284.1,0,426,0
		c0-0.9,0-1.4,0-2c-1.2-11.6-2.3-23.2-3.6-34.8c-1.2-11.3-2.8-22.6-3.9-33.9c-0.6-6.1-4-8.9-9.7-10.5
		c-62.3-17.8-124.5-35.7-186.8-53.6c-5.6-1.6-11-1.5-16.5,0c-34.5,9.8-69.1,19.5-103.6,29.2c-29.3,8.3-58.6,16.5-87.8,25
		c-2.2,0.6-4.6,2.6-5.8,4.6c-1.1,1.9-0.8,4.6-1.1,7c-1.2,11.7-2.5,23.4-3.7,35.1C89.6,158.6,88.4,169.7,87.1,181.3z M462.1,250.7
		c-0.3-3.6-0.3-7.3-1.1-10.8c-2.2-10.4-5.8-12.4-16.1-10.3c-14,2.9-27.2,8.2-39.5,15.1c-9.4,5.3-17.9,4.6-27-0.6
		c-15.5-8.9-31.7-16.2-48.9-21.4c-12.2-3.7-24.4-6-37.3-3.2c-21.6,4.6-42.4,11.8-61.2,22.9c-13,7.7-23.6,6.9-35.7-1
		c-9.5-6.2-19.9-11-31.4-12.8c-8.4-1.3-14.5,1.9-16.6,9.1c-0.7,2.4-1.1,4.9-1.2,7.4c-0.5,11.4,2.3,22,7.4,32
		c6.9,13.5,14.2,26.8,21.5,40.1c2.1,3.8,3.6,7.4,3.6,11.8c0,6.6,0.7,13.2,1.2,19.8c1.2,16.6,5.5,32.3,13.5,46.9
		c5,9.1,11,17.5,19.9,23.1c10.1,6.4,18.8,14.3,26.4,23.4c0.7,0.9,1.7,1.5,2.3,2.4c1.5,2.1,3.2,4.1,4.2,6.3
		c2.8,6.1,1.8,13.8,7.7,18.7c0.5,0.4,0.3,1.9,0.3,2.9c0.9,9.4,1.7,18.7,2.7,28.1c0.4,3.5,2,6.3,5.3,8.1c2.1,1.1,4.1,2.9,5.5,4.8
		c2.7,3.9,6,6.9,10.7,7.6c3.2,0.5,5.2,2.1,7.1,4.5c2.9,3.7,7.1,5.8,11.5,3.8c4.3-2,7.8-2.1,12,0.1c1.7,0.9,4.6,1,6.1,0.1
		c7.7-4.5,15.1-9.4,22.7-14.2c0.1-0.1,0.2-0.2,0.3-0.3c2.4-1.8,4.6-4.2,7.3-5.4c5.2-2.1,7.2-5.6,7.4-11c0.3-9.1,1-18.2,1.6-27.4
		c0.1-0.9,0.6-1.8,1-2.6c1.6-2.8,3.5-5.4,4.7-8.3c2.8-6.6,4.7-13.3,9.8-19c7-7.9,13.5-16.3,22.7-21.8c16.5-9.8,25.6-24.7,31.1-42.5
		c4.9-16.1,5.5-32.6,5.2-49.2c0-2.3,0.7-5,1.9-7c7.6-13.6,15.6-27,23-40.7C458.6,271.4,461.2,261.3,462.1,250.7z M115.9,356.2
		c7.8-7.6,15.1-14.6,22.2-21.8c1-1,1.5-3,1.5-4.6c0.1-43,0-86.1,0.1-129.1c0-3.2-1-4.5-4.4-4.4c-9.8,0.2-19.7,0.2-29.5,0
		c-3.6-0.1-4.5,1.2-4.5,4.6c0.1,43.2,0.1,86.4,0.1,129.5c0,1.4,0,3,0.7,4C106.5,341.8,111.2,348.9,115.9,356.2z M485.3,355.9
		c4.1-6.3,8.4-12.5,12.3-19c1.2-1.9,1.9-4.4,1.9-6.6c0.1-42.9,0-85.8,0.2-128.7c0-3.9-0.9-5.5-5.1-5.3c-9.3,0.3-18.6,0.3-27.9,0
		c-3.8-0.1-5.1,0.9-5,4.9c0.2,19.6,0.1,39.3,0.1,58.9c0,23.5,0,47,0,70.5c0,1.3,0.3,3,1.2,3.8C470.3,341.5,477.6,348.5,485.3,355.9z
		 M387.6,221.8c0,6.3,0,12.7,0,19c0,7.1,1.1,8,8.2,6.6c1.8-0.4,3.5-1,5.1-1.8c7.5-3.5,15.1-6.9,22.5-10.6c1.2-0.6,2.4-2.4,2.4-3.7
		c0.2-10.4,0.1-20.8,0.1-31.2c0-2.7-1-3.7-3.7-3.7c-10.3,0.1-20.5,0.1-30.8,0c-2.9,0-4,1.1-3.9,4
		C387.7,207.5,387.6,214.6,387.6,221.8z M210.6,247.7c0.5-1.2,0.7-1.4,0.7-1.7c0.1-15.6,0.1-31.2,0.2-46.7c0-2.5-1.5-3-3.6-3
		c-10.4,0-20.8,0.1-31.2,0c-2.7,0-3.7,1.1-3.6,3.8c0.1,8.8-0.1,17.7,0.2,26.5c0,1.4,1.6,3.4,3,4.1c7.5,4,15.2,7.7,22.9,11.5
		C202.8,244.1,206.6,245.8,210.6,247.7z M244.7,233.5c12.4-4.3,24.2-8.2,35.9-12.4c0.9-0.3,1.8-2,1.8-3.1c0.2-6.2,0-12.3,0.1-18.5
		c0-2.4-1-3.2-3.3-3.2c-10.5,0.1-21,0-31.6,0.1c-1,0-2.9,1.6-2.9,2.4C244.7,210.4,244.7,221.9,244.7,233.5z M354.3,230.6
		c0-11.1,0.1-21.6-0.1-32.1c0-0.8-2.1-2.1-3.2-2.1c-10.4-0.2-20.8,0-31.2-0.1c-2.7,0-3.3,1.2-3.3,3.6c0.1,4.8,0.3,9.6-0.1,14.3
		c-0.2,3.5,1.3,4.4,4.3,5.3c7.9,2.2,15.8,4.8,23.6,7.4C347.6,227.9,350.6,229.2,354.3,230.6z"/>
	<path class="st1" d="M547.1,327.4c-2.3-20.5-4.5-41-6.8-61.5c-1.5-13.7-3.1-27.5-4.7-41.2c-1-9.2-2-18.4-3.1-27.7
		c-0.9-8.2-1.9-16.4-2.8-24.6c-2.4-21.6-4.7-43.1-7.1-64.7c-1.3-11.9-8.4-20.1-19.9-23.5c-13.5-3.9-26.9-7.8-40.4-11.6
		c-5.8-2.2-12-3.7-18-5.2c-43-12.4-86.1-24.8-129.1-37.2c-5-1.5-10-2.2-15-2.1c-5-0.1-9.9,0.7-15,2.1c-43,12.5-86,24.9-129.1,37.2
		c-6.1,1.5-12.2,3-18,5.2c-13.5,3.9-26.9,7.8-40.4,11.6c-11.5,3.3-18.6,11.6-19.9,23.5c-2.4,21.6-4.7,43.1-7.1,64.7
		c-0.9,8.2-1.9,16.4-2.8,24.6c-1,9.2-2.1,18.4-3.1,27.7c-1.6,13.7-3.1,27.5-4.7,41.2c-2.3,20.5-4.5,41-6.8,61.5
		c-0.1,1-0.1,2-0.1,2.9c-0.1,2.9,0.3,6.1,1.5,8.5c37.2,73.3,87.9,135.4,152.8,185.8c24.1,18.7,49.8,34.8,77.5,47.5
		c0.4,0.2,0.7,0.3,1.1,0.5c0.5,0.2,0.9,0.5,1.4,0.7c4.2,2.2,8.4,3,12.5,2.8c4.2,0.2,8.4-0.6,12.5-2.8c0.5-0.2,0.9-0.5,1.4-0.7
		c0.4-0.2,0.7-0.3,1.1-0.5c27.7-12.7,53.4-28.8,77.5-47.5c64.9-50.4,115.7-112.6,152.8-185.8c1.2-2.5,1.6-5.6,1.5-8.5
		C547.2,329.4,547.2,328.4,547.1,327.4z M99.8,90.8c40.1-11.5,80.3-23,120.4-34.6c23.4-6.6,46.8-13.2,70.2-19.8
		c3.3-0.9,6.6-1.4,9.8-1.5c3.3,0.1,6.5,0.6,9.8,1.5c23.4,6.6,46.8,13.2,70.2,19.8c40.1,11.5,80.3,23.1,120.4,34.6
		c8.5,2.4,13.5,8,14.7,16.6c1.5,10.7,2.5,21.5,3.8,32.2c1.6,14.2,3.2,28.5,4.8,42.7c1.5,13.9,3,27.9,4.6,41.9
		c1.8,16.6,3.7,33.2,5.6,49.8c1.6,14.4,3.2,28.7,4.8,43.1c0.9,8.2,2.3,16.4-2.5,24.1c-4.7,7.8-8.8,16-13.5,23.9
		c-48.3,81.3-111.7,146.8-194.2,192.5c-5.5,2.9-11,5.7-16.5,8.6c-3.1,1.6-6.1,2.6-9.2,3c0,0,0,0,0,0c-0.5,0.1-0.9,0.1-1.4,0.1
		c-0.2,0-0.4,0-0.5,0c-0.3,0-0.6,0-0.9,0c-0.3,0-0.6,0-0.9,0c-0.2,0-0.4,0-0.5,0c-0.5,0-0.9-0.1-1.4-0.1c0,0,0,0,0,0
		c-3.1-0.4-6.1-1.4-9.2-3c-5.5-2.9-11-5.7-16.5-8.6C189.3,511.8,125.9,446.2,77.6,365c-4.7-7.8-8.7-16.1-13.5-23.9
		c-4.7-7.8-3.4-15.9-2.5-24.1c1.6-14.4,3.2-28.7,4.8-43.1c1.8-16.6,3.7-33.2,5.6-49.8c1.5-13.9,3-27.9,4.6-41.9
		c1.6-14.2,3.2-28.5,4.8-42.7c1.2-10.7,2.2-21.5,3.8-32.2C86.3,98.8,91.3,93.2,99.8,90.8z"/>
	<path d="M87.1,181.3c1.3-11.5,2.5-22.7,3.7-33.8c1.3-11.7,2.5-23.4,3.7-35.1c0.3-2.4-0.1-5.1,1.1-7c1.2-2,3.5-4,5.8-4.6
		c29.2-8.5,58.5-16.7,87.8-25c34.5-9.7,69.1-19.4,103.6-29.2c5.6-1.6,10.9-1.7,16.5,0c62.2,18,124.5,35.8,186.8,53.6
		c5.6,1.6,9.1,4.4,9.7,10.5c1.1,11.3,2.7,22.6,3.9,33.9c1.3,11.6,2.4,23.2,3.6,34.8c0.1,0.5,0,1.1,0,2
		C371.2,181.3,229.5,181.3,87.1,181.3z M167.4,126.1c0.3-0.1,0.5-0.1,0.8-0.2c2.6,8.7,5.3,17.3,7.8,26c0.8,2.7,2.4,3.4,5,3.4
		c2.5,0,3.7-0.9,4.4-3.4c1.9-6.6,4.1-13.1,6.2-19.6c0.7-2.2,1.5-4.4,2.2-6.6c0.7,8.8,0.8,17.4,0.7,25.9c-0.1,2.8,1,3.7,3.7,3.7
		c2.7,0,4.1-0.6,4.1-3.8c-0.2-10.8-0.1-21.7,0-32.5c0-3.1-1.1-4.6-4.4-4.6c-7.1-0.1-7.3-0.1-9.6,6.7c-1.6,4.9-3.2,9.8-4.9,14.8
		c-0.6,1.7-1.3,3.4-2.3,6.1c-2.7-8.3-5.2-15.4-7.3-22.6c-1.7-5.6-4.2-5.1-10.9-4.7c-4.1,0.3-2.8,3.9-2.8,6.4
		c-0.1,10.1,0,20.3-0.1,30.4c0,2.9,0.9,4.1,3.8,4c2.8,0,4-1,3.9-4C167.3,143,167.4,134.5,167.4,126.1z M330.5,139.5
		c-0.2,0-0.5,0-0.7,0.1c-0.4-0.7-0.7-1.5-1.1-2.2c-3-6.5-6-13-9.1-19.4c-1.6-3.3-5.2-4.5-9.4-3.4c-3.2,0.9-2.5,3.6-2.5,5.9
		c0,10.3,0.1,20.5-0.1,30.8c-0.1,3.2,1.2,4.2,4.2,4.1c3-0.1,3.3-1.7,3.3-4.1c-0.1-7.5,0-15,0-22.4c1.3,1,1.9,2,2.4,3.1
		c3.2,6.7,6.4,13.4,9.5,20.2c1.8,3.9,5.3,3.6,8.3,2.8c1.3-0.4,2.5-3.4,2.6-5.2c0.2-10.4,0.1-20.8,0.2-31.2c0-2.8-0.7-4.1-3.8-4.1
		c-3,0-3.8,1.3-3.8,4.1C330.6,125.5,330.5,132.5,330.5,139.5z M267.6,135.1c0.1,0,0.2,0,0.4,0c0,1.4-0.1,2.8,0,4.2
		c0.9,10.6,6.4,16.4,15.9,16.6c10,0.2,16.6-5.4,17.8-15.8c0.4-3.9,0.4-7.8,0-11.7c-1-9.2-6.4-14.3-14.9-14.7
		c-9.3-0.4-15.9,4.3-18,13.1C268.2,129.5,268,132.3,267.6,135.1z M375.4,154.6c-0.4-1.6-0.6-2.9-1-4.2c-3.3-10.7-6.8-21.3-9.8-32.1
		c-1-3.7-3.1-4-6.1-4.1c-3.2-0.1-5.1,0.7-6.1,4.1c-3,10.6-6.4,21.1-9.6,31.7c-0.5,1.5-0.6,3.1-0.9,5c3.6-0.1,7.4,2,8.1-3.2
		c0.6-5.1,3.5-6.7,8.2-5.9c1,0.2,2,0.2,2.9,0c2.8-0.5,3.9,1,4.6,3.5C367.6,156.1,367.9,156.2,375.4,154.6z M206,154.5
		c5.8,1.6,7.4,1.2,8.1-2.8c0.9-4.9,3.2-6.7,8-5.8c1,0.2,2,0.2,2.9,0c3-0.5,4.2,0.9,4.9,3.7c1.7,6.3,2.7,6.8,9.5,4.9
		c-0.3-1.3-0.5-2.7-0.9-4c-3.3-10.7-6.8-21.4-9.8-32.2c-1-3.6-3-4.1-6.1-4.1c-3.1,0-5.1,0.6-6.1,4.1c-3,10.8-6.5,21.5-9.7,32.2
		C206.4,151.8,206.3,153.2,206,154.5z M155.8,154.7c-0.3-1.4-0.4-2.7-0.8-3.8c-3.4-11-7-21.9-10.1-32.9c-1-3.6-3.3-3.5-6-3.6
		c-2.9-0.1-4.9,0.3-5.9,3.7c-3.1,10.9-6.6,21.7-9.9,32.6c-0.4,1.3-0.5,2.7-0.7,3.9c5.9,1.5,7.4,1.2,8.1-2.9c0.9-5,3.4-6.5,8-5.7
		c1,0.2,2,0.2,2.9,0c3.1-0.6,4.1,1.1,4.8,3.7C148.1,156.1,148.3,156.1,155.8,154.7z M398,123.4c0.4-0.3,0.9-0.5,1.3-0.8
		c-0.8-2.4-0.8-5.6-2.4-6.9c-4.9-3.9-14-2.1-17.3,2.9c-3.8,5.8-2.2,13.5,3.7,17.4c1.9,1.2,3.9,2.1,5.9,3.3c2.3,1.3,4.4,2.9,3.5,6
		c-0.9,3.3-3.7,3.7-6.5,3.2c-2.8-0.6-5.5-1.8-8.2-2.7c-2.4,5.5-0.9,8.1,5.6,9.8c7.1,1.8,14.2-1.4,16.5-7.4
		c2.6-6.8,0.2-12.8-6.6-16.6c-1.4-0.7-2.8-1.4-4.1-2.1c-2.5-1.4-4.6-3.2-3.2-6.3c1.5-3.1,4.3-2.6,6.9-1.7
		C394.8,121.9,396.4,122.7,398,123.4z M265,155.1c2-5.8,1.2-7-4.2-7c-3.3,0-6.6,0-10.7,0c4.6-8.3,8.8-15.6,12.8-23.2
		c1.1-2,1.8-4.4,2.2-6.7c0.4-2.4-0.8-3.9-3.6-3.8c-5.8,0.1-11.5,0.1-17.3,0c-2.7-0.1-2.9,1.6-2.9,3.5c0,2,0.3,3.6,3,3.5
		c3.6-0.1,7.2,0,11.5,0c-0.9,1.8-1.4,3-2.1,4.2c-3.7,6.6-7.5,13.2-11,19.8c-1,1.8-1.5,3.9-1.8,5.9c-0.4,2.6,0.8,3.9,3.6,3.8
		C251.3,155.1,258,155.1,265,155.1z M478.4,124.9c2.2-6,1-8.7-4.3-10.4c-7.6-2.4-15.2,0.7-18.8,7.9c-3.7,7.6-3.7,15.5-1.1,23.3
		c3.1,9,13,12.7,21.8,8.5c4-1.9,4.8-5.2,2.1-9.2c-1,0.5-1.9,1.1-2.9,1.6c-6.4,3.4-12.1,1.3-13.4-5.8c-0.8-4.1-0.6-8.7,0.3-12.8
		c1.6-6.7,7.1-8.6,13-5.1C476.2,123.6,477.3,124.3,478.4,124.9z M426.6,139.1c3.1,0,5.6-0.1,8.1,0c2.6,0.2,3.8-0.6,3.9-3.5
		c0.1-3.1-1.2-3.9-4-3.8c-2.5,0.1-5,0-7.6,0c0-3.6,0-6.7,0-10.1c3.3,0,6.2-0.1,9.1,0c2.7,0.1,3.3-1.4,3.3-3.7c0-2.3-0.5-3.7-3.3-3.6
		c-4.5,0.1-9,0.2-13.5,0c-3-0.1-4,1.2-4,4c0,11.1,0.1,22.2,0,33.3c0,3.3,1.7,3.6,4.3,3.6c2.4,0,4-0.6,3.9-3.6
		C426.5,147.7,426.6,143.7,426.6,139.1z M443.9,145.4c-3.4-0.3-4.3,2.1-4.3,5c-0.1,3,1.1,5.3,4.5,5.2c3.1-0.1,4.4-1.9,4.4-4.9
		C448.6,147.7,447.8,145.4,443.9,145.4z"/>
	<path d="M462.1,250.7c-0.9,10.6-3.6,20.6-8.5,29.8c-7.4,13.7-15.4,27.1-23,40.7c-1.1,2.1-1.9,4.7-1.9,7c0.3,16.6-0.3,33.1-5.2,49.2
		c-5.4,17.8-14.6,32.7-31.1,42.5c-9.2,5.5-15.6,13.9-22.7,21.8c-5.1,5.7-7,12.4-9.8,19c-1.2,2.9-3.2,5.5-4.7,8.3
		c-0.5,0.8-0.9,1.7-1,2.6c-0.6,9.1-1.4,18.2-1.6,27.4c-0.2,5.4-2.2,8.9-7.4,11c-2.7,1.1-4.9,3.5-7.3,5.4c-0.1,0.1-0.2,0.3-0.3,0.3
		c-7.5,4.8-15,9.7-22.7,14.2c-1.5,0.9-4.5,0.8-6.1-0.1c-4.1-2.2-7.7-2.1-12-0.1c-4.5,2-8.6-0.1-11.5-3.8c-1.9-2.4-3.9-4-7.1-4.5
		c-4.7-0.7-8-3.6-10.7-7.6c-1.3-2-3.4-3.7-5.5-4.8c-3.3-1.8-4.9-4.6-5.3-8.1c-1-9.4-1.8-18.7-2.7-28.1c-0.1-1,0.2-2.4-0.3-2.9
		c-5.9-4.9-4.9-12.6-7.7-18.7c-1-2.3-2.7-4.3-4.2-6.3c-0.7-0.9-1.6-1.6-2.3-2.4c-7.6-9.2-16.3-17-26.4-23.4
		c-8.8-5.7-14.9-14-19.9-23.1c-8-14.6-12.3-30.3-13.5-46.9c-0.5-6.6-1.1-13.2-1.2-19.8c0-4.4-1.5-8.1-3.6-11.8
		c-7.3-13.3-14.6-26.6-21.5-40.1c-5.1-10-8-20.7-7.4-32c0.1-2.5,0.5-5,1.2-7.4c2.1-7.3,8.2-10.4,16.6-9.1
		c11.5,1.8,21.9,6.6,31.4,12.8c12.1,7.9,22.6,8.7,35.7,1c18.9-11.1,39.6-18.3,61.2-22.9c12.9-2.7,25.1-0.4,37.3,3.2
		c17.2,5.1,33.4,12.5,48.9,21.4c9.1,5.2,17.6,5.9,27,0.6c12.4-7,25.5-12.2,39.5-15.1c10.3-2.2,13.9-0.1,16.1,10.3
		C461.8,243.4,461.8,247.1,462.1,250.7z M405,267c10.4-12,23.3-19.6,36.3-27.1c-0.8-0.1-1.5,0-2.1,0.3c-10.7,4.5-21.7,8.5-32.1,13.6
		c-10.4,5.1-20.2,4.8-30.2-0.5c-4.8-2.6-9.7-5.1-14.5-7.7c-2.6-1.5-5-1.3-8-0.8c-5,0.8-10.1,0.5-15.2,0.1c-1.2-0.1-2.2-2.2-3.4-3.4
		c1.3-1.2,2.6-2.3,3.9-3.5c0.5-0.4,1.1-0.7,1.7-1c-25.2-13.2-50.1-11.9-75.5,0c1.2,0.5,2.1,0.8,2.8,1.4c1.2,0.9,2.7,1.9,3.1,3.2
		c0.2,0.8-1.4,2.4-2.5,3.1c-5.5,3.2-11.1,1.2-16.8,0.3c-2.3-0.4-5.1-0.6-7.2,0.2c-5.4,2.3-10.7,4.9-15.8,7.9
		c-10.4,6.2-20.6,6.4-31,0.2c-0.6-0.4-1.3-0.6-1.9-1c-6.9-3.6-13.6-7.4-20.6-10.6c-4.4-2-9.3-3.2-13.9-4.8
		c14.5,8.8,29.1,16.9,40.6,30.1c-2,0.9-3.2,1.5-4.6,2.2c1.1,1.4,2.1,2.5,3.2,3.8c-1.8,0.8-3.3,1.4-4.8,2c2.3,1.9,4.4,3.6,7.1,5.7
		c-2.2,0.8-3.6,1.2-5.4,1.9c2.3,0.8,4,1.3,6,2c-2.1,5.2-4.1,10.2-6.5,16.2c5.2-5,9.7-9.2,14.1-13.5c2-1.9,4-2.2,6.9-0.3
		c-11.5,8.6-20.7,18.7-28.3,30.5c-1.3-11.5,3-21.4,8.8-31.3c-4.2-0.9-7.7-1.6-12.2-2.5c2.8-2,4.9-3.4,8-5.6c-4.9-0.4-8.7-0.7-12.5-1
		c-0.1-0.3-0.1-0.7-0.2-1c3.2-1.5,6.4-2.9,9.9-4.5c-1.7-0.8-3-1.4-4.9-2.3c3.1-1,5.6-1.9,8.9-3c-12.9-10.7-24.8-21.1-40.4-27
		c-0.4,2.6-0.9,4.5-1,6.4c-0.5,10.2,2.3,19.8,7,28.7c7.5,14.3,15.5,28.4,23,42.7c1.4,2.7,2.2,6,2.5,9.1c1.4,13.2,1.3,26.8,4.1,39.7
		c4.4,20.5,13.3,38.9,32.6,50c1.9,1.1,3.7,2.5,5.4,4.1c5.8,5.5,11.4,11.2,17.2,16.9c0.8-0.4,1.7-0.9,3.3-1.7
		c2.8,8.5,5.4,16.6,8.1,25c1-1.2,1.8-2.2,3.1-3.8c0.4,1.7,0.8,2.7,0.9,3.7c1.2,12.6,2.2,25.2,3.5,37.7c0.1,1.3,1.3,2.7,2.4,3.8
		c2.2,2.3,4.4,4.6,6.8,6.7c2.1,1.8,4.4,3.8,7,4.6c3.6,1.1,6.9,2.2,9,5.6c1.8,3.1,3.9,3.5,6.9,1.4c3.7-2.6,7.4-2.9,11.2,0.3
		c2.4,2,4.7,1.6,7.1-0.6c7.4-6.9,17-10.7,24.7-17.2c1.9-1.6,3-2.6,3.1-5.1c0.5-10.7,1.1-21.3,1.8-32c0.2-2.7,0.6-5.3,1.1-8.7
		c1.5,1.8,2.5,2.9,4.1,4.8c2.7-8.8,5.3-17.1,7.9-25.5c1.1,0.7,2.1,1.4,3.2,2.1c7.2-9.7,14.8-18.9,25.1-24.9
		c15.5-9,23.7-23,28.5-39.6c4.5-15.6,4.4-31.6,4.3-47.7c0-2.6,1-5.4,2.3-7.7c4.8-8.3,10.3-16.1,14.9-24.5
		c6.5-11.6,13.1-23.3,15.1-36.8c0.9-5.7,1.5-11.5-0.7-17.4c-15.4,6.2-27.4,16.4-40.2,27.3c3.5,1,6.1,1.8,9.2,2.7
		c-2.1,1-3.4,1.7-4.9,2.4c3.5,1.6,6.6,3.1,9.7,4.5c-0.1,0.3-0.2,0.7-0.4,1c-3.6,0.3-7.3,0.5-10.9,0.8c0,0.3,0,0.7,0,1
		c2,1.5,4,3,6.4,4.8c-4.3,1-7.9,1.8-11.7,2.6c8.1,13.8,10.1,24.6,8.9,30.1c-8.8-9.8-18.1-20-27.5-30.3c4.7-2.2,7,2.3,9.9,4.8
		c3.1,2.7,5.7,6,8.5,9c0.3-0.3,0.6-0.5,0.9-0.8c-1.9-4.8-3.9-9.7-5.9-14.6c2.1-0.7,3.7-1.3,5.8-1.9c-1.9-0.8-3.2-1.3-5.1-2
		c1.5-1.3,2.5-2.3,3.6-3.1c1.1-0.8,2.2-1.5,3.5-2.4c-1.9-0.8-3.4-1.5-5.2-2.3c1.3-1.4,2.2-2.4,3.3-3.7
		C408.1,268.5,406.9,267.9,405,267z"/>
	<path d="M115.9,356.2c-4.7-7.3-9.4-14.4-13.9-21.7c-0.7-1.1-0.7-2.7-0.7-4c0-43.2,0-86.4-0.1-129.5c0-3.4,0.9-4.7,4.5-4.6
		c9.8,0.2,19.7,0.2,29.5,0c3.4-0.1,4.4,1.2,4.4,4.4c-0.1,43,0,86.1-0.1,129.1c0,1.5-0.5,3.5-1.5,4.6
		C131,341.6,123.7,348.6,115.9,356.2z"/>
	<path d="M485.3,355.9c-7.7-7.4-15.1-14.4-22.2-21.5c-0.8-0.8-1.2-2.5-1.2-3.8c-0.1-23.5,0-47,0-70.5c0-19.6,0.1-39.3-0.1-58.9
		c0-4,1.2-5,5-4.9c9.3,0.2,18.6,0.3,27.9,0c4.2-0.1,5.1,1.4,5.1,5.3c-0.1,42.9-0.1,85.8-0.2,128.7c0,2.2-0.7,4.7-1.9,6.6
		C493.7,343.4,489.4,349.6,485.3,355.9z"/>
	<path d="M387.6,221.8c0-7.2,0.1-14.4,0-21.5c-0.1-2.9,1-4,3.9-4c10.3,0.1,20.5,0.1,30.8,0c2.7,0,3.7,1,3.7,3.7
		c-0.1,10.4,0,20.8-0.1,31.2c0,1.3-1.3,3.1-2.4,3.7c-7.4,3.7-14.9,7.2-22.5,10.6c-1.6,0.8-3.4,1.4-5.1,1.8c-7.1,1.4-8.2,0.5-8.2-6.6
		C387.6,234.5,387.6,228.1,387.6,221.8z"/>
	<path d="M210.6,247.7c-4-1.9-7.8-3.7-11.5-5.5c-7.7-3.8-15.3-7.5-22.9-11.5c-1.4-0.7-2.9-2.7-3-4.1c-0.3-8.8-0.1-17.7-0.2-26.5
		c0-2.7,0.9-3.8,3.6-3.8c10.4,0.1,20.8,0,31.2,0c2.1,0,3.6,0.4,3.6,3c-0.1,15.6-0.1,31.2-0.2,46.7
		C211.3,246.3,211.1,246.6,210.6,247.7z"/>
	<path d="M244.7,233.5c0-11.7-0.1-23.2,0.1-34.6c0-0.9,1.9-2.4,2.9-2.4c10.5-0.2,21-0.1,31.6-0.1c2.3,0,3.3,0.7,3.3,3.2
		c-0.1,6.2,0.1,12.3-0.1,18.5c0,1.1-0.9,2.8-1.8,3.1C268.9,225.3,257.2,229.3,244.7,233.5z"/>
	<path d="M354.3,230.6c-3.7-1.4-6.7-2.7-9.9-3.8c-7.8-2.6-15.7-5.1-23.6-7.4c-3-0.8-4.5-1.8-4.3-5.3c0.3-4.8,0.2-9.5,0.1-14.3
		c-0.1-2.4,0.6-3.6,3.3-3.6c10.4,0.1,20.8,0,31.2,0.1c1.1,0,3.1,1.3,3.2,2.1C354.4,209,354.3,219.5,354.3,230.6z"/>
	<path class="st1" d="M167.4,126.1c0,8.4-0.1,16.9,0.1,25.3c0.1,3-1.1,3.9-3.9,4c-2.9,0-3.8-1.1-3.8-4c0.2-10.1,0-20.2,0.1-30.4
		c0-2.4-1.3-6.1,2.8-6.4c6.8-0.4,9.2-0.9,10.9,4.7c2.2,7.2,4.6,14.3,7.3,22.6c1-2.7,1.7-4.4,2.3-6.1c1.6-4.9,3.2-9.8,4.9-14.8
		c2.2-6.7,2.4-6.7,9.6-6.7c3.4,0,4.5,1.6,4.4,4.6c-0.1,10.8-0.1,21.7,0,32.5c0,3.2-1.4,3.8-4.1,3.8c-2.6,0-3.7-0.9-3.7-3.7
		c0.2-8.6,0.1-17.1-0.7-25.9c-0.7,2.2-1.5,4.4-2.2,6.6c-2.1,6.5-4.3,13-6.2,19.6c-0.7,2.5-2,3.4-4.4,3.4c-2.6,0-4.2-0.7-5-3.4
		c-2.5-8.7-5.2-17.4-7.8-26C167.9,126,167.6,126,167.4,126.1z"/>
	<path class="st1" d="M330.5,139.5c0-7,0.1-14,0-21c-0.1-2.8,0.7-4.1,3.8-4.1c3.1,0,3.8,1.3,3.8,4.1c-0.1,10.4,0.1,20.8-0.2,31.2
		c0,1.8-1.3,4.9-2.6,5.2c-3,0.8-6.5,1.1-8.3-2.8c-3.1-6.8-6.3-13.4-9.5-20.2c-0.5-1.1-1.1-2.2-2.4-3.1c0,7.5,0,15,0,22.4
		c0,2.4-0.3,4.1-3.3,4.1c-3,0.1-4.3-0.9-4.2-4.1c0.2-10.3,0-20.5,0.1-30.8c0-2.3-0.7-5,2.5-5.9c4.2-1.1,7.7,0.1,9.4,3.4
		c3.1,6.4,6.1,12.9,9.1,19.4c0.3,0.7,0.7,1.5,1.1,2.2C330,139.5,330.2,139.5,330.5,139.5z"/>
	<path class="st1" d="M267.6,135.1c0.4-2.8,0.6-5.6,1.2-8.3c2.1-8.8,8.7-13.5,18-13.1c8.5,0.4,13.9,5.5,14.9,14.7
		c0.4,3.9,0.4,7.9,0,11.7c-1.2,10.3-7.8,16-17.8,15.8c-9.5-0.2-15.1-6-15.9-16.6c-0.1-1.4,0-2.8,0-4.2
		C267.8,135.1,267.7,135.1,267.6,135.1z M294.4,135.4c-0.4-2.9-0.6-5.3-1.2-7.6c-0.9-3.7-3-6.3-7.2-6.5c-4.4-0.2-7.9,1.5-8.6,5.7
		c-0.8,5.1-0.6,10.5-0.1,15.8c0.3,3.5,3,5.5,6.8,5.7c4,0.2,7-1.2,8.4-5C293.4,140.7,293.8,137.8,294.4,135.4z"/>
	<path class="st1" d="M375.4,154.6c-7.5,1.6-7.8,1.5-9.7-5.2c-0.7-2.5-1.8-4-4.6-3.5c-1,0.2-2,0.2-2.9,0c-4.8-0.8-7.6,0.8-8.2,5.9
		c-0.6,5.2-4.5,3.1-8.1,3.2c0.3-1.9,0.4-3.5,0.9-5c3.2-10.6,6.6-21.1,9.6-31.7c1-3.4,2.9-4.2,6.1-4.1c3,0.1,5.1,0.4,6.1,4.1
		c3,10.8,6.5,21.4,9.8,32.1C374.8,151.7,375,153,375.4,154.6z M362.6,138.9c-1.5-5-2.9-9.5-4.2-13.9c-0.3,0.1-0.6,0.1-0.8,0.2
		c-1.3,4.5-2.5,8.9-3.9,13.7C356.9,138.9,359.5,138.9,362.6,138.9z"/>
	<path class="st1" d="M206,154.5c0.2-1.3,0.4-2.7,0.8-4c3.2-10.7,6.7-21.4,9.7-32.2c1-3.5,3-4.1,6.1-4.1c3.1,0,5.1,0.5,6.1,4.1
		c3,10.8,6.5,21.4,9.8,32.2c0.4,1.3,0.6,2.7,0.9,4c-6.8,1.9-7.8,1.5-9.5-4.9c-0.7-2.7-1.9-4.2-4.9-3.7c-1,0.2-2,0.2-2.9,0
		c-4.7-0.9-7.1,0.9-8,5.8C213.4,155.8,211.8,156.1,206,154.5z M226.8,138.9c-1.4-4.8-2.8-9.3-4.1-13.7c-0.3,0.1-0.6,0.1-0.9,0.2
		c-1.3,4.5-2.5,8.9-3.8,13.6C221.1,138.9,223.7,138.9,226.8,138.9z"/>
	<path class="st1" d="M155.8,154.7c-7.5,1.4-7.8,1.4-9.5-5c-0.7-2.7-1.8-4.3-4.8-3.7c-1,0.2-2,0.2-2.9,0c-4.7-0.8-7.2,0.8-8,5.7
		c-0.7,4.1-2.2,4.4-8.1,2.9c0.2-1.3,0.3-2.7,0.7-3.9c3.3-10.9,6.8-21.6,9.9-32.6c1-3.4,3-3.8,5.9-3.7c2.7,0.1,5,0,6,3.6
		c3.1,11,6.7,22,10.1,32.9C155.4,152,155.6,153.3,155.8,154.7z M134.3,138.8c3.1,0,5.8,0,8.9,0c-1.4-4.8-2.7-9.2-4.1-13.6
		c-0.3,0-0.6,0-0.9,0C137,129.6,135.7,134.1,134.3,138.8z"/>
	<path class="st1" d="M398,123.4c-1.6-0.7-3.2-1.5-4.9-2c-2.6-0.9-5.5-1.5-6.9,1.7c-1.4,3.1,0.7,5,3.2,6.3c1.4,0.7,2.8,1.4,4.1,2.1
		c6.8,3.8,9.2,9.8,6.6,16.6c-2.3,6-9.4,9.3-16.5,7.4c-6.5-1.7-8-4.3-5.6-9.8c2.7,0.9,5.4,2.1,8.2,2.7c2.7,0.6,5.5,0.1,6.5-3.2
		c0.9-3.1-1.3-4.6-3.5-6c-1.9-1.1-4-2-5.9-3.3c-5.9-3.8-7.5-11.5-3.7-17.4c3.3-5,12.4-6.9,17.3-2.9c1.6,1.3,1.6,4.6,2.4,6.9
		C398.9,122.8,398.4,123.1,398,123.4z"/>
	<path class="st1" d="M265,155.1c-7,0-13.8-0.1-20.5,0c-2.8,0-4-1.3-3.6-3.8c0.3-2,0.8-4.1,1.8-5.9c3.6-6.7,7.3-13.2,11-19.8
		c0.7-1.2,1.2-2.4,2.1-4.2c-4.3,0-7.9-0.1-11.5,0c-2.7,0.1-3-1.5-3-3.5c0-1.9,0.2-3.6,2.9-3.5c5.8,0.1,11.5,0.1,17.3,0
		c2.8-0.1,4,1.4,3.6,3.8c-0.4,2.3-1.1,4.6-2.2,6.7c-4,7.5-8.2,14.9-12.8,23.2c4.1,0,7.4,0,10.7,0C266.3,148.1,267,149.3,265,155.1z"
		/>
	<path class="st1" d="M478.4,124.9c-1.1-0.7-2.1-1.3-3.2-1.9c-5.9-3.5-11.4-1.7-13,5.1c-1,4.1-1.1,8.7-0.3,12.8
		c1.3,7.1,7,9.3,13.4,5.8c1-0.5,1.9-1.1,2.9-1.6c2.6,4,1.8,7.3-2.1,9.2c-8.7,4.2-18.7,0.5-21.8-8.5c-2.7-7.8-2.6-15.8,1.1-23.3
		c3.5-7.3,11.2-10.4,18.8-7.9C479.4,116.2,480.6,119,478.4,124.9z"/>
	<path class="st1" d="M426.6,139.1c0,4.6-0.1,8.7,0,12.7c0.1,3-1.5,3.5-3.9,3.6c-2.5,0-4.3-0.3-4.3-3.6c0.1-11.1,0.1-22.2,0-33.3
		c0-2.7,1-4.1,4-4c4.5,0.2,9,0.2,13.5,0c2.8-0.1,3.3,1.3,3.3,3.6c0,2.4-0.6,3.8-3.3,3.7c-2.9-0.1-5.9,0-9.1,0c0,3.4,0,6.5,0,10.1
		c2.6,0,5.1,0.1,7.6,0c2.8-0.2,4.1,0.7,4,3.8c-0.1,2.9-1.3,3.6-3.9,3.5C432.3,138.9,429.7,139.1,426.6,139.1z"/>
	<path class="st1" d="M443.9,145.4c3.9,0,4.7,2.3,4.6,5.3c0,3-1.3,4.9-4.4,4.9c-3.5,0.1-4.6-2.1-4.5-5.2
		C439.7,147.5,440.6,145.2,443.9,145.4z"/>
	<path class="st1" d="M405,267c1.9,0.9,3.1,1.4,4.6,2.1c-1.1,1.3-2.1,2.3-3.3,3.7c1.8,0.8,3.3,1.5,5.2,2.3c-1.3,0.9-2.4,1.6-3.5,2.4
		c-1.1,0.8-2.1,1.8-3.6,3.1c1.9,0.8,3.2,1.3,5.1,2c-2.1,0.7-3.7,1.2-5.8,1.9c2,4.9,3.9,9.8,5.9,14.6c-0.3,0.3-0.6,0.5-0.9,0.8
		c-2.8-3-5.4-6.3-8.5-9c-2.8-2.5-5.1-7-9.9-4.8c9.4,10.3,18.6,20.5,27.5,30.3c1.2-5.5-0.8-16.2-8.9-30.1c3.8-0.9,7.3-1.7,11.7-2.6
		c-2.4-1.8-4.4-3.3-6.4-4.8c0-0.3,0-0.7,0-1c3.6-0.3,7.3-0.5,10.9-0.8c0.1-0.3,0.2-0.7,0.4-1c-3.1-1.5-6.2-2.9-9.7-4.5
		c1.4-0.7,2.8-1.4,4.9-2.4c-3.1-0.9-5.7-1.7-9.2-2.7c12.8-10.8,24.8-21,40.2-27.3c2.2,5.9,1.5,11.7,0.7,17.4
		c-2,13.5-8.7,25.1-15.1,36.8c-4.6,8.3-10.1,16.2-14.9,24.5c-1.3,2.3-2.3,5.1-2.3,7.7c0.1,16,0.2,32-4.3,47.7
		c-4.8,16.6-13,30.6-28.5,39.6c-10.4,6-17.9,15.2-25.1,24.9c-1.2-0.8-2.2-1.4-3.2-2.1c-2.6,8.5-5.1,16.7-7.9,25.5
		c-1.6-1.9-2.6-3-4.1-4.8c-0.4,3.3-0.9,6-1.1,8.7c-0.7,10.7-1.3,21.3-1.8,32c-0.1,2.5-1.2,3.5-3.1,5.1c-7.7,6.5-17.3,10.3-24.7,17.2
		c-2.4,2.2-4.7,2.6-7.1,0.6c-3.7-3.2-7.5-2.9-11.2-0.3c-3,2.1-5.1,1.7-6.9-1.4c-2-3.4-5.3-4.5-9-5.6c-2.6-0.8-4.8-2.8-7-4.6
		c-2.4-2-4.7-4.3-6.8-6.7c-1-1.1-2.2-2.5-2.4-3.8c-1.3-12.6-2.4-25.2-3.5-37.7c-0.1-1-0.5-2-0.9-3.7c-1.3,1.6-2.1,2.6-3.1,3.8
		c-2.7-8.4-5.3-16.5-8.1-25c-1.5,0.8-2.4,1.3-3.3,1.7c-5.8-5.7-11.4-11.3-17.2-16.9c-1.6-1.5-3.4-3-5.4-4.1
		c-19.4-11.1-28.2-29.5-32.6-50c-2.8-12.9-2.7-26.5-4.1-39.7c-0.3-3.1-1.1-6.4-2.5-9.1c-7.5-14.3-15.5-28.3-23-42.7
		c-4.7-8.9-7.4-18.5-7-28.7c0.1-1.9,0.6-3.8,1-6.4c15.6,6,27.5,16.4,40.4,27c-3.3,1.1-5.8,1.9-8.9,3c1.9,0.9,3.2,1.5,4.9,2.3
		c-3.6,1.6-6.7,3.1-9.9,4.5c0.1,0.3,0.1,0.7,0.2,1c3.8,0.3,7.5,0.6,12.5,1c-3.1,2.2-5.2,3.7-8,5.6c4.4,0.9,8,1.6,12.2,2.5
		c-5.8,9.9-10.1,19.8-8.8,31.3c7.5-11.8,16.8-22,28.3-30.5c-2.9-1.9-4.9-1.7-6.9,0.3c-4.4,4.3-8.9,8.5-14.1,13.5
		c2.4-6,4.4-11,6.5-16.2c-2-0.7-3.7-1.2-6-2c1.9-0.6,3.2-1.1,5.4-1.9c-2.6-2.1-4.7-3.8-7.1-5.7c1.6-0.7,3-1.3,4.8-2
		c-1.1-1.3-2-2.4-3.2-3.8c1.4-0.7,2.6-1.3,4.6-2.2c-11.5-13.2-26.2-21.3-40.6-30.1c4.7,1.6,9.5,2.7,13.9,4.8c7,3.2,13.7,7,20.6,10.6
		c0.6,0.3,1.3,0.6,1.9,1c10.4,6.2,20.6,6,31-0.2c5.1-3,10.4-5.7,15.8-7.9c2.1-0.9,4.8-0.6,7.2-0.2c5.6,0.9,11.3,2.9,16.8-0.3
		c1.1-0.7,2.7-2.3,2.5-3.1c-0.3-1.3-1.9-2.2-3.1-3.2c-0.7-0.6-1.7-0.8-2.8-1.4c25.4-11.8,50.4-13.2,75.5,0c-0.6,0.4-1.2,0.6-1.7,1
		c-1.3,1.1-2.6,2.3-3.9,3.5c1.1,1.2,2.2,3.3,3.4,3.4c5,0.4,10.2,0.7,15.2-0.1c3-0.5,5.3-0.7,8,0.8c4.8,2.7,9.7,5.2,14.5,7.7
		c10,5.3,19.8,5.6,30.2,0.5c10.4-5.1,21.4-9.1,32.1-13.6c0.6-0.3,1.3-0.3,2.1-0.3C428.3,247.5,415.4,255,405,267z M246.9,339.9
		c-0.5,1.5-1,3-1.7,5c4.5,0.4,5.2-2.3,5.9-5.9c-1.8,0.4-3.1,0.7-4.3,1c0.3-1.4,1.1-2.8,0.9-4.1c-0.1-1.1-1.1-2.6-2.1-2.8
		c-3.3-1-7.7,1.6-8.9,4.7c-1.3,3.5-0.3,5.3,3.5,4.8C242.5,342.4,244.6,340.9,246.9,339.9z M355.7,378.9c7.2,0.4,12.6-3.2,16.8-8.6
		c0.7-0.9-0.3-3.1-0.5-4.7c-1.3,0.5-2.9,0.6-3.8,1.4c-2.9,2.6-5.6,5.4-8.4,8.2c-1.3,1.3-2.7,2.5-4.1,3.8c-0.2-1.4-0.1-3-0.7-4.3
		c-0.6-1.2-1.8-2.8-2.9-2.9c-1.3-0.1-4.1,1.2-4,1.7c0.3,2.4,0.7,5.4,2.2,7C352,382.4,354.5,381.5,355.7,378.9z M310.1,271.7
		c2.1,0.6,4.1,1.7,6.2,1.8c3.2,0.1,3.2-2.8,3-5c-0.1-2,0.2-5.3-3-4.9c-3.2,0.4-3.6-1.1-3.8-3.4c-0.2-2.6-1.1-4.4-4.1-4
		c-3.1,0.4-3.2,2.9-2.6,4.8c1.1,3.8,3,7.3,4.5,10.9c-1.4-1-2.9-1.9-4.3-2.9c-0.5,1.2-1.1,2.4-1.3,2.9c-0.4-0.6-1.1-2.5-1.8-2.5
		c-1.3,0-2.8,0.8-3.8,1.8c-1.1,1-2,2.5-2.5,3.9c-0.4,1.3-0.8,3.6-0.1,4c1.1,0.8,3.3,1.1,4.5,0.5c2.1-1,3.4-0.9,5.2,0.6
		c0.9,0.8,3.5,0.9,4.4,0.2c1-0.7,1.3-2.9,1.2-4.3C311.7,274.5,310.7,273.1,310.1,271.7z M267.2,346.6c-0.3,0.2-0.5,0.4-0.8,0.7
		c1.7,3.4,3.5,6.7,5.1,10.1c0.6,1.2,1.2,2.7,1.1,4c-0.4,6.7,3.4,10.7,8.5,14c1.3,0.8,3,1.6,3.4,2.8c3.4,8.2,8.7,15,15,21.2
		c2.8,2.8,2,8.1-1,9.4c-14.4,6.1-29.1,10.1-45,8.2c-3.2-0.4-6.6-0.1-9.9-0.1c0.1,0.7,0,1,0.1,1.2c0.7,1,1.4,2.1,2.2,3.1
		c8,10.4,14,21.9,17.1,34.5c2.9,11.5,4.3,23.4,6.2,35.2c0.5,3,1.5,4.3,4.8,4.2c18.8-0.5,37.7-0.8,56.5-1.2c1.5,0,3.2,0.1,4.6-0.5
		c1.2-0.4,2.6-1.6,2.9-2.7c1.1-4.6,2.1-9.3,2.6-14c2.3-21.3,9.4-40.6,22.8-57.5c0.4-0.5,0.5-1.2,0.8-1.9c-0.7-0.2-1.1-0.4-1.5-0.4
		c-1.4,0-2.8-0.1-4.2,0.1c-16.7,2.3-32.4-1.2-47.6-7.7c-4.7-2-5.5-6.6-2-10.5c4.2-4.7,8.3-9.5,12-14.6c3.4-4.7,5.2-10.5,10-14.3
		c1.4-1.1,2.1-3.3,2.9-5.1c1.9-4.4,3.7-8.8,5.5-13.2c0.6-1.4,1.2-2.8,1.8-4.3c-3.3,2.8-5.7,6.1-8.4,9.1c-0.9,1-2.9,1.8-4.1,1.6
		c-16.4-3.9-32.7-4.3-49.2-0.3c-1.2,0.3-3.2-0.5-4.2-1.4C272.5,353,269.9,349.8,267.2,346.6z M196.3,286.6c-5.2,0-9.3,0-13.5,0
		c-0.3-0.5-0.6-0.9-1-1.4c2.6-1.9,5.2-3.7,7.9-5.6c-0.3-0.3-0.6-0.5-0.8-0.8c-4,0-7.9,0-11.9,0c-0.2-0.3-0.3-0.7-0.5-1
		c3.5-1.9,7-3.9,11.3-6.3c-5.6-1-10.5-1.8-15.4-2.7c0-0.2,0-0.4-0.1-0.6c6.2-0.8,12.4-1.6,19.8-2.5c-11.2-9.2-21.7-17-33.7-22.9
		c-2.6,14,18.1,64.4,28.4,69.3C186.6,302.7,191.5,295.3,196.3,286.6z M422.6,312.2c13.8-20.8,25.4-42.9,27.8-68.7
		c-0.5-0.5-1.1-0.9-1.6-1.4c-10.9,7.4-21.7,14.8-32.6,22.3c0.2,0.5,0.4,1,0.6,1.4c6.2,0.7,12.3,1.5,18.5,2.2c0,0.2,0,0.5,0,0.7
		c-4.8,0.9-9.7,1.7-15.2,2.7c4.2,2.4,7.7,4.4,11.2,6.4c-0.2,0.3-0.4,0.7-0.7,1c-3.9,0-7.9,0-12.5,0c2.8,2.6,5.1,4.7,7.4,6.8
		c-0.1,0.4-0.3,0.8-0.4,1.2c-4.2,0-8.4,0-12.3,0C416.1,295.5,419.3,303.7,422.6,312.2z M270.3,322.3c0.1,0.4,0.3,0.7,0.4,1.1
		c-2.8,2.2-5.6,4.4-8.5,6.6c11.4-4.3,21.7-1.4,31.7,4.6c0.2-0.5,0.5-1,0.7-1.5c-2.7-2.5-5.5-5.1-8.4-7.7c1.8-1,3.4-1.8,5-2.7
		c-1-0.6-1.9-0.8-2.7-0.6c-7.4,1.9-13.1-1.5-18.6-5.7c-2.3-1.8-4.5-3.8-6.8-5.7c-9.7-8.2-26.8-8.4-36.5-1.5
		c7.1,10.9,20.3,16.5,33.2,14.3C263.4,323,266.9,322.7,270.3,322.3z M381.5,308.9c-7.3-3.5-14.5-5.2-22.3-4.2
		c-7.8,1-13.7,5.1-19.4,10.2c-5.9,5.2-12.3,9.5-20.9,7.4c-0.7-0.2-1.5,0.1-3.3,0.3c2.6,1.3,4.2,2.2,5.9,3.1c-3.1,3-5.9,5.6-8.6,8.2
		c0.3,0.4,0.5,0.8,0.8,1.2c9.9-6.2,20.3-9.1,31.8-5c-2.8-2.2-5.6-4.4-8.4-6.6c0-0.5,0-1,0-1.5C354.5,326.5,369.9,324.6,381.5,308.9z
		 M303.9,298.8c-0.7-1.7-1.3-3.6-2.2-5.3c-1.8-3.1-5.2-3.8-7.8-1.6c-2.8,2.3-2.5,4.5,0,7c2.8,2.9,1.9,5.6-2,6.9
		c-2.1,0.7-4.4,1-6.4,2c-1.1,0.6-1.7,2.2-2.5,3.3c1.3,0.7,2.5,1.8,3.8,1.9c1.1,0.1,2.3-0.8,3.5-1.2c4.4-1.7,8.8-3.5,13.2-5.1
		c0.5-0.2,1.2,0.4,1.8,0.6c4.8,1.9,9.5,4,14.4,5.5c1.4,0.4,3.4-1,5.1-1.5c-1-1.2-1.9-2.8-3.2-3.6c-1.7-0.9-3.7-1.1-5.6-1.7
		c-4.2-1.3-5-3.9-1.9-7.2c2.3-2.5,2.5-4.6-0.1-6.8c-2.5-2.1-5.9-1.7-7.7,1.1C305.4,294.8,304.8,296.8,303.9,298.8z M198.9,353.3
		c-8.7,8.4-2.9,33.2,8.4,36.5c-1.7-4.8-3.3-9.4-5.2-15c5.9,6,7.3,9.1,8.3,15.9c0.4,2.8,1.2,5.9,2.9,8.2c1.1,1.5,4,1.8,6.1,2.6
		c0.6-1.9,2.1-4.3,1.5-5.8c-1.9-4.6-4-9.3-7-13.2c-5.9-7.8-10.9-15.9-13.2-25.5C200.3,355.9,199.6,354.8,198.9,353.3z M400.3,390.4
		c12-6,17.1-29.9,8.6-36.9c-0.7,1.4-1.6,2.7-1.9,4.1c-2.2,8.7-6.3,16.4-11.9,23.4c-2.3,2.8-4.2,6-6,9.1c-1.1,1.9-2,4.1-2.2,6.3
		c-0.2,1.6,0.6,4.5,1.3,4.7c1.8,0.3,4.7,0,5.6-1.2c1.8-2.3,3.1-5.4,3.5-8.3c0.9-6.2,3-11.6,8.6-16.8
		C403.9,380.5,402.3,385,400.3,390.4z M242.1,268.2c-1,1.1-1.8,2-2.6,2.8c-2.4,2.6-4.7,5.3-7.3,7.7c-1.7,1.6-4,2.7-5.7,4.2
		c-0.8,0.7-1.7,2.5-1.3,3c2.4,3.7,4.9,7.4,7.8,10.8c0.7,0.8,3.6,0.7,4.3,0c1-1.1,1.2-3.2,1.2-4.8c0-1.1-1.6-2.2-1.7-3.3
		c-0.1-1.9-0.3-5.2,0.7-5.6c4-1.9,4.4-6.2,7-9c0.7-0.7,0.8-2.4,0.5-3.4C244.7,269.7,243.4,269.2,242.1,268.2z M383.9,286.2
		c0.1-0.7,0.2-1.4,0.3-2.1c-1.2-0.6-2.7-1.1-3.7-2c-4.5-3.8-10.8-5.7-12.9-12.1c-0.2-0.6-2.5-1.3-3.1-0.8c-1,0.6-2.1,2.5-1.8,3.2
		c1.2,2.9,2.5,6,4.7,8.1c4.9,4.8,5,4.5,2.3,11.1c-0.6,1.4-0.1,3.5,0.6,5c0.3,0.7,2.8,1.5,3.1,1.1C377,293.9,380.4,290,383.9,286.2z
		 M209.4,321.8c-2,5.1-4.5,10.8-6.3,16.7c-0.5,1.6,1.3,3.9,2.1,5.8c1.9-0.8,4.1-1.3,5.5-2.6c2.4-2.3,3.9-5.5,6.3-7.8
		c2.3-2.2,5.3-3.8,7.6-5.4C220,326.5,215.4,324.5,209.4,321.8z M398.4,321.8c-6.1,2.7-10.8,4.7-15.9,6.9c6.3,2.5,10.9,6.9,14.1,12.7
		c1.3,2.4,3.4,4.2,5.7,2.7c1.4-0.9,2.8-4,2.3-5.6C402.9,332.6,400.4,326.9,398.4,321.8z M293.2,238.8c0.1,0.4,0.1,0.9,0.2,1.3
		c-1.8,0.8-3.8,1.6-5.5,2.6c-0.9,0.5-1.6,1.5-2.4,2.3c1.6,1.4,3,3,4.8,4c1.8,0.9,3.8,1.6,5.3-1.2c1.4-2.5,3.6-4.5,5.6-6.6
		c2.1-2.1,2.7-7.1,0.6-7.7c-5.1-1.2-10.4-1.8-15.6-2.3c-0.8-0.1-2.2,2-2.5,3.3c-0.1,0.7,1.6,2.1,2.7,2.5
		C288.6,237.9,291,238.3,293.2,238.8z M314.6,240.1c0.1-0.5,0.1-0.9,0.2-1.4c2.4-0.6,4.9-1,7.2-1.8c1-0.4,2.1-1.5,2.3-2.5
		c0.2-0.7-0.9-2.1-1.7-2.5c-1.3-0.6-3-1-4.4-0.8c-3.1,0.3-6.1,0.8-9.1,1.6c-1.5,0.4-4,1.8-4,2.7c0,2.1,1,4.3,2.1,6.2
		c1.1,1.9,3.2,3.2,4.4,5c2.2,3.4,6.7,4,9.5,0.9c1.6-1.8,2.1-3.7-1-4.8C318.2,242,316.4,241,314.6,240.1z M278.5,282.9
		c-1.1-1-2.2-2.5-3.6-2.9c-1.6-0.5-3.6-0.1-5.3-0.1c0.3,1.7,0,4.1,1.1,5.1c3.9,3.8,8.1,7.3,12.5,10.5c1.4,1,3.7,0.6,5.6,0.8
		c0.1-1.7,0.8-3.6,0.2-5.1c-1.1-3.3-2.8-6.3-4.4-9.4c-1-1.9-2.2-3.8-3.2-5.7C280.4,278.1,279.6,280.2,278.5,282.9z M329,283.2
		c-0.3-1.8-0.4-3.1-0.8-4.2c-0.4-1.1-1.2-2-1.8-3c-0.7,0.9-1.6,1.7-2.1,2.7c-1.5,3.1-3,6.3-4.2,9.5c-0.9,2.5-1.4,5.1-2.4,8.8
		c3.4-0.7,5.7-0.6,7.2-1.7c4.4-3.2,8.6-6.8,12.5-10.5c1-0.9,0.8-3.1,1.1-4.8c-1.8-0.1-3.7-0.6-5.3-0.1
		C331.8,280.3,330.7,281.8,329,283.2z M274,270.4c4.5-2.2,9-4.2,13.3-6.6c0.7-0.4,1.1-2.7,0.7-3.7c-0.4-1-2.1-2.3-3-2.1
		c-4.6,0.9-9.3,1.8-13.6,3.7c-1.5,0.7-2.3,3.9-2.6,6C268.7,268.2,271.7,269.2,274,270.4z M333.5,270.2c2.4-1,5.5-1.7,5.5-2.3
		c0-2-0.7-5.4-2-5.9c-4.7-1.9-9.8-2.9-14.8-3.9c-0.7-0.1-2.1,1.6-2.6,2.7c-0.3,0.8,0.1,2.6,0.7,2.9
		C324.6,266,329.1,268.1,333.5,270.2z M302,261.7c0.3-0.2,0.7-0.4,1-0.6c-1.2-1.7-2.1-4.3-3.6-4.8c-3.5-1-3.7,1.9-4.1,4.6
		c-0.2,1-1.8,1.9-2.9,2.7c-1.1,0.7-3.3,1.1-3.4,1.8c-0.1,2.5-0.1,5.3,0.9,7.5c0.4,0.8,4.7,0.8,5.9-0.4
		C299,269.7,302.5,266.7,302,261.7z M252.7,377.4c-0.4,0.3-0.7,0.7-1.1,1c-4-3.8-7.8-7.7-11.9-11.4c-1-0.9-2.5-1.1-3.8-1.6
		c-0.3,1.6-0.6,3.3-0.7,4.9c0,0.5,0.9,1,1.3,1.6c4.8,6,12.3,6.8,18.8,9.1c3.6,1.3,3.9-3.3,4.8-5.6c0.3-0.8-1.8-3.3-3.2-3.8
		C254,370.8,252.4,373.2,252.7,377.4z M353.9,297.1c5-0.4,10-3.9,9.6-6.6c-0.7-4.6-6.9-9.8-10.6-8.9c-3.7,0.9-7,5.7-6.2,8
		c3.2,0.2,6.2,0.3,9.2,0.5C355.3,292.3,354.7,294.6,353.9,297.1z M254.1,298.2c-1-3.6-1.6-5.9-2.2-8.2c2.3,0,4.7-0.1,7-0.1
		c0.3,0,0.7,0.3,0.8,0.3c0.7-0.7,1.9-1.6,1.8-2.2c-0.6-3.3-6.7-7.2-9.7-6.5c-3,0.8-8.2,7.8-7.7,10.3c0.1,0.4,0.2,0.9,0.5,1.1
		C247.6,294.6,250.6,296.2,254.1,298.2z M363.6,407.9c-1.8,4-1.8,6.3,1,8.4c2.6,2,6.9,1.3,8.6-1.3c1.8-2.8,0.7-5.3-2.9-8.3
		c-0.1-1.9-0.4-4.8-1.4-5c-1.9-0.5-4.2,0.5-6.4,0.8C362.9,404.4,363.2,406.1,363.6,407.9z M345,393.1c10.7,0.8,20.2-2.3,28.3-9.1
		c1.2-1,2-4.5,1.2-5.6c-1.8-2.7-3.6-0.2-5,1.3c-6.1,6.2-13.5,10.3-21.9,12.5C346.7,392.4,345.9,392.8,345,393.1z M262.6,393.1
		c-0.7-0.3-1.4-0.7-2.2-0.9c-8.6-2.2-16.1-6.4-22.4-12.7c-1.3-1.3-3-3.6-4.7-1.2c-0.8,1.1-0.4,4.4,0.7,5.3
		C242.2,390.7,251.8,393.9,262.6,393.1z M231.9,353.3c-5.3-5.9-9.4-6.4-11.4-1.9c-1.6,3.4-2.8,6.6-7,7.5c-0.6,0.1-1.3,1.8-1.3,2.7
		c0,0.7,0.9,2,1.6,2.1c3.1,0.5,6.9,0.8,8.1-2.6C223.4,356.4,226.2,353.8,231.9,353.3z M205,317.7c0.6,0.2,1.2,0.5,1.8,0.7
		c0.4-0.9,0.7-1.9,1.3-2.7c4.7-7.1,9.4-14.1,14-21.3c0.5-0.7,0.1-2,0.1-3c-1,0.1-2.4-0.3-2.9,0.3c-6.7,6.5-11.9,14.1-15.2,22.9
		C203.7,315.4,204.6,316.6,205,317.7z M375.8,351.9c1.3,1.1,1.6,1.5,1.9,1.6c3.9,0.9,6.8,2.4,8,6.9c0.5,1.7,4,2.7,6.4,3.5
		c0.9,0.3,2.3-1.2,3.5-1.9c-0.8-1.2-1.6-2.6-2.6-3.7c-1.5-1.7-3.2-3.1-4.8-4.8c-1.5-1.6-2.9-4.8-4.4-4.8
		C381.4,348.6,378.9,350.5,375.8,351.9z M387,290.6c-0.7,0.6-1.6,1-1.6,1.4c0,1,0.3,2.1,0.9,3c4.3,6.7,8.7,13.3,13.2,19.9
		c0.7,1.1,2.2,1.6,3.4,2.4c0.1-1.3,0.9-3,0.3-3.9c-4.5-7.1-9.1-14-13.8-21C388.9,291.7,387.9,291.3,387,290.6z M257.3,258
		c-5.5,0.1-9.1,2.6-10.1,7.1c-0.3,1.5,0.6,4.4,1.8,5c1.3,0.6,3.7-0.3,5.3-1.2c1.6-0.9,2.8-2.6,4-4.1c1-1.2,2.8-3.2,2.5-3.6
		C259.8,259.6,258,258.6,257.3,258z M361,267.8c0.1-6-6.4-11.1-11.1-9.5c-1.2,0.4-2.4,1.5-2.9,2.6c-0.3,0.6,0.3,2.2,0.9,2.9
		c1.9,2.1,3.9,4.3,6.2,5.9c1.1,0.8,3.2,1,4.5,0.5C359.8,269.9,360.6,268.3,361,267.8z M344.8,283.4c3.3-1.2,6-2,8.4-3.2
		c0.9-0.5,2-2.6,1.7-3c-1.8-2.7-3.8-5.6-6.3-7.7c-1.1-0.9-3.8-0.5-5.3,0.2c-0.7,0.3-1,3.8-0.3,4.3
		C346.3,276.3,345.6,279.4,344.8,283.4z M261.8,283c0.8-3.1,1.5-5.4,2.1-7.7c0.4-1.8,0.6-3.7,0.9-5.5c-2,0-4.7-0.8-6,0.2
		c-2.4,1.8-4.1,4.5-5.8,7c-0.4,0.6,0.3,2.6,1,2.9C256.7,281.2,259.5,282.1,261.8,283z M330.6,245.4c-0.5,0.3-2.2,1.1-3.7,2.2
		c-0.3,0.2,0,1.9,0.4,2.1c4.3,1.9,8.5,4,13,5.2c2.4,0.7,3.1-1.3,2-3.5C340.2,247.2,336.6,245.5,330.6,245.4z M281.7,248.7
		c-3-4.5-6.8-3.9-9.8-2.5c-2.6,1.2-4.5,4.1-6.7,6.3c0.9,0.9,1.9,2.6,2.7,2.5C273.1,254.5,277.6,252.2,281.7,248.7z M381.2,271.2
		c-2.8-3.7-5.1-7.3-8-10.3c-0.6-0.6-4,0.6-5.2,1.8c-1.8,1.8-0.1,3.4,1.6,4.7c2,1.6,3.7,3.7,5.5,5.5c0.8,0.8,2.2,2.3,2.5,2.1
		C378.7,274.3,379.5,273.1,381.2,271.2z M260.8,365.6c-6.3-4.3-12.1-8.4-18-12.2c-1-0.6-2.9,0.1-4.4,0.3c0.3,1.6-0.1,4,0.9,4.7
		C245.6,362.8,252.9,364.3,260.8,365.6z M395.5,315.6c-5.8-5.4-10.8-10-10.6-17.9c0.1-2.2-3.1-2.7-4.4-0.6c-0.8,1.3-1.3,3.2-1.1,4.7
		C380.2,307.7,388,314.8,395.5,315.6z M230,275.3c3.5-3.2,6.4-5.6,9-8.4c0.8-0.9,1.5-3.4,1-3.8c-1.3-1.2-3.3-2.5-4.9-2.3
		c-3.2,0.3-8,8.7-7.1,11.9C228.4,273.7,229.5,274.6,230,275.3z M347.5,365.3c0.1,0.4,0.2,0.8,0.3,1.2c6.7-2.4,13.6-4.7,20.2-7.4
		c1.9-0.8,3.5-3.2,1.4-5.1c-0.9-0.9-3.7-0.8-5,0C358.6,357.5,353.1,361.4,347.5,365.3z M212.1,315.5c7.4-0.5,15.6-7.8,16.3-13.5
		c0.1-1.2,0.2-2.7-0.4-3.7c-0.6-1-2-1.6-3-2.4c-0.7,1-2.1,2-2.1,3c-0.1,5.2-2.6,9.1-6.2,12.5C215.5,312.6,214.2,313.6,212.1,315.5z
		 M209.4,279.1c4.6-6.1,8.6-11.6,12.8-17.2c-5-1.3-7.8-0.3-10.7,4.6C209.4,270.2,206.2,273.8,209.4,279.1z M385.6,261.9
		c4.4,5.9,8.5,11.3,12.9,17.2c3-5.7-0.3-9.5-2.7-13.3C393.6,262.3,390.6,260,385.6,261.9z M192.7,331.6c3.9-3.8,8.2-7.9,12.8-12.3
		c-4.5,0.5-9,0.9-13.7,1.4C192.2,324.3,192.5,328.5,192.7,331.6z M402.3,319.3c4.4,4.7,8.3,9,12.4,13.5c0.4-4.3,0.9-8.5,1.2-12
		C411.1,320.2,406.6,319.7,402.3,319.3z M375.7,412.4c1.3-1.2,2.8-1.9,3.2-3.1c1.6-4.5,3-9,4-13.6c0.3-1.2-1.5-2.9-2.3-4.3
		c-1.3,1.3-3.5,2.4-3.7,3.8C376.1,400.7,376,406.2,375.7,412.4z M364.8,263.9c2.6-4.8,2-7.6-1.4-10.3c-5.2-4.1-10.9-5.6-13.8-3.3
		C353.9,255.7,363.1,255.5,364.8,263.9z M232.2,412.6c-0.5-6.7-0.7-12.4-1.4-18.2c-0.1-1.1-2.2-2-3.4-3.1c-0.9,1.4-2.7,3-2.4,4.2
		c0.9,4.6,2.4,9.1,4,13.6C229.3,410.4,230.8,411.2,232.2,412.6z M242.2,263.4c2.8-2.8,4.9-5.4,7.6-7.5c2.7-2.1,5.8-3.6,8.8-5.4
		c-0.3-0.5-0.5-1-0.8-1.5c-5.8-0.9-10.4,2-14.6,5.7C240.4,257.2,241.1,260.4,242.2,263.4z M369.1,342.8c0.4-0.4,2.4-1.3,2.5-2.5
		c0.5-3.9-3.9-7.6-8.5-7.2c-1.1,0.1-2.9,1.7-2.9,2.7C360,340.1,363.3,342.9,369.1,342.8z M235.9,325.5c-3.7-3.7-6.8-6.9-10-10
		c-1.5-1.4-3.4-2.9-4.8-0.4c-0.5,0.9,0.8,2.9,1.4,4.3c0.3,0.5,1.5,0.7,1.6,1.2c0.5,2.6,1.8,4.3,4.6,4.5
		C231.1,325.2,233.4,325.3,235.9,325.5z M374.8,325.5c3.3,0.8,5.5,0,8.9-4.7c0.3-0.4,0.8-0.8,1.3-1c2.1-1.2,3.5-3,1.5-4.9
		c-0.7-0.6-3.8,0.1-4.7,1.1C378.9,319.2,376.6,322.9,374.8,325.5z M263.5,292.9c-3.1,2.1-3.5,4.7-0.9,8.3c2.4,3.3,6.3,4,9.7,1.5
		C269.5,299.5,266.5,296.3,263.5,292.9z M335.3,302.9c4.3,2.5,8.4,1.3,10.4-2.5c1.9-3.6,1.2-6-1.5-7.3
		C341.2,296.4,338.4,299.5,335.3,302.9z M194.4,349c3.9-0.6,5.7-2.6,5.3-6.5c-0.5-4.6-2.9-6.5-7.1-6
		C193.2,340.6,193.8,344.6,194.4,349z M415.2,336.5c-4.4-0.3-6.5,1.4-7.1,6.1c-0.4,3.8,1.4,5.9,5.3,6.3
		C414.1,344.8,414.7,340.6,415.2,336.5z M225.8,274.8c-1.4-3.1-4.1-3.8-6.4-1.9c-2.1,1.8-3.2,4.8-4.7,7.3c1,0.4,2.4,1.3,2.9,1
		C220.3,279.3,222.9,277.1,225.8,274.8z M381.9,275.6c1.6,0.7,3.3,1.1,4.6,2c1.3,0.9,2.2,2.6,3.5,3.4c0.6,0.4,2.5-0.1,2.9-0.7
		c1.1-1.9-1.7-6.5-4.6-7.7C385.4,271.5,383.1,271.8,381.9,275.6z M372.6,332.7c3.3,5.5,6.7,6.9,11.8,5.2
		C382.3,332.5,378.6,330.9,372.6,332.7z M240.1,389.3c-2.1,2.3-4.5,4.1-4.2,5c0.5,1.6,2.6,3.6,4.2,3.8c1.3,0.1,4.1-2.1,4.1-3.3
		C244.2,393.3,242.1,391.7,240.1,389.3z M367.7,389.4c-2,2.2-3.3,3.6-4.5,5c1.5,1.3,2.9,3.4,4.7,3.7c2.2,0.4,4.8-1,4.2-3.8
		C371.7,392.8,369.7,391.6,367.7,389.4z M344.4,405.2c0-0.6,0-1.2-0.1-1.8c-1.6-1-3.3-2.9-4.7-2.7c-1.4,0.2-3.6,2.6-3.5,3.9
		c0.1,1.4,2.4,3.6,3.8,3.7C341.3,408.4,342.9,406.3,344.4,405.2z M223.2,338.3c6.5,0.9,9.7-0.7,11.7-5.6
		C229.2,330.9,225.5,332.6,223.2,338.3z M269.1,399.9c-0.6,0-1.2,0-1.8-0.1c-1,1.5-2.9,3.1-2.8,4.5c0.1,1.5,2.2,2.9,3.4,4.3
		c1.4-1.4,3.7-2.6,4.1-4.2C272.2,403.2,270.1,401.4,269.1,399.9z M241.6,409.2c1.9-2.3,3.1-3.8,4.3-5.2c-1.6-1.1-3.2-2.9-4.9-2.9
		c-1.3,0-2.7,2.1-4,3.2C238.3,405.7,239.6,407,241.6,409.2z M355.2,402.2c0-0.5,0-1.1,0-1.6c-1.7-0.8-3.4-2.4-4.9-2.3
		c-1.4,0.1-2.7,2.1-4,3.3c1.5,1.2,2.9,3.1,4.5,3.3C352.1,405.1,353.7,403.2,355.2,402.2z M257.2,396.7c-1.8,2.2-3.8,3.7-3.7,4.9
		c0.2,1.3,2.5,3.5,3.7,3.4c1.5-0.2,2.8-2.2,4.2-3.5C260.3,400.1,259.1,398.8,257.2,396.7z M268,386.8c-2.3-1.5-3.7-3.1-4.8-2.9
		c-1.4,0.2-2.5,1.9-3.8,2.9c1.3,1.1,2.4,2.7,3.8,3C264.3,390,265.7,388.4,268,386.8z M350,386.9c-2.5-1.6-3.9-3.2-5-3
		c-1.4,0.2-2.5,1.9-3.8,2.9c1.1,1.1,2.2,2.9,3.4,3C345.9,389.9,347.4,388.4,350,386.9z M255.9,325.7c-2.2,0.8-4.4,1.6-6.6,2.4
		c0.6,0.9,1.1,2.5,1.9,2.7C254.4,331.6,255.5,329.3,255.9,325.7z M352.5,325.5c-0.3,0.4-0.6,0.9-0.9,1.3c0.6,2.5,1.8,4.5,4.9,3.9
		c0.8-0.2,1.3-1.7,2-2.6C356.4,327.3,354.5,326.4,352.5,325.5z M280,404.2c-1.7-1.2-2.8-2.7-3.7-2.5c-1,0.1-2.4,1.7-2.4,2.7
		c0,0.8,1.6,2.3,2.5,2.4C277.4,406.9,278.4,405.5,280,404.2z M335,404.2c-1.7-1.2-2.8-2.6-3.7-2.4c-1,0.2-2.3,1.8-2.4,2.7
		c0,0.8,1.6,2.3,2.6,2.4C332.4,406.9,333.4,405.4,335,404.2z M329.7,385.8c-1.6-1.3-2.6-2.8-3.5-2.7c-0.9,0.1-2.2,1.6-2.4,2.7
		c-0.1,0.7,1.4,2.3,2.2,2.3C327,388.1,328,386.9,329.7,385.8z M360.5,408.9c-2.2-1.1-3.4-2.2-4.4-2.1c-1,0.1-2,1.4-2.9,2.2
		c1,0.7,2.1,1.9,3.1,1.9C357.3,411.1,358.4,410,360.5,408.9z M256.1,409.1c-2.3-1.2-3.4-2.3-4.4-2.2c-1.1,0.1-2,1.5-3,2.3
		c0.9,0.7,1.9,1.9,2.8,1.9C252.6,411.1,253.8,410.1,256.1,409.1z M358.3,338.7c-1,5,0.2,6.4,5.2,5.8
		C361.4,342.2,359.8,340.5,358.3,338.7z M281.9,389.6c1.1-2,2.3-3.2,2.1-4.1c-0.2-1-1.7-1.7-2.6-2.5c-0.7,0.9-1.9,1.8-1.9,2.7
		C279.5,386.7,280.6,387.7,281.9,389.6z M276.6,382.7c-1.6-1.1-2.8-2.4-3.5-2.2c-1,0.3-1.8,1.6-2.7,2.6c0.9,0.7,1.8,1.9,2.7,1.9
		C274.1,385.1,275,383.9,276.6,382.7z M285.3,393.2c-1.9-1.3-2.9-2.4-4-2.5c-0.8,0-1.7,1.4-2.6,2.2c0.8,0.8,1.5,2.3,2.3,2.3
		C282.1,395.3,283.3,394.3,285.3,393.2z M338.4,382.7c-1.7-1.1-2.8-2.4-3.5-2.1c-1,0.3-1.7,1.7-2.6,2.6c0.9,0.7,1.8,1.9,2.7,1.9
		C335.9,385.1,336.8,383.9,338.4,382.7z M330,392.9c-1.6-1.1-2.7-2.3-3.4-2.1c-1.1,0.3-1.9,1.5-2.8,2.4c1,0.8,1.9,1.9,3,2.1
		C327.5,395.4,328.4,394.1,330,392.9z M323.7,401.5c-1.2,1.3-2.5,2.2-2.5,3c0,0.8,1.4,2.4,2,2.4c1-0.2,2.4-1.2,2.7-2.2
		C326.1,404.2,324.7,403,323.7,401.5z M284.3,408.2c1.1-1.6,2.4-2.6,2.3-3.4c-0.1-0.9-1.4-1.6-2.2-2.4c-0.8,0.8-2.1,1.5-2.2,2.4
		C282,405.6,283.2,406.6,284.3,408.2z"/>
	<path d="M294.4,135.4c-0.6,2.4-1,5.3-1.9,8.1c-1.3,3.8-4.4,5.2-8.4,5c-3.8-0.2-6.5-2.2-6.8-5.7c-0.5-5.2-0.7-10.6,0.1-15.8
		c0.7-4.3,4.2-6,8.6-5.7c4.2,0.2,6.3,2.8,7.2,6.5C293.7,130,293.9,132.4,294.4,135.4z"/>
	<path d="M362.6,138.9c-3.1,0-5.7,0-8.9,0c1.3-4.8,2.6-9.2,3.9-13.7c0.3-0.1,0.6-0.1,0.8-0.2C359.8,129.4,361.1,133.9,362.6,138.9z"
		/>
	<path d="M226.8,138.9c-3,0-5.7,0-8.9,0c1.3-4.7,2.6-9.1,3.8-13.6c0.3-0.1,0.6-0.1,0.9-0.2C224,129.6,225.3,134.1,226.8,138.9z"/>
	<path d="M134.3,138.8c1.4-4.7,2.7-9.2,4-13.6c0.3,0,0.6,0,0.9,0c1.3,4.4,2.6,8.9,4.1,13.6C140.1,138.8,137.4,138.8,134.3,138.8z"/>
	<path d="M267.2,346.6c2.7,3.2,5.3,6.4,8.2,9.4c0.9,1,2.9,1.7,4.2,1.4c16.4-4,32.8-3.5,49.2,0.3c1.2,0.3,3.2-0.6,4.1-1.6
		c2.7-3,5.1-6.3,8.4-9.1c-0.6,1.4-1.2,2.8-1.8,4.3c-1.8,4.4-3.6,8.8-5.5,13.2c-0.8,1.8-1.5,4-2.9,5.1c-4.8,3.8-6.6,9.6-10,14.3
		c-3.7,5.1-7.8,9.9-12,14.6c-3.5,3.9-2.7,8.5,2,10.5c15.2,6.5,31,10,47.6,7.7c1.4-0.2,2.8-0.1,4.2-0.1c0.4,0,0.8,0.2,1.5,0.4
		c-0.3,0.7-0.4,1.4-0.8,1.9c-13.3,16.9-20.5,36.2-22.8,57.5c-0.5,4.7-1.5,9.4-2.6,14c-0.3,1.1-1.7,2.2-2.9,2.7
		c-1.4,0.5-3,0.4-4.6,0.5c-18.8,0.4-37.7,0.7-56.5,1.2c-3.3,0.1-4.3-1.2-4.8-4.2c-1.9-11.8-3.4-23.6-6.2-35.2
		c-3.1-12.6-9.1-24.1-17.1-34.5c-0.8-1-1.5-2-2.2-3.1c-0.1-0.2-0.1-0.5-0.1-1.2c3.3,0,6.6-0.3,9.9,0.1c15.9,1.9,30.6-2,45-8.2
		c3-1.3,3.8-6.6,1-9.4c-6.2-6.2-11.6-13-15-21.2c-0.5-1.2-2.2-2-3.4-2.8c-5.1-3.3-8.9-7.3-8.5-14c0.1-1.3-0.5-2.7-1.1-4
		c-1.6-3.4-3.4-6.7-5.1-10.1C266.6,347,266.9,346.8,267.2,346.6z M333.6,449.1c5.5-8.2,8.8-16.2,9.8-25.1c0.1-0.8-1.8-2.3-2.9-2.6
		c-10.9-3.1-21.8-6.1-32.8-8.9c-2.1-0.5-4.6-0.5-6.8,0c-9.1,2.2-18.1,5-27.2,7.1c-10.1,2.3-10.3,2.2-8.8,12.6
		c0.9,6.4,4.1,11.5,9.2,15.9c0.6-4.3,0.9-7.9,1.6-11.5c0.7-3.6,1.7-7.1,2.9-10.5c2.2-6.4,2.4-6.4,7.8-2.5c0.8-1.2,1.6-2.4,2.8-4
		c1.8,2.1,3.3,3.8,4.7,5.5c1.5-2.3,2.9-4.5,4.6-7.1c1.2,2.1,1.9,3.4,2.7,4.9c1-1.8,1.7-3.2,2.7-5c1.1,1.6,1.9,2.7,2.6,3.8
		c1.8-1.1,3.2-2,4.9-3c1,1.9,1.7,3.4,2.4,4.8c1.7-1.3,3.3-2.5,5.1-3.9c1,1.7,1.7,2.8,2.3,4c5.1-2.9,5.8-2.6,8,3.1
		c0.5,1.4,1,2.9,1.3,4.4C331.6,436.7,332.5,442.3,333.6,449.1z M276.4,460.3c-0.5,0.2-0.9,0.3-1.4,0.5c1.2,6.6,2.2,13.2,3.7,19.7
		c1.3,5.4,3.9,6,7.7,1.8c2-2.2,3.6-3.2,6.1-0.6c1-1.5,1.8-2.6,2.7-3.8c2.1,1.4,3.7,2.5,5.3,3.5c0-0.4,0-0.8,0.1-1.1c5,0,10,0,14.9,0
		c0,0.4,0,0.7,0,1.1c1.1-0.8,2.3-1.5,3.5-2.3c2.3,2,4.4,4,7.6,6.9c2.5-8.8,4.7-16.7,6.8-24.6c-0.5-0.2-1-0.4-1.4-0.6
		c-4.4,4.2-8.7,8.5-13.1,12.7c-1.9-1.5-3.2-2.6-4.8-3.8c-1.1,1.2-2.1,2.3-3.2,3.5c-1.3-1.2-2.4-2.2-4.3-3.9c-0.7,1.4-1.3,2.6-2,4
		c-1.7-1.6-2.8-2.7-4-3.8c-1.3,1.1-2.4,2.2-3.7,3.3c-1.3-1.1-2.5-2.2-3.7-3.2c-1.7,1.4-3.1,2.7-4.7,4
		C284.3,468.9,280.3,464.6,276.4,460.3z M312.1,361.4c-5.4,0-12,0-20,0c5.3,1.4,9.5,2.8,10.3,7.9c1.2-0.2,2.8,0,3.6-0.7
		C308.3,366.2,310.3,363.5,312.1,361.4z"/>
	<path d="M196.3,286.6c-4.8,8.7-9.7,16.1-9.4,25.5c-10.3-4.9-31-55.3-28.4-69.3c12,5.9,22.5,13.7,33.7,22.9
		c-7.3,0.9-13.6,1.7-19.8,2.5c0,0.2,0,0.4,0.1,0.6c4.9,0.9,9.8,1.7,15.4,2.7c-4.3,2.4-7.8,4.3-11.3,6.3c0.2,0.3,0.3,0.7,0.5,1
		c4,0,7.9,0,11.9,0c0.3,0.3,0.6,0.5,0.8,0.8c-2.6,1.9-5.2,3.7-7.9,5.6c0.3,0.5,0.6,0.9,1,1.4C186.9,286.6,191.1,286.6,196.3,286.6z"
		/>
	<path d="M422.6,312.2c-3.3-8.5-6.5-16.7-9.9-25.4c3.8,0,8.1,0,12.3,0c0.1-0.4,0.3-0.8,0.4-1.2c-2.3-2.1-4.5-4.2-7.4-6.8
		c4.6,0,8.5,0,12.5,0c0.2-0.3,0.4-0.7,0.7-1c-3.5-2-7-4-11.2-6.4c5.5-1,10.3-1.8,15.2-2.7c0-0.2,0-0.5,0-0.7
		c-6.2-0.7-12.3-1.5-18.5-2.2c-0.2-0.5-0.4-1-0.6-1.4c10.9-7.4,21.7-14.8,32.6-22.3c0.5,0.5,1.1,0.9,1.6,1.4
		C448,269.3,436.4,291.4,422.6,312.2z"/>
	<path d="M270.3,322.3c-3.4,0.4-6.9,0.6-10.3,1.2c-12.8,2.2-26.1-3.4-33.2-14.3c9.6-6.9,26.8-6.7,36.5,1.5c2.3,1.9,4.4,3.9,6.8,5.7
		c5.5,4.2,11.2,7.6,18.6,5.7c0.8-0.2,1.6,0,2.7,0.6c-1.6,0.9-3.2,1.7-5,2.7c2.9,2.7,5.6,5.2,8.4,7.7c-0.2,0.5-0.5,1-0.7,1.5
		c-10-6.1-20.3-8.9-31.7-4.6c2.8-2.2,5.6-4.4,8.5-6.6C270.6,323.1,270.4,322.7,270.3,322.3z M259.1,310.9c-0.5,2.9-0.4,4.6-1.1,5.9
		c-0.6,1.2-1.9,1.9-2.9,2.9c-0.9-1-2.1-2-2.5-3.1c-0.4-1.1-0.2-2.5-0.1-3.8c0.2-2.6-1.5-3.5-3.4-2.8c-2.1,0.8-5.5,2.7-5.3,3.8
		c0.3,2.4,1.8,5.6,3.9,6.7c6.1,3.4,11.8,0.9,17.8-2.8C263.3,315.5,261.6,313.6,259.1,310.9z"/>
	<path d="M381.5,308.9c-11.6,15.7-27,17.6-44.5,12.9c0,0.5,0,1,0,1.5c2.8,2.2,5.6,4.4,8.4,6.6c-11.5-4.1-21.9-1.3-31.8,5
		c-0.3-0.4-0.5-0.8-0.8-1.2c2.7-2.6,5.5-5.2,8.6-8.2c-1.6-0.8-3.3-1.7-5.9-3.1c1.7-0.2,2.6-0.5,3.3-0.3c8.6,2.2,15-2.2,20.9-7.4
		c5.7-5,11.7-9.2,19.4-10.2C367,303.7,374.2,305.3,381.5,308.9z M341.8,318.4c4.8,1.4,8.4,3.3,12.1,3.4c3,0.1,6.3-1.6,8.9-3.4
		c1.1-0.8,1.8-4.6,1.1-5.3c-1.8-1.6-4.5-2.1-6.9-3.1c-0.6,1.7-1.2,3.4-1.7,5.1c-0.1,0.4,0.1,1-0.1,1.2c-0.8,1.2-1.8,2.3-2.7,3.4
		c-1-1.1-2.3-2.2-2.8-3.5c-0.5-1.3-0.2-2.9-0.4-5.7C346.5,313.4,344.6,315.4,341.8,318.4z"/>
	<path d="M303.9,298.8c0.8-2,1.4-4.1,2.5-5.8c1.8-2.7,5.2-3.1,7.7-1.1c2.6,2.2,2.4,4.3,0.1,6.8c-3.1,3.3-2.3,5.8,1.9,7.2
		c1.9,0.6,3.9,0.8,5.6,1.7c1.3,0.7,2.1,2.4,3.2,3.6c-1.7,0.6-3.7,2-5.1,1.5c-4.9-1.5-9.6-3.6-14.4-5.5c-0.6-0.2-1.4-0.8-1.8-0.6
		c-4.4,1.6-8.8,3.4-13.2,5.1c-1.2,0.5-2.4,1.4-3.5,1.2c-1.3-0.2-2.6-1.3-3.8-1.9c0.8-1.1,1.4-2.7,2.5-3.3c2-1,4.3-1.3,6.4-2
		c3.9-1.3,4.8-4,2-6.9c-2.5-2.5-2.9-4.8,0-7c2.7-2.2,6-1.5,7.8,1.6C302.7,295.2,303.2,297.1,303.9,298.8z"/>
	<path d="M198.9,353.3c0.7,1.5,1.5,2.6,1.7,3.7c2.3,9.6,7.3,17.7,13.2,25.5c3,3.9,5.1,8.6,7,13.2c0.6,1.5-0.9,3.8-1.5,5.8
		c-2.1-0.8-4.9-1.1-6.1-2.6c-1.6-2.2-2.4-5.3-2.9-8.2c-1-6.8-2.4-9.9-8.3-15.9c1.9,5.6,3.5,10.1,5.2,15
		C196,386.5,190.2,361.7,198.9,353.3z"/>
	<path d="M400.3,390.4c1.9-5.5,3.5-10,5.5-15.6c-5.6,5.2-7.8,10.5-8.6,16.8c-0.4,2.9-1.7,5.9-3.5,8.3c-0.9,1.2-3.8,1.5-5.6,1.2
		c-0.7-0.1-1.5-3.1-1.3-4.7c0.3-2.2,1.2-4.3,2.2-6.3c1.8-3.2,3.7-6.3,6-9.1c5.7-7,9.7-14.7,11.9-23.4c0.3-1.4,1.2-2.6,1.9-4.1
		C417.5,360.5,412.3,384.4,400.3,390.4z"/>
	<path d="M242.1,268.2c1.2,1,2.5,1.6,2.8,2.4c0.3,1,0.1,2.7-0.5,3.4c-2.5,2.8-2.9,7.1-7,9c-0.9,0.4-0.8,3.7-0.7,5.6
		c0.1,1.1,1.6,2.2,1.7,3.3c0.1,1.6-0.2,3.8-1.2,4.8c-0.7,0.8-3.7,0.8-4.3,0c-2.9-3.3-5.4-7-7.8-10.8c-0.3-0.5,0.5-2.3,1.3-3
		c1.8-1.6,4-2.6,5.7-4.2c2.6-2.4,4.9-5.1,7.3-7.7C240.3,270.2,241.1,269.3,242.1,268.2z"/>
	<path d="M383.9,286.2c-3.5,3.8-6.8,7.7-10.5,11.4c-0.4,0.4-2.8-0.3-3.1-1.1c-0.7-1.5-1.1-3.6-0.6-5c2.7-6.5,2.6-6.3-2.3-11.1
		c-2.2-2.1-3.5-5.2-4.7-8.1c-0.3-0.7,0.8-2.6,1.8-3.2c0.6-0.4,2.9,0.2,3.1,0.8c2.1,6.4,8.4,8.3,12.9,12.1c1.1,0.9,2.5,1.3,3.7,2
		C384.1,284.8,384,285.5,383.9,286.2z"/>
	<path d="M209.4,321.8c6,2.6,10.6,4.7,15.2,6.7c-2.3,1.6-5.2,3.2-7.6,5.4c-2.4,2.3-4,5.5-6.3,7.8c-1.4,1.3-3.6,1.8-5.5,2.6
		c-0.8-2-2.6-4.2-2.1-5.8C204.9,332.6,207.4,326.9,209.4,321.8z"/>
	<path d="M398.4,321.8c2,5.1,4.5,10.8,6.2,16.7c0.5,1.6-0.8,4.7-2.3,5.6c-2.3,1.4-4.4-0.4-5.7-2.7c-3.2-5.8-7.8-10.1-14.1-12.7
		C387.6,326.5,392.3,324.5,398.4,321.8z"/>
	<path d="M293.2,238.8c-2.3-0.5-4.6-0.9-6.8-1.7c-1.1-0.4-2.8-1.8-2.7-2.5c0.2-1.2,1.7-3.3,2.5-3.3c5.2,0.4,10.5,1,15.6,2.3
		c2.2,0.5,1.5,5.6-0.6,7.7c-2,2-4.2,4.1-5.6,6.6c-1.6,2.7-3.6,2.1-5.3,1.2c-1.8-0.9-3.2-2.6-4.8-4c0.8-0.8,1.5-1.8,2.4-2.3
		c1.8-1,3.7-1.7,5.5-2.6C293.3,239.7,293.3,239.2,293.2,238.8z"/>
	<path d="M314.6,240.1c1.8,0.8,3.6,1.8,5.5,2.5c3.2,1.1,2.7,2.9,1,4.8c-2.8,3.1-7.3,2.5-9.5-0.9c-1.2-1.8-3.2-3.2-4.4-5
		c-1.1-1.9-2.1-4.1-2.1-6.2c0-0.9,2.5-2.3,4-2.7c3-0.8,6-1.3,9.1-1.6c1.4-0.1,3.1,0.2,4.4,0.8c0.8,0.4,1.9,1.8,1.7,2.5
		c-0.2,1-1.3,2.2-2.3,2.5c-2.3,0.8-4.8,1.2-7.2,1.8C314.7,239.2,314.6,239.7,314.6,240.1z"/>
	<path d="M278.5,282.9c1.1-2.7,1.9-4.8,2.8-6.9c1.1,1.9,2.3,3.7,3.2,5.7c1.6,3.1,3.3,6.2,4.4,9.4c0.5,1.5-0.1,3.4-0.2,5.1
		c-1.9-0.2-4.2,0.2-5.6-0.8c-4.4-3.2-8.6-6.7-12.5-10.5c-1-1-0.7-3.3-1.1-5.1c1.8,0,3.7-0.4,5.3,0.1
		C276.2,280.4,277.3,281.9,278.5,282.9z"/>
	<path d="M329,283.2c1.6-1.3,2.8-2.8,4.2-3.3c1.6-0.5,3.5,0.1,5.3,0.1c-0.3,1.6-0.1,3.8-1.1,4.8c-3.9,3.8-8.1,7.3-12.5,10.5
		c-1.5,1.1-3.8,1-7.2,1.7c1-3.7,1.5-6.4,2.4-8.8c1.2-3.2,2.7-6.4,4.2-9.5c0.5-1,1.4-1.8,2.1-2.7c0.6,1,1.4,1.9,1.8,3
		C328.7,280.1,328.7,281.3,329,283.2z"/>
	<path d="M274,270.4c-2.3-1.2-5.3-2.2-5.2-2.7c0.3-2.2,1.1-5.4,2.6-6c4.3-1.8,9-2.8,13.6-3.7c0.9-0.2,2.6,1.1,3,2.1
		c0.4,1,0,3.3-0.7,3.7C283,266.2,278.5,268.2,274,270.4z"/>
	<path d="M333.5,270.2c-4.4-2.1-8.9-4.2-13.2-6.5c-0.6-0.3-1-2.2-0.7-2.9c0.5-1.1,1.9-2.9,2.6-2.7c5,1,10.1,2.1,14.8,3.9
		c1.3,0.5,2,3.9,2,5.9C339,268.6,335.9,269.3,333.5,270.2z"/>
	<path d="M310.3,271.8c-1.5-3.6-3.4-7.2-4.5-10.9c-0.6-1.8-0.5-4.4,2.6-4.8c3-0.4,3.9,1.5,4.1,4c0.2,2.3,0.6,3.8,3.8,3.4
		c3.3-0.4,2.9,2.9,3,4.9c0.1,2.1,0.2,5-3,5c-2.1,0-4.2-1.1-6.2-1.8L310.3,271.8z"/>
	<path d="M302,261.7c0.5,5-3,8-6.1,10.8c-1.2,1.1-5.5,1.1-5.9,0.4c-1.1-2.1-1.1-5-0.9-7.5c0-0.6,2.3-1.1,3.4-1.8
		c1.1-0.7,2.7-1.7,2.9-2.7c0.4-2.7,0.6-5.6,4.1-4.6c1.5,0.4,2.4,3.1,3.6,4.8C302.7,261.3,302.3,261.5,302,261.7z"/>
	<path d="M252.7,377.4c-0.2-4.2,1.4-6.6,4.3-5.7c1.4,0.4,3.5,3,3.2,3.8c-0.9,2.3-1.2,6.8-4.8,5.6c-6.5-2.3-14-3.1-18.8-9.1
		c-0.4-0.5-1.3-1.1-1.3-1.6c0.1-1.6,0.4-3.3,0.7-4.9c1.3,0.5,2.9,0.7,3.8,1.6c4.1,3.7,7.9,7.6,11.9,11.4
		C251.9,378.1,252.3,377.8,252.7,377.4z"/>
	<path d="M353.9,297.1c0.7-2.5,1.4-4.8,2-7c-3-0.2-6-0.3-9.2-0.5c-0.8-2.3,2.5-7.1,6.2-8c3.7-0.9,9.8,4.3,10.6,8.9
		C363.9,293.2,358.9,296.7,353.9,297.1z"/>
	<path d="M310.1,271.7c0.6,1.4,1.6,2.8,1.7,4.3c0.1,1.5-0.2,3.6-1.2,4.3c-1,0.7-3.5,0.6-4.4-0.2c-1.8-1.6-3.1-1.6-5.2-0.6
		c-1.2,0.6-3.3,0.2-4.5-0.5c-0.6-0.4-0.3-2.7,0.1-4c0.5-1.4,1.4-2.9,2.5-3.9c1-0.9,2.5-1.8,3.8-1.8c0.7,0,1.4,1.9,1.8,2.5
		c0.2-0.5,0.8-1.7,1.3-2.9c1.4,1,2.9,1.9,4.3,2.9C310.3,271.8,310.1,271.7,310.1,271.7z"/>
	<path d="M254.1,298.2c-3.6-2-6.5-3.6-9.5-5.3c-0.3-0.2-0.5-0.7-0.5-1.1c-0.5-2.5,4.7-9.6,7.7-10.3c3-0.8,9.1,3.1,9.7,6.5
		c0.1,0.6-1.2,1.5-1.8,2.2c-0.1,0.1-0.5-0.3-0.8-0.3c-2.3,0-4.7,0-7,0.1C252.5,292.3,253.2,294.6,254.1,298.2z"/>
	<path d="M363.6,407.9c-0.4-1.8-0.7-3.5-1.1-5.3c2.2-0.4,4.5-1.3,6.4-0.8c1,0.2,1.3,3.1,1.4,5c3.5,3,4.6,5.5,2.9,8.3
		c-1.7,2.6-5.9,3.2-8.6,1.3C361.8,414.2,361.8,411.9,363.6,407.9z"/>
	<path d="M345,393.1c0.9-0.3,1.7-0.8,2.6-1c8.4-2.3,15.8-6.3,21.9-12.5c1.4-1.4,3.2-3.9,5-1.3c0.8,1.1,0,4.6-1.2,5.6
		C365.3,390.8,355.8,393.9,345,393.1z"/>
	<path d="M262.6,393.1c-10.8,0.8-20.5-2.4-28.6-9.5c-1.1-0.9-1.5-4.2-0.7-5.3c1.7-2.4,3.4-0.2,4.7,1.2c6.3,6.4,13.8,10.5,22.4,12.7
		C261.2,392.4,261.9,392.8,262.6,393.1z"/>
	<path d="M231.9,353.3c-5.7,0.4-8.5,3.1-10.2,7.9c-1.2,3.4-5,3.1-8.1,2.6c-0.7-0.1-1.6-1.4-1.6-2.1c0-1,0.7-2.6,1.3-2.7
		c4.2-0.9,5.5-4.1,7-7.5C222.5,346.9,226.7,347.5,231.9,353.3z"/>
	<path d="M205,317.7c-0.3-1-1.2-2.3-0.9-3.1c3.3-8.8,8.5-16.4,15.2-22.9c0.5-0.5,1.9-0.2,2.9-0.3c0,1,0.4,2.3-0.1,3
		c-4.6,7.1-9.3,14.2-14,21.3c-0.5,0.8-0.8,1.8-1.3,2.7C206.2,318.1,205.6,317.9,205,317.7z"/>
	<path d="M375.8,351.9c3.1-1.3,5.6-3.2,8.1-3.2c1.5,0,2.9,3.2,4.4,4.8c1.5,1.7,3.3,3.1,4.8,4.8c1,1.1,1.7,2.4,2.6,3.7
		c-1.2,0.7-2.6,2.1-3.5,1.9c-2.3-0.7-5.9-1.8-6.4-3.5c-1.3-4.5-4.1-6-8-6.9C377.4,353.4,377.1,353,375.8,351.9z"/>
	<path d="M387,290.6c0.9,0.7,1.9,1.1,2.4,1.8c4.7,6.9,9.4,13.9,13.8,21c0.6,0.9-0.2,2.6-0.3,3.9c-1.1-0.8-2.6-1.4-3.4-2.4
		c-4.5-6.6-8.9-13.2-13.2-19.9c-0.5-0.8-0.8-2-0.9-3C385.4,291.6,386.3,291.1,387,290.6z"/>
	<path d="M257.3,258c0.7,0.6,2.5,1.6,3.6,3.1c0.3,0.4-1.5,2.4-2.5,3.6c-1.2,1.5-2.4,3.2-4,4.1c-1.6,0.9-4,1.9-5.3,1.2
		c-1.2-0.6-2.2-3.4-1.8-5C248.2,260.6,251.8,258.1,257.3,258z"/>
	<path d="M361,267.8c-0.4,0.5-1.2,2.1-2.3,2.4c-1.4,0.4-3.4,0.3-4.5-0.5c-2.3-1.6-4.3-3.8-6.2-5.9c-0.6-0.7-1.3-2.2-0.9-2.9
		c0.6-1.1,1.8-2.2,2.9-2.6C354.6,256.7,361.1,261.8,361,267.8z"/>
	<path d="M344.8,283.4c0.7-4,1.4-7.1-1.9-9.5c-0.7-0.5-0.3-4,0.3-4.3c1.6-0.7,4.3-1.1,5.3-0.2c2.5,2.1,4.4,4.9,6.3,7.7
		c0.3,0.5-0.8,2.6-1.7,3C350.8,281.4,348.2,282.2,344.8,283.4z"/>
	<path d="M261.8,283c-2.3-0.9-5.1-1.8-7.8-3.1c-0.7-0.4-1.4-2.4-1-2.9c1.7-2.5,3.4-5.3,5.8-7c1.3-1,4-0.2,6-0.2
		c-0.3,1.8-0.5,3.7-0.9,5.5C263.3,277.6,262.6,279.9,261.8,283z"/>
	<path d="M330.6,245.4c6,0.1,9.6,1.8,11.7,6.1c1.1,2.2,0.5,4.2-2,3.5c-4.5-1.3-8.7-3.3-13-5.2c-0.4-0.2-0.7-1.9-0.4-2.1
		C328.4,246.5,330.1,245.7,330.6,245.4z"/>
	<path d="M281.7,248.7c-4.2,3.6-8.6,5.8-13.9,6.3c-0.8,0.1-1.8-1.6-2.7-2.5c2.2-2.1,4.1-5,6.7-6.3
		C274.9,244.8,278.8,244.2,281.7,248.7z"/>
	<path d="M381.2,271.2c-1.7,1.9-2.5,3.1-3.6,3.9c-0.3,0.2-1.7-1.3-2.5-2.1c-1.8-1.8-3.5-3.9-5.5-5.5c-1.7-1.4-3.3-2.9-1.6-4.7
		c1.2-1.2,4.6-2.4,5.2-1.8C376.1,264,378.4,267.6,381.2,271.2z"/>
	<path d="M260.8,365.6c-7.9-1.3-15.2-2.8-21.6-7.2c-0.9-0.6-0.6-3.1-0.9-4.7c1.5-0.1,3.4-0.9,4.4-0.3
		C248.7,357.2,254.5,361.3,260.8,365.6z"/>
	<path d="M395.5,315.6c-7.4-0.8-15.3-7.9-16-13.7c-0.2-1.5,0.3-3.4,1.1-4.7c1.2-2.1,4.4-1.6,4.4,0.6
		C384.6,305.6,389.7,310.2,395.5,315.6z"/>
	<path d="M230,275.3c-0.5-0.7-1.7-1.6-2-2.7c-0.9-3.2,3.9-11.5,7.1-11.9c1.6-0.2,3.6,1.1,4.9,2.3c0.5,0.5-0.1,2.9-1,3.8
		C236.5,269.6,233.5,272.1,230,275.3z"/>
	<path d="M347.5,365.3c5.6-3.8,11.2-7.8,16.9-11.3c1.2-0.8,4-0.8,5,0c2.1,1.9,0.5,4.3-1.4,5.1c-6.6,2.7-13.4,5-20.2,7.4
		C347.7,366,347.6,365.7,347.5,365.3z"/>
	<path d="M212.1,315.5c2.1-1.9,3.4-2.9,4.6-4.1c3.5-3.4,6.1-7.3,6.2-12.5c0-1,1.4-2,2.1-3c1,0.8,2.4,1.4,3,2.4
		c0.6,1,0.5,2.5,0.4,3.7C227.7,307.7,219.5,315,212.1,315.5z"/>
	<path d="M209.4,279.1c-3.2-5.3,0-9,2.1-12.6c2.9-4.9,5.6-5.9,10.7-4.6C218,267.5,213.9,273,209.4,279.1z"/>
	<path d="M385.6,261.9c5-1.9,8,0.4,10.2,3.9c2.4,3.8,5.7,7.6,2.7,13.3C394.1,273.2,390,267.8,385.6,261.9z"/>
	<path d="M192.7,331.6c-0.2-3-0.6-7.2-0.8-10.9c4.7-0.5,9.2-1,13.7-1.4C201,323.7,196.7,327.8,192.7,331.6z"/>
	<path d="M402.3,319.3c4.3,0.5,8.8,0.9,13.7,1.4c-0.4,3.5-0.8,7.7-1.2,12C410.6,328.3,406.7,324,402.3,319.3z"/>
	<path d="M375.7,412.4c0.4-6.2,0.4-11.8,1.2-17.2c0.2-1.4,2.4-2.6,3.7-3.8c0.8,1.5,2.5,3.1,2.3,4.3c-0.9,4.6-2.4,9.2-4,13.6
		C378.5,410.5,376.9,411.3,375.7,412.4z"/>
	<path d="M364.8,263.9c-1.8-8.4-10.9-8.2-15.2-13.6c3-2.3,8.7-0.9,13.8,3.3C366.8,256.3,367.4,259.1,364.8,263.9z"/>
	<path d="M355.8,379c1.4-1.3,2.7-2.5,4.1-3.8c2.8-2.7,5.5-5.6,8.4-8.2c1-0.8,2.5-1,3.8-1.4c0.2,1.6,1.2,3.8,0.5,4.7
		c-4.2,5.4-9.6,8.9-16.8,8.6L355.8,379z"/>
	<path d="M232.2,412.6c-1.4-1.4-2.9-2.2-3.3-3.4c-1.6-4.5-3-9-4-13.6c-0.2-1.2,1.6-2.8,2.4-4.2c1.2,1,3.2,1.9,3.4,3.1
		C231.5,400.2,231.7,406,232.2,412.6z"/>
	<path d="M242.2,263.4c-1.1-3.1-1.8-6.2,1-8.7c4.2-3.6,8.8-6.6,14.6-5.7c0.3,0.5,0.5,1,0.8,1.5c-2.9,1.8-6.1,3.3-8.8,5.4
		C247.1,258,245,260.6,242.2,263.4z"/>
	<path d="M246.9,339.9c-2.2,1-4.4,2.5-6.7,2.8c-3.8,0.5-4.8-1.3-3.5-4.8c1.2-3.2,5.6-5.7,8.9-4.7c0.9,0.3,1.9,1.8,2.1,2.8
		c0.2,1.3-0.6,2.7-0.9,4.1L246.9,339.9z"/>
	<path d="M369.1,342.8c-5.8,0.1-9.1-2.7-8.9-6.9c0.1-1,1.8-2.6,2.9-2.7c4.5-0.4,9,3.3,8.5,7.2C371.5,341.5,369.5,342.4,369.1,342.8z
		"/>
	<path d="M235.9,325.5c-2.5-0.2-4.8-0.3-7.1-0.4c-2.9-0.1-4.1-1.8-4.6-4.5c-0.1-0.5-1.4-0.6-1.6-1.2c-0.7-1.4-1.9-3.4-1.4-4.3
		c1.4-2.5,3.3-1,4.8,0.4C229.1,318.6,232.2,321.8,235.9,325.5z"/>
	<path d="M374.8,325.5c1.8-2.6,4.1-6.3,6.9-9.5c0.9-1.1,4-1.8,4.7-1.1c2,1.9,0.7,3.7-1.5,4.9c-0.5,0.3-0.9,0.6-1.3,1
		C380.2,325.4,378,326.2,374.8,325.5z"/>
	<path d="M263.5,292.9c3,3.3,5.9,6.6,8.8,9.8c-3.5,2.5-7.3,1.9-9.7-1.5C260,297.7,260.4,295,263.5,292.9z"/>
	<path d="M335.3,302.9c3.1-3.4,5.9-6.5,9-9.8c2.6,1.3,3.3,3.7,1.5,7.3C343.8,304.2,339.6,305.4,335.3,302.9z"/>
	<path d="M194.4,349c-0.7-4.4-1.2-8.4-1.8-12.4c4.2-0.5,6.6,1.3,7.1,6C200.1,346.3,198.3,348.4,194.4,349z"/>
	<path d="M415.2,336.5c-0.6,4.1-1.2,8.3-1.8,12.4c-3.9-0.4-5.8-2.5-5.3-6.3C408.7,337.9,410.8,336.2,415.2,336.5z"/>
	<path d="M355.7,378.9c-1.2,2.5-3.7,3.4-5.4,1.6c-1.5-1.7-1.9-4.6-2.2-7c-0.1-0.4,2.7-1.8,4-1.7c1.1,0.1,2.3,1.7,2.9,2.9
		c0.6,1.3,0.5,2.8,0.7,4.3C355.8,379,355.7,378.9,355.7,378.9z"/>
	<path d="M225.8,274.8c-2.9,2.3-5.4,4.5-8.2,6.4c-0.5,0.3-1.9-0.6-2.9-1c1.5-2.5,2.6-5.5,4.7-7.3C221.6,271,224.4,271.7,225.8,274.8
		z"/>
	<path d="M381.9,275.6c1.2-3.8,3.5-4.1,6.4-3c2.9,1.2,5.7,5.8,4.6,7.7c-0.4,0.6-2.3,1.1-2.9,0.7c-1.4-0.8-2.2-2.5-3.5-3.4
		C385.2,276.7,383.5,276.3,381.9,275.6z"/>
	<path d="M372.6,332.7c6-1.8,9.7-0.2,11.8,5.2C379.2,339.6,375.8,338.2,372.6,332.7z"/>
	<path d="M240.1,389.3c2,2.5,4.1,4,4.1,5.5c0,1.2-2.8,3.4-4.1,3.3c-1.6-0.2-3.7-2.1-4.2-3.8C235.6,393.4,238.1,391.6,240.1,389.3z"
		/>
	<path d="M367.7,389.4c2,2.1,4,3.3,4.3,4.9c0.6,2.8-2,4.2-4.2,3.8c-1.7-0.3-3.1-2.4-4.7-3.7C364.5,393,365.7,391.6,367.7,389.4z"/>
	<path d="M344.4,405.2c-1.5,1.1-3,3.3-4.5,3.2c-1.4-0.1-3.7-2.3-3.8-3.7c-0.1-1.3,2.1-3.7,3.5-3.9c1.4-0.2,3.1,1.7,4.7,2.7
		C344.3,404,344.3,404.6,344.4,405.2z"/>
	<path d="M223.2,338.3c2.2-5.7,6-7.4,11.7-5.6C232.9,337.6,229.7,339.2,223.2,338.3z"/>
	<path d="M269.1,399.9c1,1.5,3.2,3.3,2.9,4.5c-0.4,1.6-2.6,2.8-4.1,4.2c-1.2-1.4-3.2-2.8-3.4-4.3c-0.1-1.4,1.8-3,2.8-4.5
		C267.9,399.9,268.5,399.9,269.1,399.9z"/>
	<path d="M241.6,409.2c-2-2.2-3.3-3.5-4.6-4.9c1.3-1.2,2.7-3.3,4-3.2c1.7,0.1,3.2,1.9,4.9,2.9C244.7,405.4,243.5,406.9,241.6,409.2z
		"/>
	<path d="M355.2,402.2c-1.5,1-3.1,2.8-4.4,2.7c-1.6-0.2-3-2.1-4.5-3.3c1.3-1.2,2.6-3.2,4-3.3c1.6-0.1,3.3,1.5,4.9,2.3
		C355.2,401.1,355.2,401.7,355.2,402.2z"/>
	<path d="M257.2,396.7c1.9,2.1,3,3.4,4.2,4.7c-1.4,1.3-2.7,3.3-4.2,3.5c-1.2,0.1-3.5-2-3.7-3.4C253.4,400.3,255.5,398.8,257.2,396.7
		z"/>
	<path d="M268,386.8c-2.3,1.6-3.7,3.2-4.8,3c-1.4-0.2-2.6-1.9-3.8-3c1.3-1,2.4-2.7,3.8-2.9C264.3,383.7,265.7,385.3,268,386.8z"/>
	<path d="M350,386.9c-2.6,1.5-4.1,2.9-5.4,2.9c-1.2-0.1-2.2-1.9-3.4-3c1.3-1,2.4-2.7,3.8-2.9C346.1,383.7,347.5,385.3,350,386.9z"/>
	<path d="M255.9,325.7c-0.4,3.6-1.5,5.9-4.7,5.1c-0.8-0.2-1.3-1.8-1.9-2.7C251.5,327.3,253.7,326.5,255.9,325.7z"/>
	<path d="M352.5,325.5c2,0.9,4,1.8,6,2.7c-0.7,0.9-1.2,2.4-2,2.6c-3.1,0.6-4.3-1.4-4.9-3.9C351.8,326.4,352.2,326,352.5,325.5z"/>
	<path d="M280,404.2c-1.6,1.2-2.6,2.6-3.5,2.6c-1-0.1-2.6-1.6-2.5-2.4c0-1,1.4-2.5,2.4-2.7C277.3,401.6,278.4,403,280,404.2z"/>
	<path d="M335,404.2c-1.6,1.3-2.6,2.7-3.5,2.7c-1-0.1-2.6-1.5-2.6-2.4c0-1,1.4-2.5,2.4-2.7C332.2,401.5,333.3,403,335,404.2z"/>
	<path d="M246.7,340.1c1.3-0.3,2.5-0.6,4.3-1c-0.7,3.6-1.4,6.3-5.9,5.9c0.7-2,1.2-3.5,1.7-5C246.9,339.9,246.7,340.1,246.7,340.1z"
		/>
	<path d="M329.7,385.8c-1.7,1.1-2.7,2.3-3.7,2.3c-0.8,0-2.3-1.7-2.2-2.3c0.2-1.1,1.4-2.6,2.4-2.7C327,383.1,328.1,384.5,329.7,385.8
		z"/>
	<path d="M360.5,408.9c-2.1,1.1-3.2,2.2-4.2,2.1c-1.1-0.1-2.1-1.2-3.1-1.9c1-0.8,1.9-2.1,2.9-2.2
		C357.1,406.7,358.3,407.8,360.5,408.9z"/>
	<path d="M256.1,409.1c-2.3,1.1-3.5,2-4.6,1.9c-1-0.1-1.9-1.2-2.8-1.9c1-0.8,1.9-2.1,3-2.3C252.7,406.7,253.8,407.9,256.1,409.1z"/>
	<path d="M358.3,338.7c1.6,1.8,3.1,3.5,5.2,5.8C358.5,345.1,357.3,343.7,358.3,338.7z"/>
	<path d="M281.9,389.6c-1.2-1.9-2.4-2.9-2.4-3.9c0-0.9,1.2-1.8,1.9-2.7c0.9,0.8,2.4,1.6,2.6,2.5C284.1,386.4,283,387.6,281.9,389.6z
		"/>
	<path d="M276.6,382.7c-1.6,1.1-2.5,2.3-3.4,2.3c-0.9,0-1.8-1.2-2.7-1.9c0.9-0.9,1.6-2.3,2.7-2.6C273.8,380.4,275,381.6,276.6,382.7
		z"/>
	<path d="M285.3,393.2c-2,1-3.1,2.1-4.2,2c-0.8-0.1-1.6-1.5-2.3-2.3c0.9-0.8,1.7-2.2,2.6-2.2C282.4,390.8,283.4,392,285.3,393.2z"/>
	<path d="M338.4,382.7c-1.6,1.2-2.5,2.4-3.4,2.4c-0.9,0-1.8-1.2-2.7-1.9c0.8-0.9,1.6-2.3,2.6-2.6
		C335.6,380.3,336.7,381.6,338.4,382.7z"/>
	<path d="M330,392.9c-1.5,1.2-2.5,2.5-3.3,2.4c-1.1-0.2-2-1.4-3-2.1c0.9-0.8,1.7-2.1,2.8-2.4C327.3,390.6,328.3,391.8,330,392.9z"/>
	<path d="M323.7,401.5c1,1.5,2.4,2.6,2.2,3.2c-0.3,1-1.7,2-2.7,2.2c-0.6,0.1-2-1.5-2-2.4C321.2,403.7,322.5,402.9,323.7,401.5z"/>
	<path d="M284.3,408.2c-1.1-1.6-2.3-2.6-2.2-3.3c0.1-0.9,1.4-1.6,2.2-2.4c0.8,0.8,2.1,1.5,2.2,2.4
		C286.6,405.6,285.4,406.5,284.3,408.2z"/>
	<path class="st1" d="M333.6,449.1c-1.1-6.8-2-12.4-3-18c-0.3-1.5-0.7-3-1.3-4.4c-2.1-5.7-2.9-6-8-3.1c-0.7-1.2-1.4-2.3-2.3-4
		c-1.8,1.4-3.4,2.6-5.1,3.9c-0.7-1.4-1.4-2.9-2.4-4.8c-1.7,1-3.2,1.9-4.9,3c-0.7-1-1.5-2.2-2.6-3.8c-1,1.8-1.7,3.2-2.7,5
		c-0.9-1.5-1.5-2.7-2.7-4.9c-1.7,2.6-3.1,4.8-4.6,7.1c-1.5-1.7-3-3.4-4.7-5.5c-1.1,1.6-1.9,2.8-2.8,4c-5.4-3.9-5.6-3.9-7.8,2.5
		c-1.2,3.4-2.2,7-2.9,10.5c-0.7,3.6-1.1,7.2-1.6,11.5c-5-4.4-8.3-9.6-9.2-15.9c-1.5-10.4-1.2-10.3,8.8-12.6
		c9.1-2.1,18.1-4.9,27.2-7.1c2.1-0.5,4.6-0.6,6.8,0c11,2.8,21.9,5.8,32.8,8.9c1.2,0.3,3,1.8,2.9,2.6
		C342.5,432.9,339.1,440.9,333.6,449.1z"/>
	<path class="st1" d="M276.4,460.3c4,4.3,7.9,8.6,12.2,13.2c1.6-1.4,3.1-2.6,4.7-4c1.2,1,2.4,2.1,3.7,3.2c1.2-1.1,2.4-2.1,3.7-3.3
		c1.2,1.1,2.3,2.2,4,3.8c0.7-1.4,1.3-2.6,2-4c1.9,1.7,3,2.7,4.3,3.9c1.1-1.2,2.1-2.3,3.2-3.5c1.5,1.2,2.9,2.3,4.8,3.8
		c4.4-4.3,8.8-8.5,13.1-12.7c0.5,0.2,1,0.4,1.4,0.6c-2.2,7.9-4.4,15.8-6.8,24.6c-3.2-2.9-5.3-4.8-7.6-6.9c-1.2,0.8-2.4,1.6-3.5,2.3
		c0-0.4,0-0.7,0-1.1c-5,0-10,0-14.9,0c0,0.4,0,0.8-0.1,1.1c-1.6-1.1-3.2-2.2-5.3-3.5c-0.8,1.2-1.7,2.3-2.7,3.8
		c-2.5-2.7-4.1-1.7-6.1,0.6c-3.8,4.2-6.5,3.6-7.7-1.8c-1.5-6.5-2.5-13.1-3.7-19.7C275.4,460.6,275.9,460.4,276.4,460.3z"/>
	<path class="st1" d="M312.1,361.4c-1.8,2.2-3.8,4.8-6.1,7.2c-0.7,0.7-2.3,0.5-3.6,0.7c-0.8-5.1-5-6.5-10.3-7.9
		C300.1,361.4,306.7,361.4,312.1,361.4z"/>
	<path class="st1" d="M259.1,310.9c2.5,2.7,4.2,4.6,6.2,6.8c-6,3.7-11.7,6.2-17.8,2.8c-2-1.1-3.6-4.3-3.9-6.7
		c-0.1-1.1,3.3-2.9,5.3-3.8c1.9-0.7,3.6,0.1,3.4,2.8c-0.1,1.3-0.3,2.7,0.1,3.8c0.5,1.2,1.7,2.1,2.5,3.1c1-0.9,2.4-1.7,2.9-2.9
		C258.7,315.5,258.6,313.8,259.1,310.9z"/>
	<path class="st1" d="M341.8,318.4c2.9-3,4.7-4.9,7.5-7.8c0.1,2.8-0.1,4.4,0.4,5.7c0.5,1.3,1.9,2.3,2.8,3.5c0.9-1.1,1.8-2.2,2.7-3.4
		c0.2-0.3-0.1-0.9,0.1-1.2c0.5-1.7,1.1-3.4,1.7-5.1c2.4,1,5.1,1.5,6.9,3.1c0.7,0.6,0.1,4.5-1.1,5.3c-2.6,1.7-5.9,3.4-8.9,3.4
		C350.2,321.7,346.6,319.8,341.8,318.4z"/>
</g>
</svg>
