<svg id="Layer_1" data-name="Layer 1" xmlns="http://www.w3.org/2000/svg" xmlns:xlink="http://www.w3.org/1999/xlink" viewBox="0 0 600 600"><defs><style>.cls-1{fill:none;}.cls-2{clip-path:url(#clip-path);}.cls-3{clip-path:url(#clip-path-2);}.cls-4{isolation:isolate;}.cls-5{clip-path:url(#clip-path-3);}.cls-6{clip-path:url(#clip-path-4);}.cls-7{fill:#fff;}.cls-8{clip-path:url(#clip-path-6);}.cls-9{clip-path:url(#clip-path-7);}.cls-10{fill:#f3e305;}.cls-11{clip-path:url(#clip-path-8);}.cls-12{clip-path:url(#clip-path-9);}.cls-13{fill:#e22726;}.cls-14{clip-path:url(#clip-path-10);}.cls-15{fill:#1b181c;}</style><clipPath id="clip-path"><polyline class="cls-1" points="14.5 76.64 585.5 76.64 585.5 523.37 14.5 523.37"/></clipPath><clipPath id="clip-path-2"><rect class="cls-1" x="-593.96" y="-4.13" width="3355.71" height="33736.38"/></clipPath><clipPath id="clip-path-3"><rect class="cls-1" x="14.5" y="76.43" width="572.61" height="447.33"/></clipPath><clipPath id="clip-path-4"><path class="cls-1" d="M178.05,101a27.45,27.45,0,0,1,22.15-9.27c7.86-3.62,16.72-2.21,19.94-.2,0,0,5.64-.2,9.27,1.61a222.15,222.15,0,0,1,141,0c3.63-1.81,9.27-1.61,9.27-1.61,3.22-2,12.28-3.42,19.94.2A27.45,27.45,0,0,1,421.75,101c1.82-4.84,4.64-8.87,11.68-11.28C435.85,76.84,453,71,476.74,82.88c10.67-9.67,26.38.6,31.42,14.5,7.85-2,20.34,5.24,19.54,28.6,8,.4,11.07,8.66,8.86,22.36,4.83-1,28-5.24,44.71,15.71,8.06,10.07,3.42,23-5,29.2-.61,1.61-4,15.51-14.71,21.35-.6,7.05,11.68,22.36,16.52,32.23,13.09,28.2,6.64,75.93-41.9,84.19a38.77,38.77,0,0,1,8.67,14.3,24.27,24.27,0,0,1-3.23,20.14c-4,6.65-18.93,15.91-22.76,20.54,6.85,4,14.91,12.49,11.28,28.2l-13.9,61.63c-2.21,10.07-9.06,18.53-19.93,20.75-5.64,1.21-11.49,0-14.91-1-24.17-6.44-41.69-1.41-68.48,7.25-13.9,4.43-29.2,9.47-47.13,13.29A304.25,304.25,0,0,1,300.1,523a301.42,301.42,0,0,1-65.66-6.85c-18.13-3.82-33.23-8.86-47.13-13.29-26.79-8.66-44.31-13.49-68.48-7.25a34.53,34.53,0,0,1-14.9,1C92.85,494.36,86.2,485.9,84,475.83L70.09,414.2C66.46,398.49,74.52,390,81.37,386c-3.63-4.63-18.73-13.89-22.76-20.54-3.63-6-5.24-12.89-3.22-20.14C57,339.68,62,333,64.05,331c-48.54-8.06-55-55.79-41.9-84C26.79,237,39.27,221.85,38.67,214.8,28,209.16,24.37,195.06,24,193.45c-8.66-6.44-13.3-19.13-5.44-29.2,16.71-21.15,39.88-16.72,44.71-15.71-2.21-13.5.81-21.75,8.86-22.36-.8-23.36,11.69-30.61,19.54-28.6,5-13.9,20.75-24.17,31.42-14.5,24-11.88,40.89-6,43.3,6.85,7,2.42,10.07,6.44,11.69,11.08"/></clipPath><clipPath id="clip-path-6"><path class="cls-1" d="M239.07,490.74c-17.12-3.63-31.62-8.46-44.91-12.69-26-8.46-48.74-15.31-78.75-8.46-6,1.41-8.26,1.41-9.67-4.63L93.25,409.37c-1.21-5.24.4-6.25,5.44-7.46,37.06-7.85,67.47-2.41,98.09,5.24,16.11,4,32,8.66,48.74,12.29,16.92,3.62,34.84,6.44,54.18,6.44a242.51,242.51,0,0,0,54.18-6.44c16.71-3.63,32.63-8.26,48.74-12.29,30.61-7.85,61.23-13.29,98.09-5.24,5,1.21,6.44,2.22,5.43,7.46L493.66,465c-1.41,6.24-3.43,6.24-9.67,4.63-30-7-52.77,0-78.75,8.46-13.3,4.23-27.8,9.06-44.92,12.69a297.62,297.62,0,0,1-121.25,0m-.6-318.43-1.61-1,.4-1.81c1-4.84.4-9.27-7-9.47H228.4l-5.64-17.93,1.61-1.2c5.24-3.63,4-8.26-3-10.68l-1.81-.6v-1.82c0-3,1.81-4.63,3-5.84.4-.2.6-.6,1-.8s.61-.61,1-1a9.46,9.46,0,0,0,1.81-2.62l.41-.8.8-.41a196.68,196.68,0,0,1,72.51-13.49,201.66,201.66,0,0,1,72.51,13.49l.8.41.41.8a29.71,29.71,0,0,0,1.81,2.62l1,1a3.51,3.51,0,0,0,1,.8c1.21,1.21,3,2.82,3,5.84v1.82l-1.82.6c-7.05,2.42-8.26,7-3,10.68l1.61,1.2L371.8,160H370c-7.45.2-8.26,4.63-7.05,9.47l.4,1.81-1.61,1c-2.21,1.41-4.23,6.84-3,10.67l2,5.84-5.64-2.62a128.19,128.19,0,0,0-55-12.48,125.91,125.91,0,0,0-55,12.48l-5.64,2.62,2-5.84c1.21-4-.81-9.47-3-10.67"/></clipPath><clipPath id="clip-path-7"><rect class="cls-1" x="-593.96" y="-6.75" width="3355.71" height="33736.37"/></clipPath><clipPath id="clip-path-8"><path class="cls-1" d="M505.74,224.27l-.6.6a14.36,14.36,0,0,1-9.67,4.23h-3l.2,3c1.21,12.69,8.86,29.81,16.52,38.68,7.85,9.06,11.88,18.73,11.48,27.59l-.21,2.42,2.42.2c14.91,1.41,25.18-5.64,29-15.71,5.64-15.31-5.43-31.83-12.89-43.11-9.86-14.7-8.25-31.62-6-42.09l.4-1.81-1.41-1a10.83,10.83,0,0,1-4.63-9.26,17.71,17.71,0,0,1,5.44-13.3c4.43-4.43,9.47-5,16.31-5,3.43,0,12.09,3.82,14.51,7.45v.4c0,.2-.2.4-.81.81A13.84,13.84,0,0,0,557.1,185c-1,2.22-1.61,4.84-2.62,7.25-1.61,4.23-3.62,7.26-10.47,7.26h-2l-.61,2a46.87,46.87,0,0,0-1.61,10.67,42.2,42.2,0,0,0,6.45,25c1.41,2.22,3.62,5.44,5.84,9.06a102.9,102.9,0,0,1,6.24,11.28c9.67,20.75,3.22,46.13-20.34,53.38a48.89,48.89,0,0,1-21.15.8l-1.41-.2-1,1.21c-.6.6-1,1.21-1.61,1.81-.8.81-2,1.81-3.22,2.82l-.61.4-.2.81c-2,6.65-1.41,14.3,5.24,22,2.62,3,5,5.44,6.65,7.66a15.88,15.88,0,0,1,3,4.83c.4,1.61.2,3.63-6.25,8.26-16.31,11.68-23,21.75-26.58,28.8-1.61,3.22-2.62,5.84-3.63,7.65-.8,1.21-1.21,1.41-2,1.41-3.22-.2-7.86-.6-11.48-2.21l-2.22-.81-1.21,2c-2,3.42-10.47,4.23-13.89,2l-1.21-.8-1.21.4c-6.85,2.62-11.68,2.21-14.5,1.41a10.58,10.58,0,0,1-3-1.41,3.12,3.12,0,0,0-.61-.4c-12.28-1-13.29-13.5-7.85-20.35a15.52,15.52,0,0,1,12.69-6c5.23,0,30.21-15.51,30.21-23.77a5.36,5.36,0,0,0-2.22-4,18,18,0,0,0-3.82-2.62c-2.82-1.61-6.65-3.63-10.28-6-7.45-4.84-13.89-11.08-13.89-19.94,0-7.26,2-19.74,22.55-19.74h2.62v-2.62c0-14.7-14.9-29.41-22.15-34.85a31.19,31.19,0,0,1-9.27-11.68l-.4-1-1-.41c-7.65-2.62-14.3-11.28-20.74-21.14-3.23-5-6.05-10.08-8.87-14.51s-5.43-8.66-8.25-11.48l-.81-.8h-1.21c-3.42,0-7.65-1.21-11.28-2.62l-1.41-.61-1.2.81c-6.45,4.43-13.7,1.61-13.9-2.22l-.2-2.41h-2.42c-3.63,0-5.24-2.22-5.44-5.64-.2-3.83,1.61-7.45,3.43-8.46l1.61-1-.41-1.81c-1-4.63-2.82-18.33,36.26-1.21,1,.4,2.21,1,3.42,1.61l5,2.42-1.21-5.44c-1.61-6.85-4.63-13.29-11.08-18.73L393,151.76l-1.61.81a7.07,7.07,0,0,1-6.65,0,19.46,19.46,0,0,1-4-2.62c-1.62-1.21-3.43-2.42-5.44-3.83-5.44-3.82-4.23-8.46,2.82-10.87l1.81-.61v-1.81a5.62,5.62,0,0,0-1.21-3.63c-.4-.4-.6-.8-1-1.21l-1-1c-.41-.2-.61-.61-1-1l-1-1a16.84,16.84,0,0,1-1.81-2.82c-2-4,2.62-8.66,8.26-6.24l3.62-2a.87.87,0,0,1,.61-.21,6.71,6.71,0,0,1,3.62-.4c3.43,0,5.84,1.21,6.25,1.81h4.43c-.2,0-.2.21-.4.41a1.55,1.55,0,0,0,.6-.2,7.51,7.51,0,0,1,2.62.4c2.21,1,5.64,3.62,8.26,10.27l.8,2.22,2.22-.61a33.6,33.6,0,0,1,5.84-1.21c1.21-.2,5.84-.4,6.85-.6a8,8,0,0,0,3.22-1.41c.8-.6,1.41-1.41,2-1.81l.81-.81.8-.8a6.09,6.09,0,0,1,1.41-1,37,37,0,0,1,4-.61l3-.4-.8-2.82c-.2-.8-.41-1.81-.61-2.82,0-.4-.2-.8-.2-1.21v-.4c.2-.4.61-1,2.62-1.61s4.23-1,5.64-1.41c.81-.2,1.81-.6,2.62-.81a16.4,16.4,0,0,0,2.62-1.41,4.89,4.89,0,0,0,1.61-6.24,13.14,13.14,0,0,1,2.21.4,24.82,24.82,0,0,1,5.44,1.61,8.14,8.14,0,0,1,1.81.81.2.2,0,0,1,.21.2,1.5,1.5,0,0,1-.21.81c-.2.6-3,5.64-3,5.64s5.44-.61,6-.61a12.44,12.44,0,0,1,2.62.2,28.47,28.47,0,0,0,3.83.61,8.26,8.26,0,0,0,3.83,0,4.28,4.28,0,0,0,3.42-3.43,8.7,8.7,0,0,0,0-3.22,20.48,20.48,0,0,1,3.83,1.21c4.43,2,6,4.63,5.44,6.44a9,9,0,0,1-2.62,2.82l-3,2,3.22,2.42c.2.2.4.2.6.6a12.37,12.37,0,0,1,1.82,2.42c1.81,3.42,5.84,2.21,7.45,1.41a9.1,9.1,0,0,0,4-5.24c2,2.22,4,5.84,4.23,8.46.2,2.21-.41,4.83-1.41,5.64a14.35,14.35,0,0,1-2.82.6l-3.83.41s2,3.82,2.21,4.63a16.36,16.36,0,0,1,.41,3.83c-.2,4.43,4,5.23,6.24,4.83a9.05,9.05,0,0,0,5.24-2.82,6.46,6.46,0,0,1,.6,1.21c1.21,2.82,1.82,6.64,1,9.46a8.74,8.74,0,0,1-3.42,4h-1a3.45,3.45,0,0,1-1.41-.2c-.61,0-1.21-.2-1.61-.2-2.42.2-3,1.61-2.82,3.22,0,.61.2,1.21.2,1.81a12.67,12.67,0,0,1-.2,2.42c-.61,8.06,6.24,8.06,10.87,5.64a13.94,13.94,0,0,1,.21,4.23,14.12,14.12,0,0,1-1.21,6c-.81,1.61-1.61,2.22-2.42,2.42-1.81.4-2.62,0-2.82-.2-3.42-1.81-4.43-.61-4.83,1.41,0,.4-.21.6-.21,1.21a9.2,9.2,0,0,0-.6,1.81c-2,4-.2,7.25,3.42,8.06a10.17,10.17,0,0,0,5.44-.41,15,15,0,0,1-.6,3.83c-1.21,4.23-3.43,6.85-6.45,6.45a.61.61,0,0,1-.4-.21c-.4-.2-.6-.4-1-.6-.4-.4-1-.6-1.41-1a4.3,4.3,0,0,0-2.41-.6,3.39,3.39,0,0,0-3,2.62,9.66,9.66,0,0,0-.41,2.41,22.26,22.26,0,0,0,.2,6.25,19.65,19.65,0,0,0,2,6.64,6.79,6.79,0,0,0,6,4c1.21-.6,1.41-.4,1.61-.4M143.6,99.39a4.78,4.78,0,0,0,1.82,6,17.18,17.18,0,0,0,2.62,1.41,10,10,0,0,0,2.61.8c1.41.41,3.63.81,5.64,1.41s2.42,1.21,2.62,1.61v.41a2.54,2.54,0,0,1-.2,1.2c-.2,1-.4,2-.6,2.82l-.81,2.82,3,.41c2.42.4,3.83.6,4,.6a3.64,3.64,0,0,1,1.41,1c.2.2.6.4.81.8l.8.81a18.22,18.22,0,0,0,2,1.81,6.8,6.8,0,0,0,3.23,1.41c1,.2,5.64.41,6.85.61a33.92,33.92,0,0,1,5.84,1.2l2.21.61.81-2.22c2.82-6.64,6-9.46,8.26-10.27a4.55,4.55,0,0,1,2.61-.4.74.74,0,0,1,.61.2c0-.2-.2-.2-.4-.4h4.43c.4-.61,2.82-1.82,6.24-1.82a15.09,15.09,0,0,1,3.63.41,2.48,2.48,0,0,1,.6.4c9.47-.6,13.9,4,11.88,8.06a17.27,17.27,0,0,1-1.81,2.82c-.4.4-.6.8-1,1l-1,1c-.41.4-.81.6-1,1a5.19,5.19,0,0,0-1,1.21,7.07,7.07,0,0,0-1.21,3.62v1.81l1.82.61c7.05,2.62,8.25,7.25,2.82,10.87-2,1.41-3.83,2.62-5.44,3.83a26,26,0,0,1-4,2.62,6.11,6.11,0,0,1-6.65,0l-1.61-.81L204.63,152a34,34,0,0,0-11.08,18.73l-1.2,5.44,5-2.41c1.21-.61,2.22-1,3.43-1.62,39.27-17.12,37.26-3.22,36.25,1.21l-.4,1.82,1.61,1c1.81,1,3.42,4.63,3.42,8.46-.2,3.43-1.61,5.64-5.44,5.64H234l-.2,2.42c-.41,3.82-7.46,6.64-13.9,2.21l-1.21-.8-1.41.6c-3.62,1.41-7.85,2.62-11.28,2.62h-1.21l-.8.81c-2.82,2.82-5.44,7-8.26,11.48s-5.64,9.66-8.86,14.5c-6.45,10.07-13.09,18.53-20.75,21.15l-1,.4-.41,1a31.34,31.34,0,0,1-9.26,11.68c-7.25,5.64-22.16,20.34-22.16,34.84v2.62H136c20.34,0,22.56,12.49,22.56,19.74,0,9.06-6.45,15.1-13.9,19.94-3.83,2.42-7.45,4.43-10.27,6a31.73,31.73,0,0,0-3.83,2.62,5.39,5.39,0,0,0-2.21,4c0,8.26,25,23.76,30.21,23.76A15.32,15.32,0,0,1,171.2,378c5.44,6.84,4.43,19.33-5.84,19.33h-1l-1,1c-.2.2-.4.2-.6.4a10.72,10.72,0,0,1-3,1.41c-2.82.81-7.46,1.21-14.5-1.41l-1.21-.4-1.21.8c-3.43,2.22-11.88,1.62-13.9-2l-1.21-2-2.21.8A39.88,39.88,0,0,1,114,398.09c-.81,0-1.41-.2-2-1.41-1-1.82-2-4.43-3.62-7.66-3.63-7-10.27-17.12-26.59-28.8-6.44-4.63-6.65-6.64-6.24-8.26a15.91,15.91,0,0,1,3-4.83c1.81-2.22,4-4.63,6.64-7.65,6.65-7.66,7.46-15.51,5.24-22l-.2-.8-.6-.41c-1.21-1-2.22-2-3.23-2.82a12.54,12.54,0,0,1-1.61-1.81l-1-1.21-1.41.2a48.55,48.55,0,0,1-21.15-.8c-23.57-6.45-30-32-20.35-52.57A124.15,124.15,0,0,1,47.13,246c2.21-3.62,4.43-6.85,5.84-9.06a42.13,42.13,0,0,0,6.44-25,46.87,46.87,0,0,0-1.61-10.67l-.6-2h-2c-6.64,0-8.86-3-10.47-7.25-1-2.41-1.61-5-2.62-7.25a12.64,12.64,0,0,0-5.64-6.64c-.6-.41-.8-.61-.8-.81v-.4c2.41-3.83,11.08-7.45,14.5-7.45,7.05,0,11.88.6,16.31,5a17.89,17.89,0,0,1,5.44,13.29,10.85,10.85,0,0,1-4.63,9.27l-1.41,1,.4,1.81c2.22,10.67,3.83,27.39-6,42.09-7.45,11.28-18.53,27.8-12.89,43.11,3.63,10.07,14.1,17.12,29,15.71l2.42-.21L79,298c-.4-8.87,3.63-18.53,11.48-27.6,7.66-8.86,15.31-26,16.52-38.67l.2-3h-3c-3.63.2-7.66-2-9.67-4.23l-.6-.6h.8c3,0,4.84-2,6-4a25.59,25.59,0,0,0,2-6.65,19.3,19.3,0,0,0,.2-5.84,8.81,8.81,0,0,0-.4-2.42,3.41,3.41,0,0,0-3-2.61,7.05,7.05,0,0,0-2.42.6,5.89,5.89,0,0,0-1.41,1c-.4.2-.61.4-1,.6a.62.62,0,0,1-.4.2c-3,.2-5.24-2.21-6.45-6.44a15,15,0,0,1-.6-3.83,10.16,10.16,0,0,0,5.44.4c3.62-.8,5.44-3.82,3.42-8.05a3.86,3.86,0,0,1-.6-1.82,2.54,2.54,0,0,1-.2-1.2c-.41-2-1.41-3.23-4.84-1.41-.2.2-1,.4-2.82.2-.8-.2-1.61-.81-2.42-2.42a14.15,14.15,0,0,1-1.2-6,27.25,27.25,0,0,1,.2-4.23c4.43,2.42,11.48,2.42,10.87-5.64,0-1-.2-1.81-.2-2.42a6.23,6.23,0,0,1,.2-1.81c.21-1.61-.4-3-2.82-3.22a5.06,5.06,0,0,0-1.61.2H88a7.78,7.78,0,0,1-3.42-4c-.8-2.82-.2-6.65,1-9.47l.6-1.2a9.62,9.62,0,0,0,5.24,2.81c2.21.41,6.44-.4,6.24-4.83a15.19,15.19,0,0,1,.41-3.83c.2-.6,2.21-4.63,2.21-4.63l-3.83-.4a13.7,13.7,0,0,1-2.82-.61c-1-.8-1.61-3.42-1.41-5.63.21-2.62,2.22-6.25,4.23-8.26a8,8,0,0,0,4,5c1.61,1,5.64,2.22,7.45-1.41a6.16,6.16,0,0,1,1.82-2.41l.6-.61c0-4.43-2-5.84-2.42-7.45-.6-1.81,1-4.43,5.44-6.45a20.36,20.36,0,0,1,3.83-1.2,8.7,8.7,0,0,0,0,3.22,4.28,4.28,0,0,0,3.42,3.42,12.28,12.28,0,0,0,3.83,0c1.21-.2,2.42-.4,3.83-.6a13.41,13.41,0,0,1,2.62-.2c.6,0,6,.6,6,.6s-2.62-4.83-3-5.64a1.51,1.51,0,0,1-.2-.8h.2a6.73,6.73,0,0,1,1.81-.81,42.71,42.71,0,0,1,5.44-1.61,10.17,10.17,0,0,1,2.41-.61"/></clipPath><clipPath id="clip-path-9"><rect class="cls-1" x="-593.96" y="-2.32" width="3355.71" height="33736.38"/></clipPath><clipPath id="clip-path-10"><path class="cls-1" d="M46.93,189.43c1.81,4.83,3,6.24,12.08,6a55.42,55.42,0,0,1,2.62,14.7c.4,11.48-2.42,19.34-6.65,26.39-1.41,2.21-3.62,5.43-5.84,9.06a82.5,82.5,0,0,0-6,10.88c-9.26,19.73-2.82,43.3,18.93,50.15a46.6,46.6,0,0,0,17.93,1,19.19,19.19,0,0,1-2.42-6.44c-15.91,1.61-27.79-5.64-32-17.12-3.23-8.46-1.61-17.12,1.61-24.78,3-7.65,7.65-14.7,11.48-20.54,9.26-13.9,8.06-30.41,4.83-44.31,3-1.61,6.25-2.82,6.25-8.46,0-4-.81-8.06-4.64-11.48-8.25-7.85-21.35-2.82-26,.61a15.43,15.43,0,0,1,5,6.64C45.32,184.19,45.92,186.81,46.93,189.43Zm108,49.95a9.26,9.26,0,0,0,6.85,2.61c6.85,0,13.7-6.44,21-17.72,3.62-5.24,6.85-11.08,9.87-16.11s6.24-10.07,9.46-13.5l1.61-1.81c6,.8,15.31-3.42,15.31-3.42l2.42,1.61a11.09,11.09,0,0,0,7.05,1.61A2.66,2.66,0,0,0,231,190c.4-2.82-2-4.83-3.63-5.64-3.22-1.61-.8-6.24,2.22-4.83,0,0,3.62,1.41,6,6.44,2.62.2,2.82-1.21,3-2.82.4-3.22-1.61-8.66-10.07-8.66-3.42.2-3.83-5-.4-5.24a16.61,16.61,0,0,1,6,.81c.4-2.42-.61-3.63-1.61-4-3-1.21-11.28-1.21-31,7.45-4.43,2-13.7,7.66-22.76,10.88,2,2.42,5,3.63,8.06,1.21,4.83-3.83,3.82,16.11-3.63,17.32a6.76,6.76,0,0,1-4.83-1.21,20.88,20.88,0,0,1-1,3.83c-1.61,3.22-1,7.05,4.23,6.64,0,6.25-5.44,14.91-14.5,11.69-6.45-2.22-3.83-11.89-10.88-10.68-.2,0-1,3.43-.6,7.86,1,13.09,6.24,10.07,6.65,11.48C163.34,235.55,159.52,238.57,154.88,239.38Zm5.64,7.85c-7.05-.4-10.87-4-12.89-8.66-3.82-1.41-6.85-4.83-7.45-11.08C139.58,221.65,143,214,137,214c-1,0-2,4.63-2.62,6.85-3,14.09,3.83,10.27,1.21,13.29-4.43,5-19.34,4-17.73-10.68.41-4.23,4.64-12.08.2-12.08-3,0-2.61,11.28-8,16.11-.4,14.91-9.87,34.44-17.32,42.9C80,284.89,78.15,300,88.42,310.27c1.41,1.41,3.62,3.22,5.64,5a55.38,55.38,0,0,1,6.85,6.85c4.22,5.43,7.45,13.49.2,21.34-1.82,1.82-3.23,3.63-4.64,5.24-3.22,3.63-1,4.84,1.82,6.85,12.08,8.46,19.13,15.91,24,22.56a56.32,56.32,0,0,1,5.44,9.06c1.21,2.62,2.42,5,3.43,7.25.8,1.41,7,3.63,11.68,0A14.53,14.53,0,0,0,140,385.6c-2-3,2.42-6.24,4.63-3.22,2.42,3.42,4.43,8.86,3.83,13.29,5,1.81,9.26,1.61,12.69-.4.6-5.24-.81-8.86-2.62-11.28-2.22-3,2.21-6.25,4.43-3.43a22,22,0,0,1,4,12.49c3-.4,4-2.21,4.43-4.63A14.54,14.54,0,0,0,169,378.35a12.65,12.65,0,0,0-10.27-4.83c-5.84,0-33-16.12-33-26.59,0-3.22,2.21-5.24,3.22-6.24a20.51,20.51,0,0,1,4.23-3c2.82-1.61,6.45-3.62,10.27-6,7.45-4.83,12.69-10.07,12.69-17.52,0-6.45-2-15.31-15.31-16.52-2.82-.2-12.48-1.21-18.73,2-3.22,1.61-6.24-2.42-3.22-4.43,0,0,3.42-2.42,12.09-3.43,0-16.11,15.91-31.62,23.36-37.06A35.53,35.53,0,0,0,160.52,247.23ZM94.06,322.56c.2,5.64-1.82,11.68-7,17.72-2.62,3-5,5.44-6.65,7.66-3.22,4-3.42,4.63,2.82,9.26,16.72,12.09,23.57,22.16,27.39,29.81,2.42,5,3.23,7.85,4.23,7.85a42.46,42.46,0,0,0,6.45-1,10.68,10.68,0,0,0,3-1c-3.83-8.26-9.47-18.73-28.8-32.23-10.68-7.45-5.44-12.28,2-20.34C103.32,333.64,99.29,327.59,94.06,322.56Zm88.62-163.15H165.56V146.12s13.69,0,17.72-.4a12.63,12.63,0,0,1,4.63.2c.21,0,1,0,1-.4a54.91,54.91,0,0,0,.2-7.66,12.27,12.27,0,0,0,3-8.25A55.76,55.76,0,0,0,179.05,126c-1.41-.2-5.84-.4-6.85-.6a9.32,9.32,0,0,1-4-1.61c-.81-.61-3.23-3.83-4.64-4.23-10.07-2.42-21.14-1.21-23.76-.81a5.77,5.77,0,0,0-4.23,3.83,48,48,0,0,0-7.66.4c-2,.4-2.82.6-2.82,1.81,0,2.42,5.85,6,5.85,6a87,87,0,0,1-3.43,13.1c-.4,1.41-.4,2.41.61,5,1.61,3.63,5.43,5.64,10.67,6.45,3.83.6,8.66,6.64,11.08,7.65,1.41.6,10.67.4,14.1.4,7.05-.2,14.3-.8,16.71-1.41C181.67,162,182.28,160.42,182.68,159.41ZM168,168.28c-8.45.4-17.92.6-20.34-.61-4.83-2.62-7.45-6.64-9.87-7.25-5.43-1-11.68-3.22-14.3-9.26-3-7,0-8.66,2-17.93-6.85-5.24-6.45-10.07-3-13.09,1.41-1.21,6-2,10.27-2,1.21-4.84,13.49-5,22.56-4.44.2-.8.4-1.61.6-2.21.4-1.21.4-1.61-1.61-2a30.42,30.42,0,0,1-9.67-3.23c-2.62-1.41-4-4-3.62-5.44.6-1.41-3.83,0-4.44.81-.8,1.41,3,7,3,7a79.52,79.52,0,0,0-8.46-.2c-4.64.2-7.46,1.41-10.68,1-3.82-.41-6-3.43-5.84-5.64.2-1.41-5,2.41-4.83,3.82.2,1.21,1.81,3.22,6.24,6-7.45,4.44-5.64,9.67-12.08,9.87-1.82,0-7.05-1.41-7.46-4-.4-1.62-3.82,4.43-1.81,7.65,1,1.61,2.22,1.41,7.65,1.81a17.45,17.45,0,0,0-2.41,9.87c0,3.43-1,4.63-3.83,6.24-1.81,1.21-6.24,1.82-8.86-.8-.81-.81-1.41,4.83-.81,6.44s1.61,2.42,4.23,2.42c4-.2,6.25-1,6.25-.2a74.69,74.69,0,0,0,.2,11.28c.4,6.24-6.45,9.06-11.08,6.65-1.21-.61,0,7.45,2.22,7.65,4.23.4,8-3.42,8.25-2.22,1,6.45,2.42,7,2.82,10.28,1,7.25-6.24,9.26-8.66,8-1.81-.8.61,7.05,4.23,5.64,1.21-.6,3-2,4.64-2,2.61,0,4.22,1,5.43,4.43.61,1.81.81,5.64.2,9.46a20,20,0,0,1-2.21,7.26,7,7,0,0,1-3.63,3.22c-2.41.6,4,3.62,7.25,1.61,2.62-1.41,4.44-11.28,5-12.49,1.61-3.82,4.23-5,6.44-5a6.71,6.71,0,0,1,6.65,5,9.6,9.6,0,0,1-.2,5.44c-.2,1.41-1.61,6.24-1.81,7.05-1.82,8.66,7.65,8.86,6.64,7.85-1.41-1.61-1.2-6.64,0-12.08a35.43,35.43,0,0,1,2.42-7.45,6.47,6.47,0,0,1,5.24-3.43c7.45,0,8.66,5.84,8.66,9.27,0,1.41-.4,7.45-.4,8.66,0,10.07,12.89,7.45,10.67,6.44-2.62-1.2-4-5-4.83-12.48-.61-6.05,1-12.29,1.61-12.49,5.23-1.61,10.47-1.81,13.69,4.63.81,1.61,1.61,4.43,2.62,5.24,2.22,1.81,6.45,0,7.45-2.82-4.83-1.41-5-8.26-2.82-12.69a31.61,31.61,0,0,0,2.42-8.06c.81.81,5.24,4,7.45,3.43,1.61-.61,3.43-7.66,1.61-6.65-3.82,2-8.25-2.62-9.86-4.83a14.38,14.38,0,0,1-3-8.46C172,175.13,171.6,171.1,168,168.28Zm22.56,4.83c1.21-8.66,4.23-17.12,12.69-24.37l2.62-2.42,3.22,1.61c1.82.81,2.62.81,4.23,0a34.07,34.07,0,0,0,3.83-2.41,45.13,45.13,0,0,1,5.64-3.83c4-2.62,2.42-4.63-2-6.24L216.92,134v-3a10,10,0,0,1,4-8.46c.4-.41,4-3.23,3.42-5.24-.6-2.42-5.64-1.61-5.64-1.61-2.21.6-4,4-4.83,5.64-1.41,3.42-6.65,1.21-5-2.22a23.28,23.28,0,0,1,3.43-5.44c-.21-1.2-4.64-.8-6,.21a19.16,19.16,0,0,0-2.62,5.43c-.6,3.63-6,2.62-5.43-1a17.7,17.7,0,0,1,1.21-3.23c-2.62-.2-5.64,3-8.26,8.87,2,.6,3.82,1.41,5.64,2A15.57,15.57,0,0,1,194,139.07c0,5,.4,12.29-5.44,11.48a36.32,36.32,0,0,0-4.63-.4c-4.23.6-10.48.4-13.5.4v3.83h17.32c1.82,1.81-1.21,11.28-6,12.29-1.41.2-4,.6-7.25.8,2.42,3.83,2.62,8.66,3,11.48A110.73,110.73,0,0,0,190.53,173.11Zm218.94,0a130.22,130.22,0,0,0,13.09,6.24c.2-2.82.6-7.65,3-11.48-3.22-.2-5.84-.6-7.25-.8-4.83-.81-7.86-10.27-6-12.29h17.32V151c-3,0-9.27,0-13.5-.41a17.75,17.75,0,0,0-4.63.41c-5.64.8-5.44-6.45-5.44-11.48-2.82-3.43-3.62-8.46-2.82-13.1a47.42,47.42,0,0,1,5.64-2c-2.62-5.84-5.64-9.06-8.26-8.86a17.46,17.46,0,0,1,1.21,3.22c.61,3.63-4.83,4.63-5.43,1a12.32,12.32,0,0,0-2.62-5.44c-1.41-1-6.05-1.41-6.05-.2a23.07,23.07,0,0,1,3.43,5.44c1.41,3.42-3.63,5.43-5,2.21-.6-1.61-2.41-5-4.83-5.64,0,0-5-.8-5.64,1.61-.6,2,3.22,5,3.42,5.24a9.78,9.78,0,0,1,4,8.46v3l-3.82,1.41c-4.44,1.41-6.05,3.42-2,6.24,2,1.41,3.83,2.82,5.64,3.83a18.84,18.84,0,0,0,3.83,2.42c1.61.8,2.41.8,4.23,0l3.22-1.61,2.62,2.41C405.24,156,408.26,164.45,409.47,173.11Zm22.35-4.83c-3.62,2.82-3.82,7.05-4,10.27a15,15,0,0,1-3,8.46c-1.61,2.21-6.24,6.85-9.86,4.83-1.82-1,0,6,1.61,6.65,2.21.8,6.64-2.62,7.45-3.43a31.61,31.61,0,0,0,2.42,8.06c2.21,4.43,2,11.28-2.62,13.09,1,2.82,5.23,4.64,7.45,2.82,1-.8,1.81-3.62,2.62-5.23,3.22-6.45,8.46-6.25,13.69-4.64.41.2,2.22,6.25,1.62,12.49-.81,7.45-2.42,11.48-4.84,12.49-2.21,1,10.68,3.62,10.68-6.45,0-1.21-.41-7.25-.41-8.66,0-3.42,1-9.26,8.66-9.26a6.45,6.45,0,0,1,5.24,3.42c1,1.61,2,6,2.42,7.45,1.21,5.44,1.41,10.48,0,12.09-1,1,8.46.8,6.64-7.86-.2-.8-1.61-5.84-1.81-7.05a15.57,15.57,0,0,1-.2-5.43,6.71,6.71,0,0,1,6.65-5c2.21,0,4.83,1.21,6.44,5,.61,1.41,2.42,11.07,5,12.48,3.22,1.82,9.66-1,7.25-1.61a7,7,0,0,1-3.63-3.22,24.85,24.85,0,0,1-2.21-7.25,27.93,27.93,0,0,1,.2-9.47c1-3.42,2.82-4.43,5.44-4.43,1.61,0,3.42,1.61,4.63,2,3.62,1.41,6-6.45,4.23-5.64-2.62,1-9.67-.81-8.66-8.06.4-3,1.81-3.83,2.82-10.27.2-1,4,2.62,8.26,2.21,2.21-.2,3.42-8.25,2.21-7.65-4.63,2.42-11.48-.4-11.08-6.65.41-5.84.2-9.26.2-11.28,0-.8,2.22,0,6.25.21,2.62,0,3.62-.81,4.23-2.42s0-7.25-.81-6.45a7.71,7.71,0,0,1-8.86.81c-2.62-1.61-3.83-2.82-3.83-6.24,0-3.63-.4-5.64-2.41-9.87,5.43-.41,6.44-.21,7.65-1.82,2-3-1.41-9.26-1.81-7.65-.61,2.82-5.64,4.23-7.45,4-6.45-.2-4.64-5.44-12.09-9.87,4.23-2.82,6-4.84,6.24-6,.21-1.61-5-5.24-4.83-3.83.2,2.22-1.81,5.24-5.84,5.64-3.22.4-6-.81-10.68-1a79.29,79.29,0,0,0-8.45.2s3.82-5.64,3-7.05c-.41-.8-4.84-2.41-4.43-.8.4,1.41-1,4-3.63,5.44a30.42,30.42,0,0,1-9.67,3.22c-2,.4-2,.8-1.61,2,.2.61.4,1.41.61,2.22,9.06-.61,21.35-.4,22.55,4.43,4.23,0,8.87.81,10.28,2,3.42,2.82,3.62,7.86-3,13.1,1.82,9.46,5,10.87,2,17.92-2.62,6-8.66,8.26-14.3,9.27-2.42.4-5,4.63-9.87,7.25C450,168.68,440.28,168.68,431.82,168.28Zm-14.7-8.87c.4,1,1.21,2.62,2,2.82,2.42.61,9.67,1,16.72,1.41,3.63.21,12.69.21,14.1-.4,2.42-1,7.25-7.05,11.08-7.65,5.23-.81,9.06-2.82,10.67-6.45,1.21-2.62,1.21-3.82.61-5A86.68,86.68,0,0,1,468.88,131s6.05-3.83,5.84-6.05c0-1.41-.8-1.41-2.82-1.81a49,49,0,0,0-7.65-.4,5.44,5.44,0,0,0-4.23-3.83,68.23,68.23,0,0,0-23.77.61c-1.2.2-3.82,3.62-4.63,4.23a8.09,8.09,0,0,1-4,1.61c-1,.2-5.64.6-6.84.6a56,56,0,0,0-13.1,3.63,12.25,12.25,0,0,0,3,8.25,53.33,53.33,0,0,0,.2,7.66c0,.4.6.6,1,.4a19.7,19.7,0,0,1,4.64-.2c4,.4,17.72.4,17.72.4v13.29Zm88.82,163.15c-5.23,5.23-9.26,11.28-3.42,17.52,7.45,8.06,12.69,12.89,2,20.34-19.53,13.5-25,24.17-28.8,32.23a28.58,28.58,0,0,0,3,1,46.61,46.61,0,0,0,6.45,1c1,0,1.61-2.82,4.23-7.85,3.82-7.45,10.67-17.73,27.39-29.81,6.24-4.43,5.84-5.24,2.82-9.27-1.81-2.21-4-4.63-6.65-7.65C507.76,334.24,505.74,328.2,505.94,322.56Zm-66.46-75.33a26.16,26.16,0,0,0,6.64,7.25c7.25,5.64,23.17,21,23.37,37.06,8.66.81,12.08,3.42,12.08,3.42,3,2.22,0,6.25-3.22,4.44-6.24-3.23-15.91-2.22-18.73-2-13.29,1.21-15.31,10.07-15.31,16.52,0,7.45,5.24,12.89,12.69,17.52,3.83,2.42,7.45,4.43,10.27,6a20.85,20.85,0,0,1,4.23,3c1,1,3.22,3,3.22,6.25,0,10.67-27.19,26.58-33,26.58a12.29,12.29,0,0,0-10.27,4.84A14.54,14.54,0,0,0,429,388.22c.41,2.21,1.41,4.23,4.43,4.63a20.59,20.59,0,0,1,4-12.49c2.22-3,6.65.41,4.43,3.43-1.81,2.21-3.22,6-2.61,11.28,3.42,2,7.65,2.21,12.68.4-.6-4.23,1.41-9.87,3.83-13.29,2-3,6.65.2,4.63,3.22a14.13,14.13,0,0,0-2.82,8.86c4.44,3.63,10.88,1.41,11.69,0,1.2-2.22,2.21-4.63,3.42-7.25a76.07,76.07,0,0,1,5.44-9.06c4.83-6.65,11.88-14.1,24-22.56,2.82-2,5-3.22,1.81-6.85-1.41-1.61-3-3.22-4.63-5.24-7.25-7.85-4-16.11.2-21.35a43.81,43.81,0,0,1,6.85-6.84c2-1.82,4.23-3.43,5.64-5,10.27-10.07,8.45-25.18-4.23-39.88-7.46-8.46-16.92-28-17.33-42.9-5.43-4.63-5-16.11-8.05-16.11-4.23,0-.2,7.85.2,12.08,1.61,14.71-13.29,15.71-17.72,10.68-2.62-3,4.22.6,1.2-13.3-.4-2.21-1.61-6.84-2.61-6.84-6.05,0-2.62,7.65-3.23,13.49-.6,6.24-3.82,9.67-7.45,11.08C450.35,243.4,446.53,247,439.48,247.23Zm5.64-7.85c-4.64-.81-8.46-3.63-7.86-6.85.2-1.41,5.44,1.61,6.65-11.48.4-4.43-.4-7.86-.61-7.86-7.05-1.21-4.43,8.46-10.87,10.68-9.07,3.22-14.5-5.44-14.5-11.69,5.23.21,5.84-3.62,4.23-6.64a20.88,20.88,0,0,1-1-3.83,7.25,7.25,0,0,1-4.83,1.21c-7.46-1-8.46-21.15-3.63-17.32,3,2.42,6,1,8.06-1.21-8.87-3.42-18.33-9.06-22.76-10.88-19.74-8.66-28-8.66-31-7.45-1,.4-2,1.61-1.61,4a16.59,16.59,0,0,1,6-.81,2.63,2.63,0,1,1-.4,5.24c-8.46,0-10.27,5.64-10.07,8.66.2,1.61.4,3,3,2.82a14,14,0,0,1,6-6.44c3.22-1.62,5.44,3.22,2.22,4.83-1.62.81-4,2.82-3.63,5.64a3,3,0,0,0,2.62,2.62,10,10,0,0,0,7.05-1.61l2.42-1.61s9.26,4.22,15.3,3.42l1.61,1.81c3.23,3.43,6.45,8.46,9.47,13.5s6.24,10.67,9.87,16.11c7.45,11.08,14.3,17.72,20.95,17.72A11.46,11.46,0,0,0,445.12,239.38Zm108-49.95c1-2.42,1.61-5,2.62-7.46a15.43,15.43,0,0,1,5-6.64c-4.64-3.43-17.73-8.46-26-.61a14.9,14.9,0,0,0-4.63,11.48c0,5.64,3.22,6.85,6.25,8.46-3.23,13.9-4.44,30.21,4.83,44.31,3.83,5.84,8.46,12.89,11.48,20.55s4.63,16.31,1.61,24.77c-4.23,11.48-15.91,18.93-32,17.12a35.65,35.65,0,0,1-2.42,6.45,46.58,46.58,0,0,0,17.93-1c21.75-6.85,28-30.42,18.93-50.15-1.81-3.63-4-7.46-6-10.88-2.22-3.63-4.43-6.85-5.84-9.06a43.53,43.53,0,0,1-6.65-26.39,63.1,63.1,0,0,1,2.62-14.7C549.85,195.67,551.06,194.26,553.07,189.43ZM299.9,497a282.71,282.71,0,0,0,60.22-6.24c17.12-3.63,31.42-8.46,44.71-12.69,26-8.46,49.55-15.71,80.17-8.46,5.43,1.41,5.43,1.41,6.44-2.62l12.49-55.59c.8-3.22.8-3.22-3.43-4.23-36.45-7.85-66.46-2.42-96.87,5.24-16.12,4-32,8.66-48.75,12.48a235.85,235.85,0,0,1-109.56,0c-16.72-3.62-32.63-8.25-48.74-12.48C166,404.73,136,399.3,99.7,407.15c-4,1-4,1-3.43,4.23L108.76,467c.81,4,1,4,6.45,2.62,30.81-7.25,54.17,0,80.16,8.46,13.29,4.23,27.59,9.06,44.71,12.69A275.84,275.84,0,0,0,299.9,497ZM236.45,414.8c-39.27-22.15-65.86-64-65.86-112.18a128.17,128.17,0,0,1,53.78-104.53,17.42,17.42,0,0,1-6-2.42c-3.63,1.41-8.26,2.82-12.09,2.82C196.37,208.76,184.69,240,168,246.22a35.41,35.41,0,0,1-10.07,12.89c-7.25,5.64-21.14,19.54-21.14,32.83,22.55,0,25.17,14.3,25.17,22.36,0,20.95-30.41,27.39-30.41,32.83,0,6,23,21.15,27.59,21.15a17.6,17.6,0,0,1,14.71,7.05c4.63,5.84,6.44,20.54-4.23,23.16C192.14,402.32,213.7,409.16,236.45,414.8Zm193-112.18c0,48.14-26.59,90-65.86,112.18,22.75-5.43,44.31-12.28,67.07-16.31-10.68-2.62-8.87-17.32-4.23-23.16a17.94,17.94,0,0,1,14.7-7.05c4.63,0,27.59-15.11,27.59-21.15,0-5.44-30.41-11.88-30.41-32.83,0-7.85,2.62-22.36,25.18-22.36,0-13.29-13.9-27.19-21.15-32.83a35.41,35.41,0,0,1-10.07-12.89c-16.92-6.24-28.4-37.46-38.27-47.73-3.83,0-8.46-1.41-12.09-2.82a15.93,15.93,0,0,1-6,2.42A128.53,128.53,0,0,1,429.41,302.62Zm-246.93,0c0,64.45,52.56,116.82,117.42,116.82s117.42-52.37,117.42-116.82S364.75,185.8,299.9,185.8,182.48,238,182.48,302.62ZM381.07,150.55l-3.22,10.27a113.06,113.06,0,0,1,22.35,7.66,26.46,26.46,0,0,1,3.43,1.61,30.26,30.26,0,0,0-10.07-17.32C388.52,155,385.3,153.57,381.07,150.55ZM222.15,160.82l-3.22-10.27c-4.23,3-7.65,4.43-12.28,2a30.21,30.21,0,0,0-10.07,17.32c1.2-.61,2.41-1.21,3.42-1.61C209.26,164.25,216.52,161.83,222.15,160.82ZM371.4,121.55a196.23,196.23,0,0,0-143,0c-2.82,5-6.45,5.44-6.45,8.86,7.46,2.62,11.89,9.67,3.63,15.31l4.63,14.3c10.07.4,10.88,7.25,9.67,12.69,3.62,2.21,5.64,8.86,4,13.69a130,130,0,0,1,112,0c-1.61-4.83.61-11.68,4-13.69-1.21-5.44-.4-12.29,9.67-12.69l4.63-14.3c-8.06-5.64-3.83-12.69,3.63-15.31C378.05,127,374.22,126.58,371.4,121.55Zm-143.2-8.46a202.32,202.32,0,0,1,71.9-12.89A206.83,206.83,0,0,1,372,113.09a10.23,10.23,0,0,1,11.08-2c.61-4.43,12.89-3.63,15.31-.21,1.21-1.81,9.87-2.81,15.91,11.49a37.17,37.17,0,0,1,6.24-1.21c1.21-.2,5.64-.41,6.85-.61,3-.4,4.23-4.23,7.66-5.64a21.87,21.87,0,0,1,4.63-.8c-.4-1.82-1.21-4.63-.81-5.84,1-3.63,7.05-3.83,9.87-4.84,3.22-1,7.05-2.21,5-5.44-3.83-6,13.09-1.61,14.9,1,1,1.61-.8,4.63-.8,4.63a18.53,18.53,0,0,1,4.43.21c5.64.8,9.87,2.61,7.65-4.44-1.41-4.63,17.73,1.62,14.7,9.87-.8,2.42-3.62,4.23-3.62,4.23a12.57,12.57,0,0,1,3.42,4c1.41,2.62,6.65-.4,6.65-3.83,0-7,8.86,2.62,9.47,9.47.2,2.42-.21,6.24-2.42,8.06-1,.8-4,1.21-4,1.21a11.27,11.27,0,0,1,1.21,6.24c-.2,3.63,6.24,2.62,8.06-1.41,1.61-3.22,7,7.45,5,14.7A11,11,0,0,1,513,157.8c-2,.41-4.83-.6-4.83.21a17.77,17.77,0,0,1,0,4.63c-.4,5,4.63,5.84,8.46,2,3-2.82,4.83,17.32-3.22,18.53-4.84.81-5.44-1.61-5.64-.8a10.16,10.16,0,0,1-1.21,3.42c-2.62,5.44,4.23,5,7.65,3.22,3-1.61,1.81,17.12-8.26,16.32-2-.2-3.22-2.22-5-2.22-1.61,0-1.82,16.52,4.63,16.52,9.47,0-1,10.67-9.87,10.07,1,12.28,8.46,28.8,15.91,37.26,8.06,9.26,12.69,19.74,12.29,29.4,14.1,1.41,23.36-5,26.58-13.89,5-13.9-4.83-29.21-12.48-40.69-10.48-15.71-8.66-33.43-6.25-44.11a13.32,13.32,0,0,1-5.64-11.28c0-4.83,1-10.27,6-15.1,12.69-11.89,32-1.81,35,2.82,1,1.41.61,3.62-1.61,4.83-8.66,4.63-3.42,21.55-19.94,21.55A41.93,41.93,0,0,0,544,210.57c-.4,10.48,2.22,17.32,6,23.57,2.82,4.43,8.66,12.89,12.09,20.54,10.07,21.55,3.42,48.95-22,57-4.23,1.41-13.29,2.62-22.76.81-.6.6-1.21,1.41-1.81,2-.8.81-1.81,1.61-2.82,2.62-2,5.84-1.61,12.69,4.63,19.94,10.68,12.29,15.71,15.51,3,24.57-24.57,17.52-26.38,30.82-29.8,36.05,5.23.81,10.47,1.82,15.91,3,2.62.6,8.05,2,6.24,9.86l-13.9,61.84c-2,9.06-8.86,6.85-12.08,6C427,462.74,398.19,505.24,300.5,505.24S174,462.74,114.2,478.45c-3.22.81-10.07,3-12.09-6L88.22,410.57c-1.82-7.85,3.62-9.26,6.24-9.86,5.44-1.21,10.67-2.22,15.91-3-3.42-5.23-5.24-18.53-29.81-36.05-12.69-9.06-7.65-12.28,3-24.57,6.25-7.25,6.65-14.1,4.64-19.94a34.55,34.55,0,0,1-2.82-2.62c-.61-.6-1.21-1.41-1.82-2a56.51,56.51,0,0,1-22.76-.81c-25.37-8.05-32-35.45-22-57,3.63-7.65,9.47-15.91,12.29-20.54,3.82-6.25,6.44-13.09,6-23.57a42.43,42.43,0,0,0-1.61-10.07c-16.52,0-11.28-16.92-19.94-21.55-2.22-1.21-2.62-3.22-1.61-4.83,3-4.63,22.35-14.71,35-2.82,5,4.63,6,10.27,6,15.1,0,4.64-1.81,8.87-5.64,11.28,2.22,10.88,4,28.4-6.24,44.11-7.65,11.68-17.72,27-12.49,40.69,3.23,8.86,12.49,15.3,26.59,13.89-.4-9.66,4-19.94,12.29-29.4,7.45-8.46,14.7-25,15.91-37.26-8.86.6-19.34-10.07-9.87-10.07,6.44,0,6.24-16.52,4.63-16.52s-3,2-5,2.22C85,206.14,83.79,187.41,87,189c3.42,1.82,10.27,2.22,7.65-3.22a6,6,0,0,1-1.81-3.42c-.2-1-.81,1.61-5.64.8C79.15,181.77,81,161.83,84,164.65c3.82,3.63,8.86,3,8.46-2a17,17,0,0,1,0-4.63c0-.81-2.82.2-4.84-.21s-4.83-3.42-5.44-5.84c-2-7.05,3.43-17.92,5-14.7,1.81,3.83,8.06,4.83,8.06,1.41a11.22,11.22,0,0,1,1.2-6.24s-3-.41-4-1.21c-2.22-1.82-2.62-5.64-2.42-8.06.6-6.85,9.47-16.51,9.47-9.47,0,3.43,5.23,6.45,6.64,3.83a10.26,10.26,0,0,1,3.43-4s-2.82-1.81-3.63-4.23c-3-8.25,16.11-14.5,14.7-9.87-2.21,7,2,5.24,7.66,4.44a18.53,18.53,0,0,1,4.43-.21s-1.61-3-.81-4.63c1.61-2.82,18.53-7.25,14.91-1-2,3.23,1.81,4.44,5,5.44,2.82,1,8.86,1.21,9.87,4.84.4,1.21-.4,4.23-.8,5.84a22.15,22.15,0,0,1,4.63.8c3.42,1.41,4.63,5.24,7.65,5.64,1,.2,5.44.41,6.85.61a37,37,0,0,1,6.24,1.21c6-14.3,14.71-13.3,15.91-11.49,2.42-3.62,14.71-4.43,15.31.21C220.54,109.67,225.58,110.47,228.2,113.09Zm106.34,35,9.07,2.41,2.41-8.66c.61-2,1.21-4.23,2-6.24h-.2c-1.82,2-3.23,3.62-5,5.44l-8.26,7ZM347,166.67l-7.45-2,2.21-8.66-16.51-4.43,1.41-5L346.63,129l9.66,2.62-5.64,20.54,4.44,1.21L353.47,159,349,157.8Zm-39.48-12.29c4,.2,6.25-4.23,6.85-12.49.4-8.26-1.41-12.89-5.44-13.09-3.62-.2-6.24,4-6.64,12.29C301.71,149.75,303.93,154.18,307.55,154.38Zm-.4,5.84c-9.26-.4-13.49-8.66-12.89-19.33.6-10.88,5.84-18.53,15.11-18.13,9.66.4,13.49,8.86,12.89,19.13C321.65,153.17,316.82,160.62,307.15,160.22Zm-33.64-29.61c-3.42.41-5.43,3.63-4.83,7.46a5.73,5.73,0,0,0,6.65,5.23,6.46,6.46,0,0,0,5.23-3.42,4.29,4.29,0,0,0,.21-1.81C280.16,133.84,278,129.81,273.51,130.61ZM267.67,163l-.8-6a17.55,17.55,0,0,0,3.82-.61,16.2,16.2,0,0,0,7.46-3.62,11.76,11.76,0,0,0,3.82-7.86h-.2a10.14,10.14,0,0,1-7.45,4c-6.45.81-12.29-2.82-13.29-9.67-1-7.05,4-13.69,12.08-14.9,9.27-1.21,14.91,5,16.11,13.49,1,7.46-.6,13.3-4,17.33-3,3.62-7.66,6-13.3,6.84A9.68,9.68,0,0,1,267.67,163Zm-12.89,3.63-8.66-27.8h-.2l-5.64,5.24-3-5.24,7.86-7.05,6.24-1.81L262,164.65ZM156.9,126a8.18,8.18,0,0,0-2.62,3,56.4,56.4,0,0,0,5.64-1.81A6.86,6.86,0,0,0,156.9,126Zm8.26,2.82s-11.28,4.43-13.3,2.62c-2.41-2.22,2.62-8.06,4.63-8.06C161.73,123.16,165.16,128.8,165.16,128.8Zm269.68,0s3.43-5.44,8.46-5.44c2,0,7.05,5.84,4.64,8.06C445.92,133,434.84,128.8,434.84,128.8ZM442.9,126a5.16,5.16,0,0,0-3.22,1.41c2.21.81,4.63,1.41,5.64,1.81A4.85,4.85,0,0,0,442.9,126ZM440.08,456.9V435.75c0-3.83-.2-6.85-.2-9.67h7.86l.4,4.64h.2a11.82,11.82,0,0,1,10.07-5.24c6,0,11.68,3.83,11.68,13.7V457.1H461V440.38c0-4.43-1.61-7.45-5.84-7.45a6.22,6.22,0,0,0-5.84,4.23,8.73,8.73,0,0,0-.41,2.42V457.3h-8.86Zm-310,.6L128.7,415l9.06-.41L139,449.45l18.53-.61.2,7.46Zm61.63-6.64L171,446c-.81,4.43,3,7.46,7.85,8.66a24.78,24.78,0,0,0,9.27.61l-.21,6.24a30.58,30.58,0,0,1-11.88-.6c-10.47-2.42-15.1-9.87-12.89-19.14,1.81-7.45,8.66-14.9,19.34-12.48,10.47,2.41,12.08,11.48,10.47,18.12A12.82,12.82,0,0,1,191.74,450.86ZM172.41,440l12.89,3a6.14,6.14,0,0,0-4.64-7.85C176,433.94,173.21,437.36,172.41,440Zm29-4.83,9.26,3.42-.6,15.71c0,2.82-.4,5.24-.6,7.65h.2c1.41-2,2.82-4,4.43-6.24l9.67-12.49,9.06,3.23L210.67,471.2l-8.66-3ZM261,470.8l-20.95-4c-.6,4.43,3.22,7.45,8.06,8.46a29.73,29.73,0,0,0,9.26.4v6.24a33.69,33.69,0,0,1-11.88-.2c-10.48-2-15.51-9.26-13.7-18.73,1.41-7.45,8.06-15.31,18.93-13.09,10.48,2,12.49,11.08,11.08,17.72A7,7,0,0,1,261,470.8Zm-19.94-10.28,13.09,2.62c.4-2.21.2-6.84-4.83-7.65C244.71,454.48,242.09,457.91,241.09,460.52Zm28.8,24.58,1.81-20.55c.4-4.63.61-7.45.61-10.27l7.85.61-.2,6h.2a9.82,9.82,0,0,1,9.47-6,7.17,7.17,0,0,1,2,.4l-.8,8.46c-.81-.2-1.62-.41-2.62-.61-4-.4-6.65,1.61-7.45,4.84-.21.6-.21,1.41-.41,2L279,485.7ZM307.75,441l1,27.39h.2c.81-1.21,1.61-2.62,2.42-3.63l7.05-9.86,11.08-.41L318,467.37l14.5,17.93-11.28.4L312,473l-2.61,3.22.4,9.87-9.07.41-1.61-44.92Zm56.8,6.64,4,20.75c.81,3.83,1.41,7.05,2,9.47l-7.65,1.41-1.41-4.64h-.2a11.33,11.33,0,0,1-9.06,7.25c-5.84,1.21-11.89-1.41-13.7-11.27l-3.42-17.53,8.86-1.81,3.22,16.11c1,4.84,3.22,7.45,7,6.65a6.16,6.16,0,0,0,4.83-5,3.94,3.94,0,0,0,0-2.21l-3.42-17.93Zm14.1,25-.2-6.65a18.61,18.61,0,0,0,8.86,0c3.22-1,4.23-2.41,3.63-4-.61-1.81-1.82-2.21-5.84-2.41-6.85,0-10.28-2.62-11.28-6.25-1.61-5.43,2-10.87,9.46-13.09a21.17,21.17,0,0,1,9.07-.6l.2,6.44a15,15,0,0,0-7.25.2c-2.42.81-3.63,2.22-3.22,3.83s2.21,2,6.44,2.22c6.24.2,9.67,2.21,11.08,6.64,1.61,5.44-1.61,10.68-10.27,13.3C385.1,473,381.27,473.21,378.65,472.61Zm54.18-26.79-20.95,4c1.21,4.43,5.84,5.64,10.68,4.63a24.27,24.27,0,0,0,8.66-3l2.42,5.64a29.77,29.77,0,0,1-11.08,4.23c-10.47,2-17.93-2.82-19.74-12.29-1.41-7.45,1.81-17.12,12.69-19.33,10.47-2,15.71,5.64,16.92,12.28A15.43,15.43,0,0,1,432.83,445.82Zm-22.15-2.21L423.77,441c-.41-2.22-2.42-6.45-7.46-5.44A7.36,7.36,0,0,0,410.68,443.61ZM292.25,212.18h15.1a3,3,0,0,0,0-6h-15.1Zm0,14.51h15.5a3.43,3.43,0,1,0,0-6.85h-15.5Zm24.17-11.08a11.12,11.12,0,0,1,3.22,7.85,10.83,10.83,0,0,1-10.88,10.88H283.58V198.49h24.78A10.4,10.4,0,0,1,318.83,209,10.76,10.76,0,0,1,316.42,215.61Zm5.84,61.63H313l-2.82-6H290l-2.82,6H278l18.12-35.85h8.46ZM299.9,250.45l-6.45,13.09h12.69Zm12.29,34.44h10.27l-18.33,23.37v12.49h-8.66V308.26l-18.33-23.37h10.27l12.29,16.32Zm48.13,0v7.66H336.15v6h23.17v7.65H336.15v6.85h24.17v7.66H327.69V284.89Zm27.19,22.36h-6.44V321h-8.66V285.1h21.95a11,11,0,0,1,11.08,11.07,11.25,11.25,0,0,1-8.06,10.68L408.06,321H397.79Zm6.05-14.7H381.07v6.85h12.49A3.54,3.54,0,0,0,397,296,3.68,3.68,0,0,0,393.56,292.55ZM281.37,321H272.1l-2.82-6.05H249.14L246.32,321h-9.26l18.13-35.85h8.46ZM259,294.16l-6.44,13.09h12.69Zm-54.58,4.43h15.11a3,3,0,1,0,0-6H204.43Zm0,14.7h15.51a3.42,3.42,0,0,0,0-6.84H204.43Zm24.17-11.07a11.12,11.12,0,0,1,3.22,7.85A10.83,10.83,0,0,1,221,321H195.77V284.89h24.77A10.41,10.41,0,0,1,231,295.37,10.19,10.19,0,0,1,228.6,302.22Zm87.61,26.38v7.65H292v6.05h23.17V350H292v6.85h24.17v7.65H283.58V328.6Zm-6,55.59a3.53,3.53,0,0,0-3.42-3.42H292v6.84h14.71A3.28,3.28,0,0,0,310.17,384.19ZM283.58,409V373.11h24.17a11,11,0,0,1,11.08,11.08,10.93,10.93,0,0,1-7.05,10.27L322.66,409H312.39l-10.28-13.69h-9.86V409Z"/></clipPath></defs><g class="cls-2"><g class="cls-3"><g class="cls-4"><g class="cls-5"><g class="cls-6"><g class="cls-5"><rect class="cls-7" x="-30.21" y="31.72" width="660.43" height="536.16"/></g></g></g></g></g></g><g class="cls-8"><g class="cls-9"><rect class="cls-10" x="48.34" y="58.11" width="503.33" height="483.79"/></g></g><g class="cls-11"><g class="cls-12"><rect class="cls-13" x="-9.07" y="54.68" width="618.13" height="391.74"/></g></g><g class="cls-14"><g class="cls-3"><rect class="cls-15" x="-11.68" y="50.25" width="623.37" height="499.5"/></g></g></svg>