<?xml version="1.0" encoding="UTF-8"?>
<svg id="Layer_1" data-name="Layer 1" xmlns="http://www.w3.org/2000/svg" version="1.1" viewBox="0 0 800 800">
  <defs>
    <style>
      .cls-1 {
        fill: #63b5e4;
      }

      .cls-1, .cls-2 {
        stroke-width: 0px;
      }

      .cls-2 {
        fill: #fff;
      }
    </style>
  </defs>
  <circle class="cls-1" cx="400" cy="400" r="380.1"/>
  <path class="cls-2" d="M400,4C181.3,4,4,181.3,4,400s177.3,396,396,396,396-177.3,396-396S618.7,4,400,4ZM400,780.1c-209.9,0-380.1-170.2-380.1-380.1S190.1,19.9,400,19.9s380.1,170.2,380.1,380.1-170.2,380.1-380.1,380.1Z"/>
  <path class="cls-2" d="M400,111.1c-159.6,0-288.9,129.4-288.9,288.9s129.4,288.9,288.9,288.9,288.9-129.4,288.9-288.9S559.6,111.1,400,111.1ZM400,677.1c-153,0-277.1-124.1-277.1-277.1S247,122.9,400,122.9s277.1,124.1,277.1,277.1-124.1,277.1-277.1,277.1Z"/>
  <path class="cls-2" d="M234.6,545.6c29-3.4,42.5-6.7,42.5-38.5v-228.7c-27-33.3-37.1-34.7-43.3-34.7v-12.1h104.2l167.6,206h1v-146.2c0-28.9-5.8-42.5-44.9-45.4v-14.4h103.8v14.4c-34.8,4.3-37.7,13.1-37.7,36.3v284.1h-13.5l-214.9-261.5h-1v193c0,34.7,10.1,43.9,45.9,47.7v12.1h-109.6v-12.1h0Z"/>
</svg>