<?xml version="1.0" encoding="utf-8"?>
<!-- Generator: Adobe Illustrator 16.0.0, SVG Export Plug-In . SVG Version: 6.00 Build 0)  -->
<!DOCTYPE svg PUBLIC "-//W3C//DTD SVG 1.1//EN" "http://www.w3.org/Graphics/SVG/1.1/DTD/svg11.dtd">
<svg version="1.1" id="FC_Sevilla" xmlns="http://www.w3.org/2000/svg" xmlns:xlink="http://www.w3.org/1999/xlink" x="0px" y="0px"
	 width="900px" height="900px" viewBox="0 0 900 900" enable-background="new 0 0 900 900" xml:space="preserve">
<path d="M817.1,21.6l-0.5-11.3l-5.4,4.5C764.5,52.9,708,71.4,638.7,71.4c-70,0-136.2-24.6-186.5-69.3L449.8,0l-2.4,2.1
	C397.2,46.7,330.9,71.4,261,71.4c-69.3,0-125.8-18.6-172.5-56.6l-5.4-4.5l-0.5,11.3l-0.2,3c-10,153.9,11.9,303.2,65.7,443.7
	c49.1,128.9,124.6,250.1,224.3,360.4l0,0c37.5,41.2,75.2,69.3,75.5,69.6l2.1,1.6l2.1-1.6c0.3-0.3,38-28.5,75.5-69.6l0,0
	c99.7-110.2,175-231.5,224.3-360.4c53.6-140.5,75.7-289.8,65.7-443.7L817.1,21.6z"/>
<path fill="#B97317" d="M810.3,25.3c0,0,0-0.5,0-0.8c-47.1,36.2-103.2,54.1-171.5,54.1c-70.6,0-137.5-24.5-188.9-69l0,0l0,0
	c-51.4,44.5-118.3,69-188.9,69c-68.4,0-124.6-17.6-171.5-54.1c0,0.3,0,0.8,0,0.8c-1.6,24-2.4,47.9-2.4,71.5
	c0,127.7,22.6,251.5,67.6,369.2c48.8,128.1,123.8,248.6,222.9,358.2c32,35.3,64.1,60.7,72.5,67.1l0,0l0,0c8.3-6.4,40.4-32,72.5-67.1
	c99-109.5,174.1-230,222.9-358.2C790.2,348.3,813,224.5,813,96.8C812.5,73.1,811.7,49.3,810.3,25.3z"/>
<path fill="#FFFFFF" d="M528.5,380.6c-3.2-38.5-33.9-69-72.2-72.2V163.9l0.5-0.3c104-65.2,238.2-56.9,326.4,20l7.5,6.5
	c-5.9,64.7-17.8,128.3-35.8,190.3H528.5V380.6z"/>
<path fill="#FFFFFF" d="M443,308.3c-38.3,3.2-69,33.9-72.2,72.2H144.4c-18-62-29.9-125.6-35.8-190.3l7.5-6.5
	c88.1-77.1,222.3-85.4,326.4-20l0.3,0.3v144.4h0.2V308.3z"/>
<path fill="#3D220B" d="M383.1,388.2c0,36.7,29.7,66.6,66.6,66.6c36.7,0,66.8-29.7,66.8-66.6c0-36.9-29.9-66.8-66.8-66.8
	C412.8,321.4,383.1,351.4,383.1,388.2"/>
<radialGradient id="SVGID_1_" cx="120.9336" cy="373.3232" r="37.0579" gradientTransform="matrix(1.0002 0 0 1.0001 305.142 0.74)" gradientUnits="userSpaceOnUse">
	<stop  offset="0" style="stop-color:#844E1E"/>
	<stop  offset="1" style="stop-color:#3D220B"/>
</radialGradient>
<path fill="url(#SVGID_1_)" d="M389.1,374.1c0-20.5,16.5-37,37-37s37,16.5,37,37s-16.5,37-37,37S389.1,394.6,389.1,374.1"/>
<radialGradient id="SVGID_2_" cx="125.3247" cy="373.5728" r="89.4082" gradientTransform="matrix(1.0002 0 0 1.0001 305.142 0.74)" gradientUnits="userSpaceOnUse">
	<stop  offset="0" style="stop-color:#F1C348"/>
	<stop  offset="0.3652" style="stop-color:#9E5C23"/>
	<stop  offset="1" style="stop-color:#3D220B"/>
</radialGradient>
<path fill="url(#SVGID_2_)" d="M444.4,435.6c-7.9,1.4-19.1,1.7-30.7-1.6c-4.6-1.3-7.2,3.5-3.2,6.4c9.9,7.5,21.9,11.9,34.3,12.9
	c2.1,0.2,3.8-1.6,3.8-3.5v-10.5C448.9,436.7,447,435.1,444.4,435.6z"/>
<radialGradient id="SVGID_3_" cx="125.3257" cy="373.5771" r="89.4013" gradientTransform="matrix(1.0002 0 0 1.0001 305.142 0.74)" gradientUnits="userSpaceOnUse">
	<stop  offset="0" style="stop-color:#F1C348"/>
	<stop  offset="0.3652" style="stop-color:#9E5C23"/>
	<stop  offset="1" style="stop-color:#3D220B"/>
</radialGradient>
<path fill="url(#SVGID_3_)" d="M413.9,366.8l10.5,6c1.7,1,4,0.3,4.9-1.3c6.5-10.8,23.7-28.8,45.2-36.6c3.8-1.6,4-5.1,0.2-6.8
	c-7.8-3-16.1-4.9-25.1-4.9C434.7,323.1,404.7,361.4,413.9,366.8z"/>
<radialGradient id="SVGID_4_" cx="125.3242" cy="373.5767" r="89.4034" gradientTransform="matrix(1.0002 0 0 1.0001 305.142 0.74)" gradientUnits="userSpaceOnUse">
	<stop  offset="0" style="stop-color:#F1C348"/>
	<stop  offset="0.3652" style="stop-color:#9E5C23"/>
	<stop  offset="1" style="stop-color:#3D220B"/>
</radialGradient>
<path fill="url(#SVGID_4_)" d="M445.2,414.1c-12.6-0.2-36.7-6.2-54.4-20.8c-3.2-2.7-6.4-1-5.9,3.3c1.1,8.3,3.7,16.4,8.3,24.2
	c7.5,12.7,55.5,19.6,55.5,9.2v-12.2C448.9,415.9,447.1,414.1,445.2,414.1z"/>
<radialGradient id="SVGID_5_" cx="125.3247" cy="373.5781" r="89.3952" gradientTransform="matrix(1.0002 0 0 1.0001 305.142 0.74)" gradientUnits="userSpaceOnUse">
	<stop  offset="0" style="stop-color:#F1C348"/>
	<stop  offset="0.3652" style="stop-color:#9E5C23"/>
	<stop  offset="1" style="stop-color:#3D220B"/>
</radialGradient>
<path fill="url(#SVGID_5_)" d="M430.8,372.3c-1,1.6-0.3,4,1.4,4.9l15.4,8.9h3.5l51-29.3c1.9-1.1,2.4-3.3,1.1-5.1
	c-2.5-3.8-14.8-18.8-19.7-17.6C458.3,339.7,437.4,361.2,430.8,372.3z"/>
<radialGradient id="SVGID_6_" cx="125.3257" cy="373.5796" r="89.4033" gradientTransform="matrix(1.0002 0 0 1.0001 305.142 0.74)" gradientUnits="userSpaceOnUse">
	<stop  offset="0" style="stop-color:#F1C348"/>
	<stop  offset="0.3652" style="stop-color:#9E5C23"/>
	<stop  offset="1" style="stop-color:#3D220B"/>
</radialGradient>
<path fill="url(#SVGID_6_)" d="M396.9,356.8l9.1,5.2c2.2,1.3,4.3,0.3,5.2-1.9c2.9-7.6,8.1-17.5,16.7-25.9c3.3-3.3,0.5-7.9-4-5.9
	c-11.4,4.8-21.3,13-28.3,23.2C394.5,353.4,395,355.8,396.9,356.8z"/>
<radialGradient id="SVGID_7_" cx="125.3208" cy="373.5781" r="89.403" gradientTransform="matrix(1.0002 0 0 1.0001 305.142 0.74)" gradientUnits="userSpaceOnUse">
	<stop  offset="0" style="stop-color:#F1C348"/>
	<stop  offset="0.3652" style="stop-color:#9E5C23"/>
	<stop  offset="1" style="stop-color:#3D220B"/>
</radialGradient>
<path fill="url(#SVGID_7_)" d="M486.3,367.9l-10.5,6.2c-1.8,1-2.4,3.3-1.4,4.8c6.2,11,13,35,9.2,57.4c-0.8,4.1,2.4,6,5.7,3.5
	c6.7-5.1,12.4-11.6,16.9-19.2C513.4,407.8,495.2,362.8,486.3,367.9z"/>
<radialGradient id="SVGID_8_" cx="125.333" cy="373.5757" r="89.3878" gradientTransform="matrix(1.0002 0 0 1.0001 305.142 0.74)" gradientUnits="userSpaceOnUse">
	<stop  offset="0" style="stop-color:#F1C348"/>
	<stop  offset="0.3652" style="stop-color:#9E5C23"/>
	<stop  offset="1" style="stop-color:#3D220B"/>
</radialGradient>
<path fill="url(#SVGID_8_)" d="M508.2,359.8c-1-1.9-3.3-2.7-4.9-1.6l-9.2,5.2c-2.2,1.3-2.5,3.5-1,5.4c5.1,6.2,11,15.9,14,27.5
	c1.3,4.8,6.5,4.3,7.2-0.5C515.8,383.5,513.6,370.9,508.2,359.8z"/>
<radialGradient id="SVGID_9_" cx="125.3257" cy="373.5791" r="89.3991" gradientTransform="matrix(1.0002 0 0 1.0001 305.142 0.74)" gradientUnits="userSpaceOnUse">
	<stop  offset="0" style="stop-color:#F1C348"/>
	<stop  offset="0.3652" style="stop-color:#9E5C23"/>
	<stop  offset="1" style="stop-color:#3D220B"/>
</radialGradient>
<path fill="url(#SVGID_9_)" d="M396.1,358.5c-1.9-1.1-4-0.5-4.9,1.6c-2.1,4-8.9,22.3-5.4,25.9c17.5,19.1,46.6,26.2,59.5,26.5
	c2.1,0,3.7-1.7,3.7-3.7V391l-1.9-3.2L396.1,358.5z"/>
<radialGradient id="SVGID_10_" cx="125.3237" cy="373.5801" r="89.3979" gradientTransform="matrix(1.0002 0 0 1.0001 305.142 0.74)" gradientUnits="userSpaceOnUse">
	<stop  offset="0" style="stop-color:#F1C348"/>
	<stop  offset="0.3652" style="stop-color:#9E5C23"/>
	<stop  offset="1" style="stop-color:#3D220B"/>
</radialGradient>
<path fill="url(#SVGID_10_)" d="M468,378.7l-15.6,8.9l-1.7,3.2v58.8c0,2.2,1.7,3.7,3.7,3.5c4.5-0.3,23.5-3.3,25.1-8.3
	c7.8-24.8-0.5-53.6-6.7-64.7C471.8,378.2,469.6,377.6,468,378.7z"/>
<path fill="#FFFFFF" d="M728.4,459.6c-48,126.1-121.9,244.7-219.6,352.5c-22.7,25.1-45.5,44.8-59.3,56.3
	c-13.8-11.3-36.4-31.2-59.3-56.3C292.9,704.3,219,585.5,171,459.6c-8.3-21.6-15.7-43.6-22.4-65.7h222.3
	c3.3,40.5,37.4,72.5,78.9,72.5s75.5-32,78.9-72.5H751C744.1,416.1,736.7,438,728.4,459.6z"/>
<path fill="#E21617" d="M792,173.6c-92.5-80.9-233.2-89.7-342.3-21.3c-109.1-68.4-249.8-59.6-342.3,21.3c-1.9-25.4-2.9-51-2.9-76.8
	c0-13.2,0.3-26.5,0.8-39.9c44.4,26.4,95.5,39.3,155.3,39.3c69.6,0,136.1-22.6,188.9-63.8c52.8,41.2,119.2,63.8,188.9,63.8
	c59.9,0,111-12.9,155.3-39.3c0.5,13.4,0.8,26.7,0.8,39.9C794.7,122.6,793.7,148.2,792,173.6z"/>
<path d="M619.2,322.4c9.5-0.6,18.6-3.3,26.5-7.5l-1.6,8.4c-8.7,4.3-17,7-25,8.3v18.1c21.5-3.5,39-14.5,43.9-34.5
	c3.7-14.8,7.6-34.5-37.8-70.3l-6-4.8v28h16.1v6h-16.1V322.4 M595,221.1c-21.3,6.4-38.5,21.6-38.5,46.4c0,35.9,25.6,52.9,52.1,54.8
	V232C603.4,228,598.8,224.3,595,221.1z M647.3,218.1c1.6,0.8-1.7,2.2-2.9,3.5c-7.8-2.7-16.5-4-25.3-4.1v6.4c1.7,1.3,3.7,2.5,5.2,3.8
	c29.4,22.1,55.8,36.9,52.1,77.1c-4,43.9-49,73.5-116.1,47.1v-8.4c15.4,5.6,32.4,8.3,48.3,7.5v-18c-39.7,1.6-66.3-30-66.6-60.1
	c-0.3-25.6,17.3-50.4,44-59.9c-9.5-9.7-12.2-17.6-13.8-33.2c-2.9-26.6,41.3-55.8,76.3-21.5l-4.1,4.6c-17.6-16.9-54.2-17.3-59.8,9.7
	c-3.3,16.1,4.5,27.7,15.3,37c2.9-0.3,5.9-0.6,8.9-0.6v-23.7h35.8v6h-25.3v18.3C628.2,210.7,637.6,213.4,647.3,218.1z"/>
<path fill="#E21617" d="M449.7,466.5c-8.7,0-17.2-1.4-25-4v384.1c9.7,9.1,18.4,16.4,25,21.9c6.7-5.4,15.3-12.9,25-21.9V462.5
	C466.9,465,458.4,466.5,449.7,466.5z"/>
<path fill="#E21617" d="M318.7,394v331.2c15.9,21.1,32.6,41.8,50.1,62.3V394H318.7z"/>
<path fill="#E21617" d="M212.8,394v160.6c15.1,30.2,31.8,59.9,50.1,89.2V394H212.8z"/>
<path fill="#E21617" d="M530.6,394v393.5c17.5-20.3,34.2-41.2,50.1-62.3V394H530.6z"/>
<path fill="#E21617" d="M636.7,394v249.8c18.3-29.3,35-59,50.1-89.2V394H636.7L636.7,394z"/>
<path fill="#B49E75" d="M427.3,311.3c0-0.2,0-0.5,0-0.6c0-0.5,0-1.1,0-2.1c0-3.3-0.3-9.2-0.3-11.1c0-2.5-1.6-19.6-1.6-20.8l-0.3-8.4
	l-2.9-5.6c0-0.3,0-0.8,0-1.1c0-2.2-0.5-6-1.1-10.2c-0.2-2.9-0.6-6-1.7-9.9c-1.7-6.4-6.4-12.7-7-13.7l0.8-3.2l-3.8-10l-4-1.4
	l-0.2,0.3c0,0,0,0,0,0.2h-0.5l-1.3-0.5l2.4-6.5l0.5-3.2l0.5-5.1c0-1.6,0.3-4.6,0.3-4.6l-0.2-1.6l0.3-2.5l0,0h0.2v-0.2c0,0,0,0,0-0.2
	l0.6-1.1v-12.6l-0.8-3.3l-3,3.8c0-0.3-0.2-0.5-0.2-0.6c-0.6-1.7-2.2-8.3-2.2-8.3V167h-0.2c0,0-6,3.5-9.2,8.9c-2.9,4.6-3,6-3,6.4l0,0
	l-0.2,1.1h0.2c0,0,0.3-0.8,1-1.7c-0.5,0.8-0.8,1.7-1.3,2.7c-1.3,3-4.5,16.2-4.5,16.2v0.2l-1,6.5l0,0v0.2l0.3,0.2h-0.3l-0.8,2.4
	l-0.6,0.6l0.5,1.9l0.6,1.1l-0.5,1.1l-1.1,1.6v0.6l0,0l0.2,0.5v0.5l0.8,0.2l0.2,0.8l-0.3,0.5l-0.5,0.6v1.3l-0.5,1.1l0.5,1.1l0.3,1
	v1.3l0.5,0.8l0.6-0.5l0.2-0.6l0.6,0.3l-0.2,0.6l-0.6,1.3l0.6,1.1l0.8,0.5l0.6-0.5l0.3,0.3c-8.1,3.7-11.9,12.6-16.9,19.2
	c-1.1,1.4-3.2,4.9-4.9,7.3c-1.7,2.5-8.9,17.3-9.7,18.4l-2.4,5.6l-1.3-1l-1.4-1.1l-1.1-0.6l0,0l10-81.1l-0.2-0.2h0.2l1.3-0.6
	l-0.2-1.3l1.6-17.5l0,0l0.2-0.6v1.4l0.8-0.6l0.2-1l-0.8-1.1l1-0.5l0.8-0.5l-0.5-1.6l-1.1-1l-0.3-0.3l0,0l0,0l1.3-0.8l0.8-1.6v-0.3
	l0.3-4.8l-1-7.3v-1.9l-0.2-1l-0.6,0.3l-0.8-2.5l-1.4-1.1l-0.2-0.2l-0.3,1.3c-0.5-0.5-3-3-7-3h-0.2c-8.6,0.3-9.1,8.1-9.1,8.1v1.3
	l-0.3,2.1l0.6,1.1l-1,1l0.5,1c-0.2,0.2-0.3,0.6-0.6,1.3c-0.3,0.8-0.5,1.6-0.5,2.2c0,1.6,0.8,2.5,1.1,3.3l1.6,1.9l2.9,2.2l1.6,3.7
	l0,0l0.8-0.6l0.8-0.6l0.3,0.2v0.5l-1.1,3l0.2-0.2l1.6-0.8l1-2.1V174l-0.8-0.8l0.6-0.5l1.1-1.3l0.6-1.6l0.6-1.4v-1.1l-0.3-3l-1,1.6
	l-1.1,1.4l0.6,1.6l-0.6,1l-0.5,0.8l-0.8,1.4l-0.5,0.2l0.5-1.3l-0.2-1.6v-0.2l0,0c-0.2-0.8-0.5-1.1-1-1.1c-0.3,0-0.5,0.2-0.5,0.2l0,0
	l0.3,1l-0.3,1.1v0.2l0,0l-1.4,0.5l-1.4-0.8l-0.5-1.7l0.5-0.5l1.9,0.6l2.5-1.4v-0.2l-1,0.2l-1.6-0.5l-1.9-2.7l-1.3-1.6l0,0l0.8-1.3
	l-0.8-1.3l-0.2-1.1v-0.2l0.6-0.6c0.2,0.5,0.8,2.1,3.5,2.2h0.2c3.2,0,3.3-3,3.5-4c0-0.2,0-0.3,0-0.3h-0.2l-0.5,1.6l-1.4,1.4l-3-0.5
	l-0.8-3.5c0,0,0.3-1,1.1-1.9c0.8-1,2.1-1.9,4.3-1.9c1.4,0.2,2.5,0.3,3.5,0.5c1.9,0.6,2.9,1.9,3.2,2.7l-2.1,0.2
	c-0.8,0.3-1.4,0.8-1.7,2.5c0,0.2,0,0.2,0,0.3c0,1.4,1.1,1.9,1.1,1.9h0.2v-0.6l0,0l0.6-1.9l1.4-0.5l1.3,1.4v2.4c0,0.2,0,0.2,0,0.3
	c0,1-0.5,2.5-1.1,6c-0.2,0.6-0.2,1.3-0.2,1.7c0,2.1,1,2.2,1.1,2.2l0,0l-0.6,0.5H358h0.5l-0.8,0.6l-0.3,0.6l0.5,0.5v1.9l-0.8-0.2
	l0.3,1.4l0,0l0,0l0,0l-1.9,17.3c-0.6,0.2-0.8,0.6-1,1.1l0.6,0.8l0.2,0.8l0,0l0,0l0,0l-10,81.4l-0.2,0.3l-2.1,0.5l-1.6,1.3l-0.2,1.4
	l0.5,1l-0.2,0.5l-0.3,0.8v0.8l0.5,1.1l-0.3,1.1l0.3,1.1l0.3,0.5l0.2,1.1l0.6,0.8l0.6,0.2l-1.7,13l-0.3,1l0,0l-2.5,6.8l-1.1,8.7
	l-1.9,7l-1.9,4.5l-0.3,1.4v-18.1l0,0l0,0l-0.2-43.6v-4.6l-0.2,0.3l0.3-0.5l0,0h0.2v-0.2l0.5-0.8l0.6-1.3l0,0l0,0
	c-0.2-0.5-0.3-0.8-0.5-1c3.5-2.4,5.9-6.5,5.9-11.1c0-0.6,0-1.1-0.2-1.7c0-0.2,0-0.3,0-0.5l0,0c-0.8-5.1-4.6-9.2-9.5-10.7v-1.4
	c0,0-1.9-0.2-2.1-0.2c0-0.2,0-0.6,0-0.6h-0.2l-0.3-3.5l1.9,0.6v-2.4l-2.1,0.3l0.3-2.4h-2.5v0.2l0.3,2.1l-2.1-0.2l0.2,2.4l1.9-0.5
	l-0.2,3.5h-0.2c0,0,0,0.5,0,0.6c-0.3,0-1.6,0.2-1.6,0.2v0.6c-0.8,0.2-1.6,0.5-2.4,0.8c0-4.9,0.8-67.4,0.8-68c0.6,0,5.6,0.5,5.6,0.5
	v-0.3c0-7.9,5.2-8.4,5.6-8.6h0.3l0.2-7.8c0-3.2-1-5.7-2.9-7.5c-3.2-2.9-7.9-2.5-8.1-2.5l-89.2-0.2c-2.9-0.2-5.1,0.6-6.7,2.2
	c-2.5,2.4-2.5,5.9-2.5,6l0.2,9.2h0.3c1.1,0,2.1,0.5,2.9,1.3c2.2,2.4,1.9,7.6,1.9,7.6v0.3c0,0,5.4-0.2,5.9-0.2c0,0.6,0,64.2,0,71.7
	l-0.2-0.2l-0.2,0.2l-0.5,0.3l-0.8,1.9l-0.2,0.3l-1,1l-0.3,0.3l-2.1,0.5h-0.2l-0.6-0.2l-0.2-0.5v0.3l0,0l0,0l0,0L218.1,168l-0.3-1
	v-0.3h-0.2l-0.2,3l9.2,76.5L226,247h-1.1l-3.3-1.9l-0.5-0.6l-0.3-0.6l-0.8-0.6l0,0v0.2l-1,2.4l0.3,0.8l0,0v0.2c0,0,0.8,3,6.4,3
	c0.3,0,0.8,0,1.3,0l0,0l1,3l0.2,0.5H228l-0.3,0.2l0,0l0,0l-0.8,0.5l-0.8,1.1l-0.2,1.3l0.3,0.8l-0.6,1.1v1l0.6,0.3l0.2,1l0.6,1.3
	l0.8,1.3l0.3,0.3l0.2,1.1l0.3,0.5l0.2,0.2h-0.3l-3,1.9v3l0,0v0.6l0,0l0.6,2.7v8.7l-0.8,0.8l0.8,1v9.1l-0.8,1l0.8,1v9.4l-0.6,0.8
	l0.6,0.6v9.1l-2.5-0.2l1.1,1.1v18.9l-0.6,0.6l0.6,0.6l0,0v0.8v3.8h-1.3c0,0-1.6,2.4-3.7,5.7l0,0l2.1-4.1l-7-49.4l0.3,0.2l1.4-0.5
	l0.3-1.9l0,0l0.8-1l-0.3-1.7l0.3-0.8l-0.8-1.3l0.5-0.5l0,0l0,0l0.2-1l0,0l-0.3-1.3l-1.1-1.4l-2.2-1.1l-1.1-0.2l0,0l-8.3-65.8l1-1.9
	l-0.3-0.3l0,0H205l-1.3-1.1l-1.7-13.2l0,0l0,0l1.1-1.1l-0.3-0.5l-0.2-0.3l-0.2-0.2l-0.2-0.3l-1.1-1l-0.2-1.3l0.8-2.1l0,0l0,0
	l-0.2-0.2l-1.1-1.4l0.2-1c0,0-0.3-3.7-0.6-7v0.3l0.3-0.6l0.8,0.5l2.5,0.6l4.1-1.7l1-0.5l-1.1-0.8v-1.1l-1-1.7c0,0-0.5-0.2-0.6-0.2
	c0,0,0,0-0.2,0l0,0l0,0l0,0v0.2c0,0,0,0,0.2,0c0,0.2,0.2,0.5,0.3,1.4c0,0.2,0,0.2,0,0.3c0,0.5-0.2,1-0.5,1.4c-0.6,0.6-1.4,1-2.1,1
	c-1,0-1.4-0.5-1.7-2.1l1.7-3.3l2.7-2.1l1.7-2.1v-1.7l1-1.1V167l0.5-1.4l-0.5-1c0,0.2,0.2,0-0.6-4c-1-4.3-4.9-5.7-7.8-6.4
	c-2.5-0.6-6.7,0.2-8.9,2.4c-3,3-4.1,5.9-4.1,10.7c0,0.6,0,1.1,0,1.7c0.3,5.2,6.4,7.9,6.5,7.9c0,0.2,0,1.3,0,1.3l0.5,1.6l1.6,1.1
	l1,7.8v1.4l-0.8,1.9l1.3,1.4l0.3,0.6l-0.3,1.4l-0.6,1.6l1.4,1.3l1.7,12.9l-0.8,1.9l1.3,1.4l8.3,64.7c-0.6,0-1.1,0.2-1.7,0.3
	c-0.3-1.1-0.5-2.2-0.8-3.2c0.2,0,0.2-0.2,0.2-0.2s0,0,0-0.2c0-0.5-0.5-2.4-0.5-2.4H206l0,0c-0.3-1.7-1.1-4-2.5-7.8
	c-1.1-3.2-2.2-6-3.3-8.9l0,0c-0.2-0.2-0.2-0.5-0.3-0.6c-1.1-2.5-2.2-5.1-3.5-7.5c-2.7-5.7-6.2-11.1-9.4-15.3
	c-5.2-7.3-9.7-11.6-11.3-12.9l0.3-0.8l0.3-0.2l0.5-0.5l0,0v-1l0.5-1.1l0,0l-0.3-0.5l0.2-0.6l0,0l0.3-0.2v-0.2h-0.2l-0.2-0.2l0,0
	h-0.5v-0.3l-0.2-1.9l-0.5-1.6l-0.5-0.6l0,0l0.2,0.2v-0.3c0.6-6.4,1.3-23.5,1.3-23.5c-7.8-13.4-17-15.7-17-15.7h-0.2l0,0
	c-11.1,10.2-12.6,20.5-12.6,20.5c0.6,2.7,7.8,23.2,7.8,23.2v0.2l0,0l0.2,1.1l0,0l0,0l0,0l0,0h-0.2l-0.2-0.2l0,0l-2.1,3.3l-3.2,6.4
	c-2.1,3.2-9.7,15.4-11.6,23.5c-0.3,1.1-0.6,2.2-0.6,2.9c0,0.3,0,1-0.2,1.6c-0.2,1-0.3,1.9-0.5,2.9c-0.5,1.6-0.6,2.7-0.6,2.7
	s-0.2,1.7-0.3,4c-0.3,2.2-0.5,4.3-0.5,5.6c-0.2,1.1-0.3,1.9-0.3,2.2c0,0.5-0.2,2.2-0.2,4.3c-0.5,4.3-0.6,8.6-0.6,12.4
	c0,0.6-0.2,1.1-0.2,1.1s-0.3,12.4-0.3,15.7c-0.2,3.5-0.3,6.8-0.5,8.6c-0.2,2.5-0.2,6.7,0,10.8c-0.2,4.1-0.2,8.1-0.2,10.8
	c0,1.3,0,2.2,0,2.7l0,0c3.5,14.2,7.2,28.3,11.3,42.3h226.2C373.5,347.5,396.6,320.3,427.3,311.3z M359.7,175.5l0.6,0.5l-0.8-0.3
	L359.7,175.5z M355.7,195.2h1l-1.6,0.3L355.7,195.2z M198.3,166.8l-0.5-0.8l0.2-0.2l1.1-0.2V164l-1.4,0.2l0.5-1.7l-1.9,0.2l0.5,1.7
	h-1.4l0.2,1.6h0.2l0,0l0.3-0.2l1.3-0.2l0.2,1.3l0.2,0.8c-0.2-0.2-0.6,0-1.1,0.6c-0.5,0.5-1,1.3-1,2.7c0,0.2,0,0.2,0,0.3
	c0.2,2.7,1.7,3.3,2.2,3.7c0,0,0.3,0.2,0.5,0.2l0,0c0,0-0.5,0.2-2.5-0.6c-2.9-1.1-3.5-4-4-6.7c-0.2-1.3,0.6-3.3,2.1-4.9
	c1.1-1.3,2.4-2.1,3.5-2.1c2.1,0,3.3,2.2,3.3,3.7L198.3,166.8z M199.6,178.7c0-0.3-0.2-1.3-0.2-1.3l0.2-0.6c0,0,0-0.8,0-1
	c0.2,0,0.8,0.2,0.8,0.2l0.3,1.1l-1,1C199.8,178.2,199.8,178.4,199.6,178.7z"/>
</svg>
