<?xml version="1.0" encoding="UTF-8"?>
<svg id="Camada_1" data-name="Camada 1" xmlns="http://www.w3.org/2000/svg" version="1.1" viewBox="0 0 436 436">
  <defs>
    <style>
      .cls-1 {
        fill: #006638;
        fill-rule: evenodd;
      }

      .cls-1, .cls-2 {
        stroke-width: 0px;
      }

      .cls-2 {
        fill: #fff;
      }
    </style>
  </defs>
  <path class="cls-2" d="M43.5,19l16.6,7.2c28,12.1,53.6,17,78,14,24.2-2.9,47.6-13.8,71.4-33.3l8.5-6.9,8.5,6.9c23.8,19.5,47.2,30.3,71.4,33.3,24.3,3,50-2,78-14l16.6-7.2c10.1,47.6,12.6,96.9,6.3,145.1-14,107.5-71.4,206.3-174,267.8l-6.7,4-6.7-4C108.7,370.4,51.3,271.7,37.3,164.1c-6.3-48.3-3.8-97.5,6.3-145.1"/>
  <path class="cls-1" d="M53.9,39.4c-25.9,147.1,27.2,298.2,164.1,380.3,136.9-82.1,190-233.2,164.1-380.3-60.7,26.1-112.1,21.3-164.1-21.4-52,42.7-103.4,47.5-164.1,21.4M249.5,200.7c-1.8-5.6-3.8-11-6-16.4-.2-.5-.4-1-.6-1.4h-17v17.8h23.6ZM225.9,233.9h32.3c-1.2-5.8-2.5-11.5-4-17.2h-28.3c0,5.1,0,9.8,0,17.2ZM192.5,184.3c-6.5,15.9-11.1,32.4-14.7,49.6h32.1v-51h-16.9c-.2.4-.4.9-.6,1.4ZM209.9,251.1h-35.3c-1.2,7.5-2.3,15.2-3.2,23,10.7,8.9,24,14.8,38.5,16.5v-39.6ZM264.7,275.3c-1-8.3-2.1-16.3-3.4-24.2h-35.4v39.8c14.5-1.4,27.9-7,38.8-15.5ZM156.3,257.2c.7-4.5,1.4-9,2.1-13.5,4-22.9,9.5-44.9,18.1-65.9,1-2.4,2.1-4.9,3.9-7,2.6-3.1,6-5.2,10.9-5.2h18.7v-23c-17,2-32.3,9.8-43.8,21.4-13.5,13.5-21.9,32.1-21.9,52.7h0c0,14.9,4.4,28.8,12,40.5ZM167.2,315.8c-.3,3.7-17.6,2.4-17.3-1.5,1.1-11.9,2.2-23.5,3.5-35.1-15.6-16.3-25.2-38.3-25.2-62.5h0c0-25,10.2-47.6,26.6-64,14.4-14.4,33.7-24,55.1-26.1v-15.3h-54.6c-3.5,0-3.5-16,0-16h149.8c3.5,0,3.5,16,0,16h-79.2v15.1c12.6,1,24.5,4.6,35.1,10.2,2.1,1.1,4.2,2.3,6,3.5h0c10.1,6.4,18.8,14.7,25.7,24.3,3.4,4.9-9.7,13.9-13.1,9.2-5.7-8-12.9-14.9-21.1-20.1h0c-1.7-1.1-3.3-2-4.9-2.9-8.4-4.5-17.8-7.4-27.7-8.3v23.1h18.8c4.9,0,8.3,2.1,10.9,5.2,1.8,2.1,2.9,4.6,3.9,7,3.1,7.5,5.8,15.2,8.1,22.9h11.2c3.5,0,3.5,16,0,16h-6.8c2.2,8.8,4,17.8,5.6,27,.9,5.2,1.7,10.4,2.4,15.6,4.1-4,16.3,4.3,12.8,9.4h0s-.2.2-.2.2c-2.4,3.4-4.9,6.4-7.5,9.2-.8.9-1.6,1.7-2.5,2.6,1.3,11.1,2.3,22.3,3.3,33.6.4,3.9-16.9,5.2-17.3,1.5-.7-7.6-1.4-15-2.1-22.3-12,7.5-25.9,12.3-40.8,13.5v27.2c0,3.5-16,3.5-16,0v-27.3c-14.8-1.5-28.6-6.5-40.5-14.3-.8,7.7-1.5,15.4-2.2,23.3ZM68.1,63.6c-1.5,12.7-2.5,25.4-2.8,38-.5,19.9.5,39.5,3,58.4,12.4,95.1,61.8,182.5,149.7,239,14.6-9.4,28.3-19.7,41-30.9,15.1-13.3,28.6-27.7,40.6-42.9,57.5-73.2,79.8-167.4,68.3-261.5-25.3,8.3-49.5,11.2-73.1,8.4-26.4-3.2-51.7-13.6-76.8-31.8-25.1,18.2-50.4,28.6-76.8,31.8-23.6,2.9-47.8,0-73.1-8.4Z"/>
</svg>