<?xml version="1.0" encoding="UTF-8"?>
<svg id="Layer_1" xmlns="http://www.w3.org/2000/svg" version="1.1" viewBox="0 0 225 225">
  <!-- Generator: Adobe Illustrator 29.2.1, SVG Export Plug-In . SVG Version: 2.1.0 Build 116)  -->
  <defs>
    <style>
      .st0 {
        fill: #020103;
      }

      .st0, .st1 {
        fill-rule: evenodd;
      }

      .st1 {
        fill: #fff;
      }
    </style>
  </defs>
  <path class="st0" d="M50.6,187.1h123.7c-.4,1.3-9.9,7.6-12,8.8-4.6,2.6-8.9,4.9-14.2,7-22.6,9-48.6,8.9-71.2,0-7.3-2.9-14.2-6.7-20.4-11.1-1.3-.9-5.4-3.8-5.9-4.7h0ZM18.7,137.2l187.6.2c0,3.3-5.2,15.3-7.2,19.2-.8,1.6-2.6,4.4-3.1,5.7l-166.9-.2c-4.1-6.9-8.4-16.1-10.4-24.9h0ZM116.2,87.5c2.2-.4,8.8-.1,11.4-.1h78.7c1.5,6.6,3.7,16.4,3.2,23.6h-93.4c0-.1,0-23.5,0-23.5ZM15.6,109.7c-.5-5.4,1.6-16.3,2.9-21.3,1.6-6.1,3.7-12.2,6.4-17.6,5.8-11.8,12.7-20.8,20.2-28,.5-.5,1-1.1,1.5-1.6.6-.5,1.1-.9,1.7-1.4,1-1,2-1.8,3.2-2.7,16.6-13.7,40.2-22.3,62.6-21.7v94.4c-.1,0-98.5,0-98.5,0ZM116.3,37.5c17.3-.2,34.8,0,52.2,0,1.6,0,5.2-.4,6.3.3,1.8,1.2,10.1,9.6,11.4,11.3l4.3,5.4c1.1,1.5,4.7,6.2,5.2,8h-79.4c0,0,0-25,0-25ZM106.7,13.5c-22.7,1.7-41.2,9.2-57.7,22.8C25.5,55.7,11.5,86.6,13.6,118.7c3.4,52.8,48.3,96.2,105.1,92.8,52.5-3.1,96.4-48.5,92.9-105.1-1.6-26.2-13.3-50.1-32-67.1-19.4-17.7-46-28-72.9-25.9"/>
  <path class="st0" d="M109.2,8.6c27.7-1.1,53.7,9.3,73.5,27.2,6.9,6.2,14.3,15.4,18.9,23.1,8.9,14.9,14.2,31.3,14.8,50.2,2,58.5-44.3,105.4-100.5,107.4-58.5,2-105.5-44.3-107.4-100.5-.7-21.8,5.6-43.6,17.2-60.7,3.6-5.4,5.1-6.8,8.5-11.1,1.4-1.8,7.8-8.2,9.7-9.7,8-6.6,13.3-10.7,23.5-15.5,12.6-6,25.9-9.6,41.8-10.3h0ZM0,108.9v8.6c0,0,0,.1,0,.2v.6c.2.2.2.6.2.9.4,7.5,1.6,14.9,3.5,22.2,1.9,7.1,4.4,13.7,7.4,19.9,6,12.4,16.5,27,26.6,35.3,4.7,3.8,5.1,4.6,11.5,9,31.3,21.7,72.8,25.4,108.3,10.1,13.3-5.8,21-11.6,31.2-20.4,2.2-1.9,2.9-3,5.2-5.1l6.3-7.3c11.9-14.3,20.1-33.4,23.2-52.1.3-2.1,1.1-11.4,1.4-12.2v-11.1l-1.3-12.5c-2.8-17.5-9.9-34.8-20.2-48.7-6.4-8.7-11.8-14.2-20.2-21.2-7.1-5.9-16.9-11.9-25.7-15.7C144,3.6,128.6-.2,111.8,0c-16.2.2-32.6,3.8-45.5,9.9-14.3,6.8-23.6,13.6-32.7,22.4l-6.7,7.2c-7.3,9.3-10.4,13.1-16.3,25.1-4.6,9.4-8,21.1-9.6,31.9C.9,98.5.3,108.2,0,108.9"/>
  <g>
    <path class="st1" d="M18.7,137.2c2,8.8,6.3,18,10.4,24.9l166.9.2c.5-1.3,2.2-4.1,3.1-5.7,2-3.9,7.1-15.8,7.2-19.2l-187.6-.2Z"/>
    <path class="st1" d="M70.1,87.6v18.1c-.1,0-12.2,0-12.2,0v-9.4s-24.5,0-24.5,0l-.9,9.1c-1.2.3-11.4.1-13.1.1,1.4-27.9,18-55.2,40.3-68.9,2.5-1.5,7.6-4.1,10.7-4.9l-.3,55.9h0ZM111.1,84.4c.7,2.4-.7,9.4-1.5,11.5-1.2,3.4-3.1,6.1-5.2,7.8-5,4-13.4,5.3-20.4,2.3-5.9-2.5-9.1-8.2-10-16.2-.5-4.7-.2-32-.2-39,0-14.2-1.3-20.4,12.3-26.7,4.9-2.3,15.6-5.7,21-2.4,4.5,2.7,4.4,15.5,4.2,21.9h-12.5c0-3.2.7-11.1-2.2-12.1-1.8-.6-4.6.6-5.8,1.4-5.7,3.8-4.6,9.7-4.6,16.6,0,4.8,0,9.5,0,14.3,0,4.9-.4,24.8.5,28.1,1.7,6.1,10.3,6.3,11.8-.8.5-2.3,0-4.6.4-6.7h12.3ZM15.6,110.5h98.4c0,0,.1-94.2.1-94.2-22.4-.7-45.9,7.9-62.6,21.6-1.2,1-2.2,1.7-3.2,2.7-.5.6-1.1.9-1.7,1.4-.6.5-1,1-1.5,1.6-7.6,7.2-14.5,16.2-20.2,28-2.6,5.4-4.8,11.5-6.4,17.6-1.3,5-3.4,16-2.9,21.3"/>
    <path class="st1" d="M106.7,13.5c26.9-2,53.5,8.2,72.9,25.9,18.7,17,30.4,40.9,32,67.1,3.5,56.6-40.4,102-92.9,105.1-56.8,3.3-101.8-40.1-105.1-92.8-2-32.1,12-63,35.4-82.4,16.5-13.6,35-21.1,57.7-22.8h0ZM109.2,8.6c-15.9.6-29.3,4.2-41.8,10.3-10.1,4.9-15.5,9-23.5,15.5-1.8,1.5-8.3,7.9-9.7,9.7-3.4,4.3-4.9,5.8-8.5,11.1-11.5,17.1-17.9,38.9-17.2,60.7,1.8,56.3,48.9,102.5,107.4,100.5,56.2-1.9,102.5-48.9,100.5-107.4-.6-18.9-6-35.3-14.8-50.2-4.6-7.8-12-17-18.9-23.1-19.9-17.9-45.8-28.3-73.5-27.2"/>
    <path class="st1" d="M116.2,110.9h93.4c.5-7.1-1.7-16.8-3.2-23.4h-78.7c-2.7,0-9.3-.4-11.4,0v23.4Z"/>
  </g>
  <path class="st0" d="M36.1,85.3c2-9.9,8.8-20.7,14.8-28.2,1.2-1.6,5.7-6.6,7-7.2.3,9.8,0,24.9,0,35.3-1.3.3-17.9.1-21.7.1h0ZM70.4,31c-3.1.8-8.2,3.4-10.7,4.9-22.4,13.7-38.9,41-40.3,68.9,1.7,0,11.9.2,13.1-.1l.9-9.1h24.5c0,0,0,9.5,0,9.5h12.1s.1-18.1.1-18.1l.3-55.9h0Z"/>
  <path class="st1" d="M50.6,187.1c.5.9,4.6,3.8,5.9,4.7,6.2,4.4,13.1,8.2,20.4,11.1,22.6,9,48.6,9,71.2,0,5.3-2.1,9.6-4.4,14.2-7,2.1-1.2,11.6-7.5,12-8.7H50.6Z"/>
  <path class="st1" d="M116.2,62.5h79.4c-.6-1.8-4.1-6.4-5.2-7.9l-4.3-5.4c-1.3-1.7-9.6-10.1-11.4-11.3-1-.7-4.7-.3-6.3-.3-17.4,0-34.8-.2-52.2,0v24.9Z"/>
  <path class="st0" d="M111.1,83.7h-12.3c-.3,2.1.1,4.4-.4,6.7-1.5,7.1-10.1,6.9-11.8.8-.9-3.2-.5-23.2-.5-28.1,0-4.8,0-9.5,0-14.3,0-6.9-1.1-12.8,4.6-16.6,1.2-.8,4-2,5.8-1.4,2.9,1,2.1,8.9,2.2,12.1h12.5c.1-6.3.2-19.1-4.2-21.9-5.4-3.3-16.1.1-21,2.4-13.6,6.3-12.3,12.5-12.3,26.7,0,6.9-.3,34.2.2,39,.9,8,4.1,13.7,10,16.2,7.1,3.1,15.4,1.7,20.4-2.3,2.1-1.7,4-4.4,5.2-7.8.8-2.2,2.2-9.1,1.5-11.5"/>
  <path class="st1" d="M36.1,85.3c3.9,0,20.4.2,21.7-.1,0-10.5.3-25.5,0-35.3-1.3.7-5.8,5.6-7,7.2-6,7.6-12.8,18.3-14.8,28.2"/>
</svg>